<?xml version="1.0" encoding="UTF-8" standalone="no"?><svg xmlns="http://www.w3.org/2000/svg" xmlns:xlink="http://www.w3.org/1999/xlink" contentScriptType="application/ecmascript" contentStyleType="text/css" height="1077px" preserveAspectRatio="none" style="width:1505px;height:1077px;" version="1.1" viewBox="0 0 1505 1077" width="1505px" zoomAndPan="magnify"><defs><filter height="300%" id="f1hs7t1iyg89zw" width="300%" x="-1" y="-1"><feGaussianBlur result="blurOut" stdDeviation="2.0"/><feColorMatrix in="blurOut" result="blurOut2" type="matrix" values="0 0 0 0 0 0 0 0 0 0 0 0 0 0 0 0 0 0 .4 0"/><feOffset dx="4.0" dy="4.0" in="blurOut2" result="blurOut3"/><feBlend in="SourceGraphic" in2="blurOut3" mode="normal"/></filter></defs><g><line style="stroke: #A80036; stroke-width: 1.0; stroke-dasharray: 5.0,5.0;" x1="62" x2="62" y1="38.2969" y2="1037.5469"/><line style="stroke: #A80036; stroke-width: 1.0; stroke-dasharray: 5.0,5.0;" x1="194" x2="194" y1="38.2969" y2="1037.5469"/><line style="stroke: #A80036; stroke-width: 1.0; stroke-dasharray: 5.0,5.0;" x1="309" x2="309" y1="38.2969" y2="1037.5469"/><line style="stroke: #A80036; stroke-width: 1.0; stroke-dasharray: 5.0,5.0;" x1="478" x2="478" y1="38.2969" y2="1037.5469"/><line style="stroke: #A80036; stroke-width: 1.0; stroke-dasharray: 5.0,5.0;" x1="697" x2="697" y1="38.2969" y2="1037.5469"/><line style="stroke: #A80036; stroke-width: 1.0; stroke-dasharray: 5.0,5.0;" x1="866" x2="866" y1="38.2969" y2="1037.5469"/><line style="stroke: #A80036; stroke-width: 1.0; stroke-dasharray: 5.0,5.0;" x1="1010.5" x2="1010.5" y1="38.2969" y2="1037.5469"/><line style="stroke: #A80036; stroke-width: 1.0; stroke-dasharray: 5.0,5.0;" x1="1193.5" x2="1193.5" y1="38.2969" y2="1037.5469"/><line style="stroke: #A80036; stroke-width: 1.0; stroke-dasharray: 5.0,5.0;" x1="1382.5" x2="1382.5" y1="38.2969" y2="1037.5469"/><rect fill="#FEFECE" filter="url(#f1hs7t1iyg89zw)" height="30.2969" style="stroke: #A80036; stroke-width: 1.5;" width="105" x="8" y="3"/><text fill="#000000" font-family="sans-serif" font-size="14" lengthAdjust="spacingAndGlyphs" textLength="91" x="15" y="22.9951">ContextImpl</text><rect fill="#FEFECE" filter="url(#f1hs7t1iyg89zw)" height="30.2969" style="stroke: #A80036; stroke-width: 1.5;" width="105" x="8" y="1036.5469"/><text fill="#000000" font-family="sans-serif" font-size="14" lengthAdjust="spacingAndGlyphs" textLength="91" x="15" y="1056.542">ContextImpl</text><rect fill="#FEFECE" filter="url(#f1hs7t1iyg89zw)" height="30.2969" style="stroke: #A80036; stroke-width: 1.5;" width="131" x="127" y="3"/><text fill="#000000" font-family="sans-serif" font-size="14" lengthAdjust="spacingAndGlyphs" textLength="117" x="134" y="22.9951">Instrumentation</text><rect fill="#FEFECE" filter="url(#f1hs7t1iyg89zw)" height="30.2969" style="stroke: #A80036; stroke-width: 1.5;" width="131" x="127" y="1036.5469"/><text fill="#000000" font-family="sans-serif" font-size="14" lengthAdjust="spacingAndGlyphs" textLength="117" x="134" y="1056.542">Instrumentation</text><rect fill="#FEFECE" filter="url(#f1hs7t1iyg89zw)" height="30.2969" style="stroke: #A80036; stroke-width: 1.5;" width="45" x="285" y="3"/><text fill="#000000" font-family="sans-serif" font-size="14" lengthAdjust="spacingAndGlyphs" textLength="31" x="292" y="22.9951">AMS</text><rect fill="#FEFECE" filter="url(#f1hs7t1iyg89zw)" height="30.2969" style="stroke: #A80036; stroke-width: 1.5;" width="45" x="285" y="1036.5469"/><text fill="#000000" font-family="sans-serif" font-size="14" lengthAdjust="spacingAndGlyphs" textLength="31" x="292" y="1056.542">AMS</text><rect fill="#FEFECE" filter="url(#f1hs7t1iyg89zw)" height="30.2969" style="stroke: #A80036; stroke-width: 1.5;" width="187" x="383" y="3"/><text fill="#000000" font-family="sans-serif" font-size="14" lengthAdjust="spacingAndGlyphs" textLength="173" x="390" y="22.9951">ActivityStackSupervisor</text><rect fill="#FEFECE" filter="url(#f1hs7t1iyg89zw)" height="30.2969" style="stroke: #A80036; stroke-width: 1.5;" width="187" x="383" y="1036.5469"/><text fill="#000000" font-family="sans-serif" font-size="14" lengthAdjust="spacingAndGlyphs" textLength="173" x="390" y="1056.542">ActivityStackSupervisor</text><rect fill="#FEFECE" filter="url(#f1hs7t1iyg89zw)" height="30.2969" style="stroke: #A80036; stroke-width: 1.5;" width="111" x="640" y="3"/><text fill="#000000" font-family="sans-serif" font-size="14" lengthAdjust="spacingAndGlyphs" textLength="97" x="647" y="22.9951">ActivityStack</text><rect fill="#FEFECE" filter="url(#f1hs7t1iyg89zw)" height="30.2969" style="stroke: #A80036; stroke-width: 1.5;" width="111" x="640" y="1036.5469"/><text fill="#000000" font-family="sans-serif" font-size="14" lengthAdjust="spacingAndGlyphs" textLength="97" x="647" y="1056.542">ActivityStack</text><rect fill="#FEFECE" filter="url(#f1hs7t1iyg89zw)" height="30.2969" style="stroke: #A80036; stroke-width: 1.5;" width="199" x="765" y="3"/><text fill="#000000" font-family="sans-serif" font-size="14" lengthAdjust="spacingAndGlyphs" textLength="185" x="772" y="22.9951">IApplicationThreadn.Stub</text><rect fill="#FEFECE" filter="url(#f1hs7t1iyg89zw)" height="30.2969" style="stroke: #A80036; stroke-width: 1.5;" width="199" x="765" y="1036.5469"/><text fill="#000000" font-family="sans-serif" font-size="14" lengthAdjust="spacingAndGlyphs" textLength="185" x="772" y="1056.542">IApplicationThreadn.Stub</text><rect fill="#FEFECE" filter="url(#f1hs7t1iyg89zw)" height="30.2969" style="stroke: #A80036; stroke-width: 1.5;" width="24" x="996.5" y="3"/><text fill="#000000" font-family="sans-serif" font-size="14" lengthAdjust="spacingAndGlyphs" textLength="10" x="1003.5" y="22.9951">H</text><rect fill="#FEFECE" filter="url(#f1hs7t1iyg89zw)" height="30.2969" style="stroke: #A80036; stroke-width: 1.5;" width="24" x="996.5" y="1036.5469"/><text fill="#000000" font-family="sans-serif" font-size="14" lengthAdjust="spacingAndGlyphs" textLength="10" x="1003.5" y="1056.542">H</text><rect fill="#FEFECE" filter="url(#f1hs7t1iyg89zw)" height="30.2969" style="stroke: #A80036; stroke-width: 1.5;" width="120" x="1131.5" y="3"/><text fill="#000000" font-family="sans-serif" font-size="14" lengthAdjust="spacingAndGlyphs" textLength="106" x="1138.5" y="22.9951">ActivityThread</text><rect fill="#FEFECE" filter="url(#f1hs7t1iyg89zw)" height="30.2969" style="stroke: #A80036; stroke-width: 1.5;" width="120" x="1131.5" y="1036.5469"/><text fill="#000000" font-family="sans-serif" font-size="14" lengthAdjust="spacingAndGlyphs" textLength="106" x="1138.5" y="1056.542">ActivityThread</text><rect fill="#FEFECE" filter="url(#f1hs7t1iyg89zw)" height="30.2969" style="stroke: #A80036; stroke-width: 1.5;" width="70" x="1345.5" y="3"/><text fill="#000000" font-family="sans-serif" font-size="14" lengthAdjust="spacingAndGlyphs" textLength="56" x="1352.5" y="22.9951">Activity</text><rect fill="#FEFECE" filter="url(#f1hs7t1iyg89zw)" height="30.2969" style="stroke: #A80036; stroke-width: 1.5;" width="70" x="1345.5" y="1036.5469"/><text fill="#000000" font-family="sans-serif" font-size="14" lengthAdjust="spacingAndGlyphs" textLength="56" x="1352.5" y="1056.542">Activity</text><polygon fill="#A80036" points="182.5,80.5625,192.5,84.5625,182.5,88.5625,186.5,84.5625" style="stroke: #A80036; stroke-width: 1.0;"/><line style="stroke: #A80036; stroke-width: 1.0;" x1="62.5" x2="188.5" y1="84.5625" y2="84.5625"/><text fill="#000000" font-family="sans-serif" font-size="13" font-weight="bold" lengthAdjust="spacingAndGlyphs" textLength="9" x="69.5" y="71.9302">1</text><text fill="#000000" font-family="sans-serif" font-size="13" lengthAdjust="spacingAndGlyphs" textLength="31" x="82.5" y="64.3638">exec</text><text fill="#000000" font-family="sans-serif" font-size="13" lengthAdjust="spacingAndGlyphs" textLength="79" x="82.5" y="79.4966">StartActivity</text><polygon fill="#A80036" points="297.5,109.6953,307.5,113.6953,297.5,117.6953,301.5,113.6953" style="stroke: #A80036; stroke-width: 1.0;"/><line style="stroke: #A80036; stroke-width: 1.0;" x1="194.5" x2="303.5" y1="113.6953" y2="113.6953"/><text fill="#000000" font-family="sans-serif" font-size="13" font-weight="bold" lengthAdjust="spacingAndGlyphs" textLength="9" x="201.5" y="108.6294">2</text><text fill="#000000" font-family="sans-serif" font-size="13" lengthAdjust="spacingAndGlyphs" textLength="78" x="214.5" y="108.6294">startActivity</text><polygon fill="#A80036" points="466.5,138.8281,476.5,142.8281,466.5,146.8281,470.5,142.8281" style="stroke: #A80036; stroke-width: 1.0;"/><line style="stroke: #A80036; stroke-width: 1.0;" x1="309.5" x2="472.5" y1="142.8281" y2="142.8281"/><text fill="#000000" font-family="sans-serif" font-size="13" font-weight="bold" lengthAdjust="spacingAndGlyphs" textLength="8" x="316.5" y="137.7622">3</text><text fill="#000000" font-family="sans-serif" font-size="13" lengthAdjust="spacingAndGlyphs" textLength="133" x="328.5" y="137.7622">startActivityMayWait</text><line style="stroke: #A80036; stroke-width: 1.0;" x1="478.5" x2="520.5" y1="171.9609" y2="171.9609"/><line style="stroke: #A80036; stroke-width: 1.0;" x1="520.5" x2="520.5" y1="171.9609" y2="184.9609"/><line style="stroke: #A80036; stroke-width: 1.0;" x1="479.5" x2="520.5" y1="184.9609" y2="184.9609"/><polygon fill="#A80036" points="489.5,180.9609,479.5,184.9609,489.5,188.9609,485.5,184.9609" style="stroke: #A80036; stroke-width: 1.0;"/><text fill="#000000" font-family="sans-serif" font-size="13" font-weight="bold" lengthAdjust="spacingAndGlyphs" textLength="9" x="485.5" y="166.895">4</text><text fill="#000000" font-family="sans-serif" font-size="13" lengthAdjust="spacingAndGlyphs" textLength="123" x="498.5" y="166.895">startActivityLocked</text><line style="stroke: #A80036; stroke-width: 1.0;" x1="478.5" x2="520.5" y1="229.2266" y2="229.2266"/><line style="stroke: #A80036; stroke-width: 1.0;" x1="520.5" x2="520.5" y1="229.2266" y2="242.2266"/><line style="stroke: #A80036; stroke-width: 1.0;" x1="479.5" x2="520.5" y1="242.2266" y2="242.2266"/><polygon fill="#A80036" points="489.5,238.2266,479.5,242.2266,489.5,246.2266,485.5,242.2266" style="stroke: #A80036; stroke-width: 1.0;"/><text fill="#000000" font-family="sans-serif" font-size="13" font-weight="bold" lengthAdjust="spacingAndGlyphs" textLength="9" x="485.5" y="216.5942">5</text><text fill="#000000" font-family="sans-serif" font-size="13" lengthAdjust="spacingAndGlyphs" textLength="78" x="498.5" y="209.0278">startActivity</text><text fill="#000000" font-family="sans-serif" font-size="13" lengthAdjust="spacingAndGlyphs" textLength="115" x="498.5" y="224.1606">UncheckedLocked</text><polygon fill="#A80036" points="685.5,267.3594,695.5,271.3594,685.5,275.3594,689.5,271.3594" style="stroke: #A80036; stroke-width: 1.0;"/><line style="stroke: #A80036; stroke-width: 1.0;" x1="478.5" x2="691.5" y1="271.3594" y2="271.3594"/><text fill="#000000" font-family="sans-serif" font-size="13" font-weight="bold" lengthAdjust="spacingAndGlyphs" textLength="9" x="485.5" y="266.2935">6</text><text fill="#000000" font-family="sans-serif" font-size="13" lengthAdjust="spacingAndGlyphs" textLength="123" x="498.5" y="266.2935">startActivityLocked</text><polygon fill="#A80036" points="489.5,311.625,479.5,315.625,489.5,319.625,485.5,315.625" style="stroke: #A80036; stroke-width: 1.0;"/><line style="stroke: #A80036; stroke-width: 1.0;" x1="483.5" x2="696.5" y1="315.625" y2="315.625"/><text fill="#000000" font-family="sans-serif" font-size="13" font-weight="bold" lengthAdjust="spacingAndGlyphs" textLength="9" x="495.5" y="302.9927">7</text><text fill="#000000" font-family="sans-serif" font-size="13" lengthAdjust="spacingAndGlyphs" textLength="73" x="508.5" y="295.4263">resumeTop</text><text fill="#000000" font-family="sans-serif" font-size="13" lengthAdjust="spacingAndGlyphs" textLength="103" x="508.5" y="310.5591">ActivitiesLocked</text><polygon fill="#A80036" points="685.5,340.7578,695.5,344.7578,685.5,348.7578,689.5,344.7578" style="stroke: #A80036; stroke-width: 1.0;"/><line style="stroke: #A80036; stroke-width: 1.0;" x1="478.5" x2="691.5" y1="344.7578" y2="344.7578"/><text fill="#000000" font-family="sans-serif" font-size="13" font-weight="bold" lengthAdjust="spacingAndGlyphs" textLength="9" x="485.5" y="339.6919">8</text><text fill="#000000" font-family="sans-serif" font-size="13" lengthAdjust="spacingAndGlyphs" textLength="166" x="498.5" y="339.6919">resumeTopActivityLocked</text><line style="stroke: #A80036; stroke-width: 1.0;" x1="697.5" x2="739.5" y1="404.1563" y2="404.1563"/><line style="stroke: #A80036; stroke-width: 1.0;" x1="739.5" x2="739.5" y1="404.1563" y2="417.1563"/><line style="stroke: #A80036; stroke-width: 1.0;" x1="698.5" x2="739.5" y1="417.1563" y2="417.1563"/><polygon fill="#A80036" points="708.5,413.1563,698.5,417.1563,708.5,421.1563,704.5,417.1563" style="stroke: #A80036; stroke-width: 1.0;"/><text fill="#000000" font-family="sans-serif" font-size="13" font-weight="bold" lengthAdjust="spacingAndGlyphs" textLength="9" x="704.5" y="383.9575">9</text><text fill="#000000" font-family="sans-serif" font-size="13" lengthAdjust="spacingAndGlyphs" textLength="49" x="717.5" y="368.8247">resume</text><text fill="#000000" font-family="sans-serif" font-size="13" lengthAdjust="spacingAndGlyphs" textLength="72" x="717.5" y="383.9575">TopActivity</text><text fill="#000000" font-family="sans-serif" font-size="13" lengthAdjust="spacingAndGlyphs" textLength="77" x="717.5" y="399.0903">InnerLocked</text><polygon fill="#A80036" points="489.5,442.2891,479.5,446.2891,489.5,450.2891,485.5,446.2891" style="stroke: #A80036; stroke-width: 1.0;"/><line style="stroke: #A80036; stroke-width: 1.0;" x1="483.5" x2="696.5" y1="446.2891" y2="446.2891"/><text fill="#000000" font-family="sans-serif" font-size="13" font-weight="bold" lengthAdjust="spacingAndGlyphs" textLength="19" x="495.5" y="441.2231">10</text><text fill="#000000" font-family="sans-serif" font-size="13" lengthAdjust="spacingAndGlyphs" textLength="172" x="518.5" y="441.2231">startSpecificActivityLocked</text><line style="stroke: #A80036; stroke-width: 1.0;" x1="478.5" x2="520.5" y1="475.4219" y2="475.4219"/><line style="stroke: #A80036; stroke-width: 1.0;" x1="520.5" x2="520.5" y1="475.4219" y2="488.4219"/><line style="stroke: #A80036; stroke-width: 1.0;" x1="479.5" x2="520.5" y1="488.4219" y2="488.4219"/><polygon fill="#A80036" points="489.5,484.4219,479.5,488.4219,489.5,492.4219,485.5,488.4219" style="stroke: #A80036; stroke-width: 1.0;"/><text fill="#000000" font-family="sans-serif" font-size="13" font-weight="bold" lengthAdjust="spacingAndGlyphs" textLength="18" x="485.5" y="470.356">11</text><text fill="#000000" font-family="sans-serif" font-size="13" lengthAdjust="spacingAndGlyphs" textLength="148" x="507.5" y="470.356">realStartActivityLocked</text><polygon fill="#A80036" points="854.5,513.5547,864.5,517.5547,854.5,521.5547,858.5,517.5547" style="stroke: #A80036; stroke-width: 1.0;"/><line style="stroke: #A80036; stroke-width: 1.0;" x1="478.5" x2="860.5" y1="517.5547" y2="517.5547"/><text fill="#000000" font-family="sans-serif" font-size="13" font-weight="bold" lengthAdjust="spacingAndGlyphs" textLength="18" x="485.5" y="512.4888">12</text><text fill="#000000" font-family="sans-serif" font-size="13" lengthAdjust="spacingAndGlyphs" textLength="151" x="507.5" y="512.4888">scheduleLaunchActivity</text><polygon fill="#A80036" points="998.5,542.6875,1008.5,546.6875,998.5,550.6875,1002.5,546.6875" style="stroke: #A80036; stroke-width: 1.0;"/><line style="stroke: #A80036; stroke-width: 1.0;" x1="866.5" x2="1004.5" y1="546.6875" y2="546.6875"/><text fill="#000000" font-family="sans-serif" font-size="13" font-weight="bold" lengthAdjust="spacingAndGlyphs" textLength="17" x="873.5" y="541.6216">13</text><text fill="#000000" font-family="sans-serif" font-size="13" lengthAdjust="spacingAndGlyphs" textLength="99" x="894.5" y="541.6216">handleMessage</text><polygon fill="#A80036" points="1181.5,571.8203,1191.5,575.8203,1181.5,579.8203,1185.5,575.8203" style="stroke: #A80036; stroke-width: 1.0;"/><line style="stroke: #A80036; stroke-width: 1.0;" x1="1010.5" x2="1187.5" y1="575.8203" y2="575.8203"/><text fill="#000000" font-family="sans-serif" font-size="13" font-weight="bold" lengthAdjust="spacingAndGlyphs" textLength="18" x="1017.5" y="570.7544">14</text><text fill="#000000" font-family="sans-serif" font-size="13" lengthAdjust="spacingAndGlyphs" textLength="137" x="1039.5" y="570.7544">handleLaunchActivity</text><line style="stroke: #A80036; stroke-width: 1.0;" x1="1193.5" x2="1235.5" y1="604.9531" y2="604.9531"/><line style="stroke: #A80036; stroke-width: 1.0;" x1="1235.5" x2="1235.5" y1="604.9531" y2="617.9531"/><line style="stroke: #A80036; stroke-width: 1.0;" x1="1194.5" x2="1235.5" y1="617.9531" y2="617.9531"/><polygon fill="#A80036" points="1204.5,613.9531,1194.5,617.9531,1204.5,621.9531,1200.5,617.9531" style="stroke: #A80036; stroke-width: 1.0;"/><text fill="#000000" font-family="sans-serif" font-size="13" font-weight="bold" lengthAdjust="spacingAndGlyphs" textLength="18" x="1200.5" y="599.8872">15</text><text fill="#000000" font-family="sans-serif" font-size="13" lengthAdjust="spacingAndGlyphs" textLength="146" x="1222.5" y="599.8872">performLaunchActivity</text><polygon fill="#A80036" points="1370.5,643.0859,1380.5,647.0859,1370.5,651.0859,1374.5,647.0859" style="stroke: #A80036; stroke-width: 1.0;"/><line style="stroke: #A80036; stroke-width: 1.0;" x1="1193.5" x2="1376.5" y1="647.0859" y2="647.0859"/><text fill="#000000" font-family="sans-serif" font-size="13" font-weight="bold" lengthAdjust="spacingAndGlyphs" textLength="18" x="1200.5" y="642.02">16</text><text fill="#000000" font-family="sans-serif" font-size="13" lengthAdjust="spacingAndGlyphs" textLength="41" x="1222.5" y="642.02">attach</text><polygon fill="#A80036" points="205.5,672.2188,195.5,676.2188,205.5,680.2188,201.5,676.2188" style="stroke: #A80036; stroke-width: 1.0;"/><line style="stroke: #A80036; stroke-width: 1.0;" x1="199.5" x2="1192.5" y1="676.2188" y2="676.2188"/><text fill="#000000" font-family="sans-serif" font-size="13" font-weight="bold" lengthAdjust="spacingAndGlyphs" textLength="18" x="211.5" y="671.1528">17</text><text fill="#000000" font-family="sans-serif" font-size="13" lengthAdjust="spacingAndGlyphs" textLength="130" x="233.5" y="671.1528">callActivityOnCreate</text><polygon fill="#A80036" points="1370.5,701.3516,1380.5,705.3516,1370.5,709.3516,1374.5,705.3516" style="stroke: #A80036; stroke-width: 1.0;"/><line style="stroke: #A80036; stroke-width: 1.0;" x1="194.5" x2="1376.5" y1="705.3516" y2="705.3516"/><text fill="#000000" font-family="sans-serif" font-size="13" font-weight="bold" lengthAdjust="spacingAndGlyphs" textLength="18" x="201.5" y="700.2856">18</text><text fill="#000000" font-family="sans-serif" font-size="13" lengthAdjust="spacingAndGlyphs" textLength="95" x="223.5" y="700.2856">performCreate</text><line style="stroke: #A80036; stroke-width: 1.0;" x1="1382.5" x2="1424.5" y1="734.4844" y2="734.4844"/><line style="stroke: #A80036; stroke-width: 1.0;" x1="1424.5" x2="1424.5" y1="734.4844" y2="747.4844"/><line style="stroke: #A80036; stroke-width: 1.0;" x1="1383.5" x2="1424.5" y1="747.4844" y2="747.4844"/><polygon fill="#A80036" points="1393.5,743.4844,1383.5,747.4844,1393.5,751.4844,1389.5,747.4844" style="stroke: #A80036; stroke-width: 1.0;"/><text fill="#000000" font-family="sans-serif" font-size="13" font-weight="bold" lengthAdjust="spacingAndGlyphs" textLength="18" x="1389.5" y="729.4185">19</text><text fill="#000000" font-family="sans-serif" font-size="13" lengthAdjust="spacingAndGlyphs" textLength="59" x="1411.5" y="729.4185">onCreate</text><line style="stroke: #A80036; stroke-width: 1.0;" x1="1193.5" x2="1235.5" y1="776.6172" y2="776.6172"/><line style="stroke: #A80036; stroke-width: 1.0;" x1="1235.5" x2="1235.5" y1="776.6172" y2="789.6172"/><line style="stroke: #A80036; stroke-width: 1.0;" x1="1194.5" x2="1235.5" y1="789.6172" y2="789.6172"/><polygon fill="#A80036" points="1204.5,785.6172,1194.5,789.6172,1204.5,793.6172,1200.5,789.6172" style="stroke: #A80036; stroke-width: 1.0;"/><text fill="#000000" font-family="sans-serif" font-size="13" font-weight="bold" lengthAdjust="spacingAndGlyphs" textLength="19" x="1200.5" y="771.5513">20</text><text fill="#000000" font-family="sans-serif" font-size="13" lengthAdjust="spacingAndGlyphs" textLength="144" x="1223.5" y="771.5513">handleResumeActivity</text><line style="stroke: #A80036; stroke-width: 1.0;" x1="1193.5" x2="1235.5" y1="818.75" y2="818.75"/><line style="stroke: #A80036; stroke-width: 1.0;" x1="1235.5" x2="1235.5" y1="818.75" y2="831.75"/><line style="stroke: #A80036; stroke-width: 1.0;" x1="1194.5" x2="1235.5" y1="831.75" y2="831.75"/><polygon fill="#A80036" points="1204.5,827.75,1194.5,831.75,1204.5,835.75,1200.5,831.75" style="stroke: #A80036; stroke-width: 1.0;"/><text fill="#000000" font-family="sans-serif" font-size="13" font-weight="bold" lengthAdjust="spacingAndGlyphs" textLength="18" x="1200.5" y="813.6841">21</text><text fill="#000000" font-family="sans-serif" font-size="13" lengthAdjust="spacingAndGlyphs" textLength="153" x="1222.5" y="813.6841">performResumeActivity</text><polygon fill="#A80036" points="1370.5,856.8828,1380.5,860.8828,1370.5,864.8828,1374.5,860.8828" style="stroke: #A80036; stroke-width: 1.0;"/><line style="stroke: #A80036; stroke-width: 1.0;" x1="1193.5" x2="1376.5" y1="860.8828" y2="860.8828"/><text fill="#000000" font-family="sans-serif" font-size="13" font-weight="bold" lengthAdjust="spacingAndGlyphs" textLength="18" x="1200.5" y="855.8169">22</text><text fill="#000000" font-family="sans-serif" font-size="13" lengthAdjust="spacingAndGlyphs" textLength="105" x="1222.5" y="855.8169">performResume</text><line style="stroke: #A80036; stroke-width: 1.0;" x1="1382.5" x2="1424.5" y1="890.0156" y2="890.0156"/><line style="stroke: #A80036; stroke-width: 1.0;" x1="1424.5" x2="1424.5" y1="890.0156" y2="903.0156"/><line style="stroke: #A80036; stroke-width: 1.0;" x1="1383.5" x2="1424.5" y1="903.0156" y2="903.0156"/><polygon fill="#A80036" points="1393.5,899.0156,1383.5,903.0156,1393.5,907.0156,1389.5,903.0156" style="stroke: #A80036; stroke-width: 1.0;"/><text fill="#000000" font-family="sans-serif" font-size="13" font-weight="bold" lengthAdjust="spacingAndGlyphs" textLength="17" x="1389.5" y="884.9497">23</text><text fill="#000000" font-family="sans-serif" font-size="13" lengthAdjust="spacingAndGlyphs" textLength="83" x="1410.5" y="884.9497">performStart</text><polygon fill="#A80036" points="205.5,928.1484,195.5,932.1484,205.5,936.1484,201.5,932.1484" style="stroke: #A80036; stroke-width: 1.0;"/><line style="stroke: #A80036; stroke-width: 1.0;" x1="199.5" x2="1381.5" y1="932.1484" y2="932.1484"/><text fill="#000000" font-family="sans-serif" font-size="13" font-weight="bold" lengthAdjust="spacingAndGlyphs" textLength="18" x="211.5" y="927.0825">24</text><text fill="#000000" font-family="sans-serif" font-size="13" lengthAdjust="spacingAndGlyphs" textLength="118" x="233.5" y="927.0825">callActivityOnStart</text><polygon fill="#A80036" points="1370.5,957.2813,1380.5,961.2813,1370.5,965.2813,1374.5,961.2813" style="stroke: #A80036; stroke-width: 1.0;"/><line style="stroke: #A80036; stroke-width: 1.0;" x1="194.5" x2="1376.5" y1="961.2813" y2="961.2813"/><text fill="#000000" font-family="sans-serif" font-size="13" font-weight="bold" lengthAdjust="spacingAndGlyphs" textLength="18" x="201.5" y="956.2153">25</text><text fill="#000000" font-family="sans-serif" font-size="13" lengthAdjust="spacingAndGlyphs" textLength="47" x="223.5" y="956.2153">onStart</text><polygon fill="#A80036" points="205.5,986.4141,195.5,990.4141,205.5,994.4141,201.5,990.4141" style="stroke: #A80036; stroke-width: 1.0;"/><line style="stroke: #A80036; stroke-width: 1.0;" x1="199.5" x2="1381.5" y1="990.4141" y2="990.4141"/><text fill="#000000" font-family="sans-serif" font-size="13" font-weight="bold" lengthAdjust="spacingAndGlyphs" textLength="18" x="211.5" y="985.3481">26</text><text fill="#000000" font-family="sans-serif" font-size="13" lengthAdjust="spacingAndGlyphs" textLength="140" x="233.5" y="985.3481">callActivityOnResume</text><polygon fill="#A80036" points="1370.5,1015.5469,1380.5,1019.5469,1370.5,1023.5469,1374.5,1019.5469" style="stroke: #A80036; stroke-width: 1.0;"/><line style="stroke: #A80036; stroke-width: 1.0;" x1="194.5" x2="1376.5" y1="1019.5469" y2="1019.5469"/><text fill="#000000" font-family="sans-serif" font-size="13" font-weight="bold" lengthAdjust="spacingAndGlyphs" textLength="18" x="201.5" y="1014.481">27</text><text fill="#000000" font-family="sans-serif" font-size="13" lengthAdjust="spacingAndGlyphs" textLength="69" x="223.5" y="1014.481">onResume</text><!--MD5=[ed6c336957d7956cc38e4562f60babfa]
@startuml
autonumber

ContextImpl->Instrumentation: exec\nStartActivity
Instrumentation->AMS: startActivity
AMS->ActivityStackSupervisor: startActivityMayWait
ActivityStackSupervisor->ActivityStackSupervisor: startActivityLocked
ActivityStackSupervisor->ActivityStackSupervisor: startActivity\nUncheckedLocked
ActivityStackSupervisor->ActivityStack: startActivityLocked
ActivityStack->ActivityStackSupervisor:resumeTop\nActivitiesLocked
ActivityStackSupervisor->ActivityStack: resumeTopActivityLocked
ActivityStack->ActivityStack: resume\nTopActivity\nInnerLocked
ActivityStack->ActivityStackSupervisor: startSpecificActivityLocked
ActivityStackSupervisor->ActivityStackSupervisor: realStartActivityLocked
ActivityStackSupervisor->IApplicationThreadn.Stub: scheduleLaunchActivity
IApplicationThreadn.Stub->H: handleMessage
H->ActivityThread: handleLaunchActivity
ActivityThread->ActivityThread: performLaunchActivity
ActivityThread->Activity: attach
ActivityThread->Instrumentation: callActivityOnCreate
Instrumentation->Activity: performCreate
Activity->Activity: onCreate
ActivityThread->ActivityThread: handleResumeActivity
ActivityThread->ActivityThread: performResumeActivity
ActivityThread->Activity: performResume
Activity->Activity: performStart
Activity->Instrumentation: callActivityOnStart
Instrumentation->Activity: onStart
Activity->Instrumentation: callActivityOnResume
Instrumentation->Activity: onResume
@enduml

PlantUML version 1.2020.12(Sat Jun 06 10:54:15 UTC 2020)
(GPL source distribution)
Java Runtime: Java(TM) SE Runtime Environment
JVM: Java HotSpot(TM) 64-Bit Server VM
Default Encoding: UTF-8
Language: en
Country: US
--></g></svg>