<?xml version="1.0" encoding="UTF-8" standalone="no"?><svg xmlns="http://www.w3.org/2000/svg" xmlns:xlink="http://www.w3.org/1999/xlink" contentScriptType="application/ecmascript" contentStyleType="text/css" height="942px" preserveAspectRatio="none" style="width:1806px;height:942px;" version="1.1" viewBox="0 0 1806 942" width="1806px" zoomAndPan="magnify"><defs><filter height="300%" id="fb143w84yi18k" width="300%" x="-1" y="-1"><feGaussianBlur result="blurOut" stdDeviation="2.0"/><feColorMatrix in="blurOut" result="blurOut2" type="matrix" values="0 0 0 0 0 0 0 0 0 0 0 0 0 0 0 0 0 0 .4 0"/><feOffset dx="4.0" dy="4.0" in="blurOut2" result="blurOut3"/><feBlend in="SourceGraphic" in2="blurOut3" mode="normal"/></filter></defs><g><text fill="#000000" font-family="sans-serif" font-size="18" lengthAdjust="spacingAndGlyphs" textLength="108" x="849.75" y="26.708">进程启动过程</text><line style="stroke: #A80036; stroke-width: 1.0; stroke-dasharray: 5.0,5.0;" x1="65" x2="65" y1="73.25" y2="901.8359"/><line style="stroke: #A80036; stroke-width: 1.0; stroke-dasharray: 5.0,5.0;" x1="181" x2="181" y1="73.25" y2="901.8359"/><line style="stroke: #A80036; stroke-width: 1.0; stroke-dasharray: 5.0,5.0;" x1="265.5" x2="265.5" y1="73.25" y2="901.8359"/><line style="stroke: #A80036; stroke-width: 1.0; stroke-dasharray: 5.0,5.0;" x1="396.5" x2="396.5" y1="73.25" y2="901.8359"/><line style="stroke: #A80036; stroke-width: 1.0; stroke-dasharray: 5.0,5.0;" x1="539" x2="539" y1="73.25" y2="901.8359"/><line style="stroke: #A80036; stroke-width: 1.0; stroke-dasharray: 5.0,5.0;" x1="713" x2="713" y1="73.25" y2="901.8359"/><line style="stroke: #A80036; stroke-width: 1.0; stroke-dasharray: 5.0,5.0;" x1="872" x2="872" y1="73.25" y2="901.8359"/><line style="stroke: #A80036; stroke-width: 1.0; stroke-dasharray: 5.0,5.0;" x1="1045.5" x2="1045.5" y1="73.25" y2="901.8359"/><line style="stroke: #A80036; stroke-width: 1.0; stroke-dasharray: 5.0,5.0;" x1="1167.5" x2="1167.5" y1="73.25" y2="901.8359"/><line style="stroke: #A80036; stroke-width: 1.0; stroke-dasharray: 5.0,5.0;" x1="1304.5" x2="1304.5" y1="73.25" y2="901.8359"/><line style="stroke: #A80036; stroke-width: 1.0; stroke-dasharray: 5.0,5.0;" x1="1445.5" x2="1445.5" y1="73.25" y2="901.8359"/><line style="stroke: #A80036; stroke-width: 1.0; stroke-dasharray: 5.0,5.0;" x1="1573.5" x2="1573.5" y1="73.25" y2="901.8359"/><line style="stroke: #A80036; stroke-width: 1.0; stroke-dasharray: 5.0,5.0;" x1="1716.5" x2="1716.5" y1="73.25" y2="901.8359"/><rect fill="#FEFECE" filter="url(#fb143w84yi18k)" height="30.2969" style="stroke: #A80036; stroke-width: 1.5;" width="111" x="8" y="37.9531"/><text fill="#000000" font-family="sans-serif" font-size="14" lengthAdjust="spacingAndGlyphs" textLength="97" x="15" y="57.9482">ActivityStack</text><rect fill="#FEFECE" filter="url(#fb143w84yi18k)" height="30.2969" style="stroke: #A80036; stroke-width: 1.5;" width="111" x="8" y="900.8359"/><text fill="#000000" font-family="sans-serif" font-size="14" lengthAdjust="spacingAndGlyphs" textLength="97" x="15" y="920.8311">ActivityStack</text><rect fill="#FEFECE" filter="url(#fb143w84yi18k)" height="30.2969" style="stroke: #A80036; stroke-width: 1.5;" width="45" x="157" y="37.9531"/><text fill="#000000" font-family="sans-serif" font-size="14" lengthAdjust="spacingAndGlyphs" textLength="31" x="164" y="57.9482">AMS</text><rect fill="#FEFECE" filter="url(#fb143w84yi18k)" height="30.2969" style="stroke: #A80036; stroke-width: 1.5;" width="45" x="157" y="900.8359"/><text fill="#000000" font-family="sans-serif" font-size="14" lengthAdjust="spacingAndGlyphs" textLength="31" x="164" y="920.8311">AMS</text><rect fill="#FEFECE" filter="url(#fb143w84yi18k)" height="30.2969" style="stroke: #A80036; stroke-width: 1.5;" width="46" x="240.5" y="37.9531"/><text fill="#000000" font-family="sans-serif" font-size="14" lengthAdjust="spacingAndGlyphs" textLength="32" x="247.5" y="57.9482">Proc</text><rect fill="#FEFECE" filter="url(#fb143w84yi18k)" height="30.2969" style="stroke: #A80036; stroke-width: 1.5;" width="46" x="240.5" y="900.8359"/><text fill="#000000" font-family="sans-serif" font-size="14" lengthAdjust="spacingAndGlyphs" textLength="32" x="247.5" y="920.8311">Proc</text><rect fill="#FEFECE" filter="url(#fb143w84yi18k)" height="30.2969" style="stroke: #A80036; stroke-width: 1.5;" width="90" x="349.5" y="37.9531"/><text fill="#000000" font-family="sans-serif" font-size="14" lengthAdjust="spacingAndGlyphs" textLength="76" x="356.5" y="57.9482">ZygoteInit</text><rect fill="#FEFECE" filter="url(#fb143w84yi18k)" height="30.2969" style="stroke: #A80036; stroke-width: 1.5;" width="90" x="349.5" y="900.8359"/><text fill="#000000" font-family="sans-serif" font-size="14" lengthAdjust="spacingAndGlyphs" textLength="76" x="356.5" y="920.8311">ZygoteInit</text><rect fill="#FEFECE" filter="url(#fb143w84yi18k)" height="30.2969" style="stroke: #A80036; stroke-width: 1.5;" width="149" x="463" y="37.9531"/><text fill="#000000" font-family="sans-serif" font-size="14" lengthAdjust="spacingAndGlyphs" textLength="135" x="470" y="57.9482">ZygoteConnection</text><rect fill="#FEFECE" filter="url(#fb143w84yi18k)" height="30.2969" style="stroke: #A80036; stroke-width: 1.5;" width="149" x="463" y="900.8359"/><text fill="#000000" font-family="sans-serif" font-size="14" lengthAdjust="spacingAndGlyphs" textLength="135" x="470" y="920.8311">ZygoteConnection</text><rect fill="#FEFECE" filter="url(#fb143w84yi18k)" height="30.2969" style="stroke: #A80036; stroke-width: 1.5;" width="170" x="626" y="37.9531"/><text fill="#000000" font-family="sans-serif" font-size="14" lengthAdjust="spacingAndGlyphs" textLength="156" x="633" y="57.9482">MethodAndArgsCaller</text><rect fill="#FEFECE" filter="url(#fb143w84yi18k)" height="30.2969" style="stroke: #A80036; stroke-width: 1.5;" width="170" x="626" y="900.8359"/><text fill="#000000" font-family="sans-serif" font-size="14" lengthAdjust="spacingAndGlyphs" textLength="156" x="633" y="920.8311">MethodAndArgsCaller</text><rect fill="#FEFECE" filter="url(#fb143w84yi18k)" height="30.2969" style="stroke: #A80036; stroke-width: 1.5;" width="120" x="810" y="37.9531"/><text fill="#000000" font-family="sans-serif" font-size="14" lengthAdjust="spacingAndGlyphs" textLength="106" x="817" y="57.9482">ActivityThread</text><rect fill="#FEFECE" filter="url(#fb143w84yi18k)" height="30.2969" style="stroke: #A80036; stroke-width: 1.5;" width="120" x="810" y="900.8359"/><text fill="#000000" font-family="sans-serif" font-size="14" lengthAdjust="spacingAndGlyphs" textLength="106" x="817" y="920.8311">ActivityThread</text><rect fill="#FEFECE" filter="url(#fb143w84yi18k)" height="30.2969" style="stroke: #A80036; stroke-width: 1.5;" width="65" x="1011.5" y="37.9531"/><text fill="#000000" font-family="sans-serif" font-size="14" lengthAdjust="spacingAndGlyphs" textLength="51" x="1018.5" y="57.9482">Looper</text><rect fill="#FEFECE" filter="url(#fb143w84yi18k)" height="30.2969" style="stroke: #A80036; stroke-width: 1.5;" width="65" x="1011.5" y="900.8359"/><text fill="#000000" font-family="sans-serif" font-size="14" lengthAdjust="spacingAndGlyphs" textLength="51" x="1018.5" y="920.8311">Looper</text><rect fill="#FEFECE" filter="url(#fb143w84yi18k)" height="30.2969" style="stroke: #A80036; stroke-width: 1.5;" width="151" x="1090.5" y="37.9531"/><text fill="#000000" font-family="sans-serif" font-size="14" lengthAdjust="spacingAndGlyphs" textLength="137" x="1097.5" y="57.9482">IApplicationThread</text><rect fill="#FEFECE" filter="url(#fb143w84yi18k)" height="30.2969" style="stroke: #A80036; stroke-width: 1.5;" width="151" x="1090.5" y="900.8359"/><text fill="#000000" font-family="sans-serif" font-size="14" lengthAdjust="spacingAndGlyphs" textLength="137" x="1097.5" y="920.8311">IApplicationThread</text><rect fill="#FEFECE" filter="url(#fb143w84yi18k)" height="30.2969" style="stroke: #A80036; stroke-width: 1.5;" width="95" x="1255.5" y="37.9531"/><text fill="#000000" font-family="sans-serif" font-size="14" lengthAdjust="spacingAndGlyphs" textLength="81" x="1262.5" y="57.9482">LoadedApk</text><rect fill="#FEFECE" filter="url(#fb143w84yi18k)" height="30.2969" style="stroke: #A80036; stroke-width: 1.5;" width="95" x="1255.5" y="900.8359"/><text fill="#000000" font-family="sans-serif" font-size="14" lengthAdjust="spacingAndGlyphs" textLength="81" x="1262.5" y="920.8311">LoadedApk</text><rect fill="#FEFECE" filter="url(#fb143w84yi18k)" height="30.2969" style="stroke: #A80036; stroke-width: 1.5;" width="131" x="1378.5" y="37.9531"/><text fill="#000000" font-family="sans-serif" font-size="14" lengthAdjust="spacingAndGlyphs" textLength="117" x="1385.5" y="57.9482">Instrumentation</text><rect fill="#FEFECE" filter="url(#fb143w84yi18k)" height="30.2969" style="stroke: #A80036; stroke-width: 1.5;" width="131" x="1378.5" y="900.8359"/><text fill="#000000" font-family="sans-serif" font-size="14" lengthAdjust="spacingAndGlyphs" textLength="117" x="1385.5" y="920.8311">Instrumentation</text><rect fill="#FEFECE" filter="url(#fb143w84yi18k)" height="30.2969" style="stroke: #A80036; stroke-width: 1.5;" width="97" x="1523.5" y="37.9531"/><text fill="#000000" font-family="sans-serif" font-size="14" lengthAdjust="spacingAndGlyphs" textLength="83" x="1530.5" y="57.9482">Application</text><rect fill="#FEFECE" filter="url(#fb143w84yi18k)" height="30.2969" style="stroke: #A80036; stroke-width: 1.5;" width="97" x="1523.5" y="900.8359"/><text fill="#000000" font-family="sans-serif" font-size="14" lengthAdjust="spacingAndGlyphs" textLength="83" x="1530.5" y="920.8311">Application</text><rect fill="#FEFECE" filter="url(#fb143w84yi18k)" height="30.2969" style="stroke: #A80036; stroke-width: 1.5;" width="161" x="1634.5" y="37.9531"/><text fill="#000000" font-family="sans-serif" font-size="14" lengthAdjust="spacingAndGlyphs" textLength="147" x="1641.5" y="57.9482">InstrumentationNew</text><rect fill="#FEFECE" filter="url(#fb143w84yi18k)" height="30.2969" style="stroke: #A80036; stroke-width: 1.5;" width="161" x="1634.5" y="900.8359"/><text fill="#000000" font-family="sans-serif" font-size="14" lengthAdjust="spacingAndGlyphs" textLength="147" x="1641.5" y="920.8311">InstrumentationNew</text><polygon fill="#A80036" points="169.5,115.5156,179.5,119.5156,169.5,123.5156,173.5,119.5156" style="stroke: #A80036; stroke-width: 1.0;"/><line style="stroke: #A80036; stroke-width: 1.0;" x1="65.5" x2="175.5" y1="119.5156" y2="119.5156"/><text fill="#000000" font-family="sans-serif" font-size="13" lengthAdjust="spacingAndGlyphs" textLength="92" x="72.5" y="99.3169">1.startProcess</text><text fill="#000000" font-family="sans-serif" font-size="13" lengthAdjust="spacingAndGlyphs" textLength="45" x="72.5" y="114.4497">Locked</text><polygon fill="#A80036" points="253.5,144.6484,263.5,148.6484,253.5,152.6484,257.5,148.6484" style="stroke: #A80036; stroke-width: 1.0;"/><line style="stroke: #A80036; stroke-width: 1.0;" x1="181.5" x2="259.5" y1="148.6484" y2="148.6484"/><text fill="#000000" font-family="sans-serif" font-size="13" lengthAdjust="spacingAndGlyphs" textLength="42" x="188.5" y="143.5825">2.start</text><line style="stroke: #A80036; stroke-width: 1.0;" x1="265.5" x2="307.5" y1="192.9141" y2="192.9141"/><line style="stroke: #A80036; stroke-width: 1.0;" x1="307.5" x2="307.5" y1="192.9141" y2="205.9141"/><line style="stroke: #A80036; stroke-width: 1.0;" x1="266.5" x2="307.5" y1="205.9141" y2="205.9141"/><polygon fill="#A80036" points="276.5,201.9141,266.5,205.9141,276.5,209.9141,272.5,205.9141" style="stroke: #A80036; stroke-width: 1.0;"/><text fill="#000000" font-family="sans-serif" font-size="13" lengthAdjust="spacingAndGlyphs" textLength="117" x="272.5" y="172.7153">3.zygoteSendArgs</text><text fill="#000000" font-family="sans-serif" font-size="13" lengthAdjust="spacingAndGlyphs" textLength="88" x="272.5" y="187.8481">AndGetResult</text><polygon fill="#A80036" points="384.5,231.0469,394.5,235.0469,384.5,239.0469,388.5,235.0469" style="stroke: #A80036; stroke-width: 1.0;"/><line style="stroke: #A80036; stroke-width: 1.0;" x1="265.5" x2="390.5" y1="235.0469" y2="235.0469"/><text fill="#000000" font-family="sans-serif" font-size="13" lengthAdjust="spacingAndGlyphs" textLength="103" x="272.5" y="229.981">4.runSelectLoop</text><polygon fill="#A80036" points="527.5,260.1797,537.5,264.1797,527.5,268.1797,531.5,264.1797" style="stroke: #A80036; stroke-width: 1.0;"/><line style="stroke: #A80036; stroke-width: 1.0;" x1="396.5" x2="533.5" y1="264.1797" y2="264.1797"/><text fill="#000000" font-family="sans-serif" font-size="13" lengthAdjust="spacingAndGlyphs" textLength="66" x="403.5" y="259.1138">5.runOnce</text><line style="stroke: #A80036; stroke-width: 1.0;" x1="539.5" x2="581.5" y1="293.3125" y2="293.3125"/><line style="stroke: #A80036; stroke-width: 1.0;" x1="581.5" x2="581.5" y1="293.3125" y2="306.3125"/><line style="stroke: #A80036; stroke-width: 1.0;" x1="540.5" x2="581.5" y1="306.3125" y2="306.3125"/><polygon fill="#A80036" points="550.5,302.3125,540.5,306.3125,550.5,310.3125,546.5,306.3125" style="stroke: #A80036; stroke-width: 1.0;"/><text fill="#000000" font-family="sans-serif" font-size="13" lengthAdjust="spacingAndGlyphs" textLength="114" x="546.5" y="288.2466">6.handleChildProc</text><polygon fill="#A80036" points="407.5,331.4453,397.5,335.4453,407.5,339.4453,403.5,335.4453" style="stroke: #A80036; stroke-width: 1.0;"/><line style="stroke: #A80036; stroke-width: 1.0;" x1="401.5" x2="538.5" y1="335.4453" y2="335.4453"/><text fill="#000000" font-family="sans-serif" font-size="13" lengthAdjust="spacingAndGlyphs" textLength="119" x="413.5" y="330.3794">7.invokeStaticMain</text><line style="stroke: #A80036; stroke-width: 1.0;" x1="396.5" x2="438.5" y1="364.5781" y2="364.5781"/><line style="stroke: #A80036; stroke-width: 1.0;" x1="438.5" x2="438.5" y1="364.5781" y2="377.5781"/><line style="stroke: #A80036; stroke-width: 1.0;" x1="397.5" x2="438.5" y1="377.5781" y2="377.5781"/><polygon fill="#A80036" points="407.5,373.5781,397.5,377.5781,407.5,381.5781,403.5,377.5781" style="stroke: #A80036; stroke-width: 1.0;"/><text fill="#000000" font-family="sans-serif" font-size="13" lengthAdjust="spacingAndGlyphs" textLength="44" x="403.5" y="359.5122">8.main</text><polygon fill="#A80036" points="701,402.7109,711,406.7109,701,410.7109,705,406.7109" style="stroke: #A80036; stroke-width: 1.0;"/><line style="stroke: #A80036; stroke-width: 1.0;" x1="396.5" x2="707" y1="406.7109" y2="406.7109"/><text fill="#000000" font-family="sans-serif" font-size="13" lengthAdjust="spacingAndGlyphs" textLength="33" x="403.5" y="401.645">9.run</text><polygon fill="#A80036" points="860,431.8438,870,435.8438,860,439.8438,864,435.8438" style="stroke: #A80036; stroke-width: 1.0;"/><line style="stroke: #A80036; stroke-width: 1.0;" x1="713" x2="866" y1="435.8438" y2="435.8438"/><text fill="#000000" font-family="sans-serif" font-size="13" lengthAdjust="spacingAndGlyphs" textLength="52" x="720" y="430.7778">10.main</text><polygon fill="#A80036" points="1034,460.9766,1044,464.9766,1034,468.9766,1038,464.9766" style="stroke: #A80036; stroke-width: 1.0;"/><line style="stroke: #A80036; stroke-width: 1.0;" x1="872" x2="1040" y1="464.9766" y2="464.9766"/><text fill="#000000" font-family="sans-serif" font-size="13" lengthAdjust="spacingAndGlyphs" textLength="143" x="879" y="459.9106">11.prepareMainLooper</text><line style="stroke: #A80036; stroke-width: 1.0;" x1="872" x2="914" y1="494.1094" y2="494.1094"/><line style="stroke: #A80036; stroke-width: 1.0;" x1="914" x2="914" y1="494.1094" y2="507.1094"/><line style="stroke: #A80036; stroke-width: 1.0;" x1="873" x2="914" y1="507.1094" y2="507.1094"/><polygon fill="#A80036" points="883,503.1094,873,507.1094,883,511.1094,879,507.1094" style="stroke: #A80036; stroke-width: 1.0;"/><text fill="#000000" font-family="sans-serif" font-size="13" lengthAdjust="spacingAndGlyphs" textLength="61" x="879" y="489.0435">12.attach</text><polygon fill="#A80036" points="192.5,532.2422,182.5,536.2422,192.5,540.2422,188.5,536.2422" style="stroke: #A80036; stroke-width: 1.0;"/><line style="stroke: #A80036; stroke-width: 1.0; stroke-dasharray: 2.0,2.0;" x1="186.5" x2="871" y1="536.2422" y2="536.2422"/><text fill="#000000" font-family="sans-serif" font-size="13" lengthAdjust="spacingAndGlyphs" textLength="131" x="198.5" y="531.1763">13.attachApplication</text><line style="stroke: #A80036; stroke-width: 1.0;" x1="181.5" x2="223.5" y1="595.6406" y2="595.6406"/><line style="stroke: #A80036; stroke-width: 1.0;" x1="223.5" x2="223.5" y1="595.6406" y2="608.6406"/><line style="stroke: #A80036; stroke-width: 1.0;" x1="182.5" x2="223.5" y1="608.6406" y2="608.6406"/><polygon fill="#A80036" points="192.5,604.6406,182.5,608.6406,192.5,612.6406,188.5,608.6406" style="stroke: #A80036; stroke-width: 1.0;"/><text fill="#000000" font-family="sans-serif" font-size="13" lengthAdjust="spacingAndGlyphs" textLength="61" x="188.5" y="560.3091">14.attach</text><text fill="#000000" font-family="sans-serif" font-size="13" lengthAdjust="spacingAndGlyphs" textLength="70" x="188.5" y="575.4419">Application</text><text fill="#000000" font-family="sans-serif" font-size="13" lengthAdjust="spacingAndGlyphs" textLength="45" x="188.5" y="590.5747">Locked</text><polygon fill="#A80036" points="1156,633.7734,1166,637.7734,1156,641.7734,1160,637.7734" style="stroke: #A80036; stroke-width: 1.0;"/><line style="stroke: #A80036; stroke-width: 1.0; stroke-dasharray: 2.0,2.0;" x1="181.5" x2="1162" y1="637.7734" y2="637.7734"/><text fill="#000000" font-family="sans-serif" font-size="13" lengthAdjust="spacingAndGlyphs" textLength="117" x="188.5" y="632.7075">15.bindApplication</text><polygon fill="#A80036" points="883,662.9063,873,666.9063,883,670.9063,879,666.9063" style="stroke: #A80036; stroke-width: 1.0;"/><line style="stroke: #A80036; stroke-width: 1.0;" x1="877" x2="1167" y1="666.9063" y2="666.9063"/><text fill="#000000" font-family="sans-serif" font-size="13" lengthAdjust="spacingAndGlyphs" textLength="117" x="889" y="661.8403">16.bindApplication</text><line style="stroke: #A80036; stroke-width: 1.0; stroke-dasharray: 2.0,2.0;" x1="872" x2="914" y1="696.0391" y2="696.0391"/><line style="stroke: #A80036; stroke-width: 1.0; stroke-dasharray: 2.0,2.0;" x1="914" x2="914" y1="696.0391" y2="709.0391"/><line style="stroke: #A80036; stroke-width: 1.0; stroke-dasharray: 2.0,2.0;" x1="873" x2="914" y1="709.0391" y2="709.0391"/><polygon fill="#A80036" points="883,705.0391,873,709.0391,883,713.0391,879,709.0391" style="stroke: #A80036; stroke-width: 1.0;"/><text fill="#000000" font-family="sans-serif" font-size="13" lengthAdjust="spacingAndGlyphs" textLength="160" x="879" y="690.9731">17.handleBindApplication</text><polygon fill="#A80036" points="1293,734.1719,1303,738.1719,1293,742.1719,1297,738.1719" style="stroke: #A80036; stroke-width: 1.0;"/><line style="stroke: #A80036; stroke-width: 1.0;" x1="872" x2="1299" y1="738.1719" y2="738.1719"/><text fill="#000000" font-family="sans-serif" font-size="13" lengthAdjust="spacingAndGlyphs" textLength="126" x="879" y="733.106">18.makeApplication</text><polygon fill="#A80036" points="1434,763.3047,1444,767.3047,1434,771.3047,1438,767.3047" style="stroke: #A80036; stroke-width: 1.0;"/><line style="stroke: #A80036; stroke-width: 1.0;" x1="1305" x2="1440" y1="767.3047" y2="767.3047"/><text fill="#000000" font-family="sans-serif" font-size="13" lengthAdjust="spacingAndGlyphs" textLength="117" x="1312" y="762.2388">19.newApplication</text><polygon fill="#A80036" points="1562,792.4375,1572,796.4375,1562,800.4375,1566,796.4375" style="stroke: #A80036; stroke-width: 1.0;"/><line style="stroke: #A80036; stroke-width: 1.0;" x1="1446" x2="1568" y1="796.4375" y2="796.4375"/><text fill="#000000" font-family="sans-serif" font-size="13" lengthAdjust="spacingAndGlyphs" textLength="61" x="1453" y="791.3716">20.attach</text><polygon fill="#A80036" points="1434,821.5703,1444,825.5703,1434,829.5703,1438,825.5703" style="stroke: #A80036; stroke-width: 1.0;"/><line style="stroke: #A80036; stroke-width: 1.0;" x1="872" x2="1440" y1="825.5703" y2="825.5703"/><text fill="#000000" font-family="sans-serif" font-size="13" lengthAdjust="spacingAndGlyphs" textLength="172" x="879" y="820.5044">21.callApplicationOnCreate</text><polygon fill="#A80036" points="1585,850.7031,1575,854.7031,1585,858.7031,1581,854.7031" style="stroke: #A80036; stroke-width: 1.0;"/><line style="stroke: #A80036; stroke-width: 1.0;" x1="1579" x2="1716" y1="854.7031" y2="854.7031"/><text fill="#000000" font-family="sans-serif" font-size="13" lengthAdjust="spacingAndGlyphs" textLength="79" x="1591" y="849.6372">22.onCreate</text><polygon fill="#A80036" points="1034,879.8359,1044,883.8359,1034,887.8359,1038,883.8359" style="stroke: #A80036; stroke-width: 1.0;"/><line style="stroke: #A80036; stroke-width: 1.0;" x1="872" x2="1040" y1="883.8359" y2="883.8359"/><text fill="#000000" font-family="sans-serif" font-size="13" lengthAdjust="spacingAndGlyphs" textLength="47" x="879" y="878.77">23.loop</text><!--MD5=[62a0b0ceeac2ee1e2b2c417507fca324]
@startuml
Title: 进程启动过程
ActivityStack->AMS: 1.startProcess\nLocked
AMS->Proc: 2.start
Proc->Proc: 3.zygoteSendArgs\nAndGetResult
Proc->ZygoteInit: 4.runSelectLoop
ZygoteInit->ZygoteConnection: 5.runOnce
ZygoteConnection->ZygoteConnection: 6.handleChildProc
ZygoteConnection->ZygoteInit: 7.invokeStaticMain
ZygoteInit->ZygoteInit: 8.main
ZygoteInit->MethodAndArgsCaller: 9.run
MethodAndArgsCaller->ActivityThread: 10.main
ActivityThread->Looper: 11.prepareMainLooper
ActivityThread->ActivityThread: 12.attach
ActivityThread- ->AMS: 13.attachApplication
AMS->AMS: 14.attach\nApplication\nLocked
AMS- ->IApplicationThread: 15.bindApplication
IApplicationThread->ActivityThread :16.bindApplication
ActivityThread- ->ActivityThread: 17.handleBindApplication
ActivityThread->LoadedApk: 18.makeApplication
LoadedApk->Instrumentation: 19.newApplication
Instrumentation->Application: 20.attach
ActivityThread->Instrumentation: 21.callApplicationOnCreate
InstrumentationNew->Application: 22.onCreate
ActivityThread->Looper: 23.loop
@enduml

PlantUML version 1.2020.10(Sun May 17 09:35:57 UTC 2020)
(GPL source distribution)
Java Runtime: Java(TM) SE Runtime Environment
JVM: Java HotSpot(TM) 64-Bit Server VM
Java Version: 14.0.1+7
Operating System: Linux
Default Encoding: UTF-8
Language: en
Country: US
--></g></svg>