<?xml version="1.0" encoding="UTF-8" standalone="no"?><svg xmlns="http://www.w3.org/2000/svg" xmlns:xlink="http://www.w3.org/1999/xlink" contentScriptType="application/ecmascript" contentStyleType="text/css" height="1138px" preserveAspectRatio="none" style="width:2866px;height:1138px;" version="1.1" viewBox="0 0 2866 1138" width="2866px" zoomAndPan="magnify"><defs><filter height="300%" id="f1hjnugn6dpqry" width="300%" x="-1" y="-1"><feGaussianBlur result="blurOut" stdDeviation="2.0"/><feColorMatrix in="blurOut" result="blurOut2" type="matrix" values="0 0 0 0 0 0 0 0 0 0 0 0 0 0 0 0 0 0 .4 0"/><feOffset dx="4.0" dy="4.0" in="blurOut2" result="blurOut3"/><feBlend in="SourceGraphic" in2="blurOut3" mode="normal"/></filter></defs><g><line style="stroke: #A80036; stroke-width: 1.0; stroke-dasharray: 5.0,5.0;" x1="34" x2="34" y1="38.2969" y2="1097.8125"/><line style="stroke: #A80036; stroke-width: 1.0; stroke-dasharray: 5.0,5.0;" x1="107" x2="107" y1="38.2969" y2="1097.8125"/><line style="stroke: #A80036; stroke-width: 1.0; stroke-dasharray: 5.0,5.0;" x1="243" x2="243" y1="38.2969" y2="1097.8125"/><line style="stroke: #A80036; stroke-width: 1.0; stroke-dasharray: 5.0,5.0;" x1="431" x2="431" y1="38.2969" y2="1097.8125"/><line style="stroke: #A80036; stroke-width: 1.0; stroke-dasharray: 5.0,5.0;" x1="559" x2="559" y1="38.2969" y2="1097.8125"/><line style="stroke: #A80036; stroke-width: 1.0; stroke-dasharray: 5.0,5.0;" x1="701.5" x2="701.5" y1="38.2969" y2="1097.8125"/><line style="stroke: #A80036; stroke-width: 1.0; stroke-dasharray: 5.0,5.0;" x1="905" x2="905" y1="38.2969" y2="1097.8125"/><line style="stroke: #A80036; stroke-width: 1.0; stroke-dasharray: 5.0,5.0;" x1="1046" x2="1046" y1="38.2969" y2="1097.8125"/><line style="stroke: #A80036; stroke-width: 1.0; stroke-dasharray: 5.0,5.0;" x1="1169" x2="1169" y1="38.2969" y2="1097.8125"/><line style="stroke: #A80036; stroke-width: 1.0; stroke-dasharray: 5.0,5.0;" x1="1304" x2="1304" y1="38.2969" y2="1097.8125"/><line style="stroke: #A80036; stroke-width: 1.0; stroke-dasharray: 5.0,5.0;" x1="1453" x2="1453" y1="38.2969" y2="1097.8125"/><line style="stroke: #A80036; stroke-width: 1.0; stroke-dasharray: 5.0,5.0;" x1="1600" x2="1600" y1="38.2969" y2="1097.8125"/><line style="stroke: #A80036; stroke-width: 1.0; stroke-dasharray: 5.0,5.0;" x1="1748" x2="1748" y1="38.2969" y2="1097.8125"/><line style="stroke: #A80036; stroke-width: 1.0; stroke-dasharray: 5.0,5.0;" x1="1888" x2="1888" y1="38.2969" y2="1097.8125"/><line style="stroke: #A80036; stroke-width: 1.0; stroke-dasharray: 5.0,5.0;" x1="2087" x2="2087" y1="38.2969" y2="1097.8125"/><line style="stroke: #A80036; stroke-width: 1.0; stroke-dasharray: 5.0,5.0;" x1="2260" x2="2260" y1="38.2969" y2="1097.8125"/><line style="stroke: #A80036; stroke-width: 1.0; stroke-dasharray: 5.0,5.0;" x1="2359" x2="2359" y1="38.2969" y2="1097.8125"/><line style="stroke: #A80036; stroke-width: 1.0; stroke-dasharray: 5.0,5.0;" x1="2544" x2="2544" y1="38.2969" y2="1097.8125"/><line style="stroke: #A80036; stroke-width: 1.0; stroke-dasharray: 5.0,5.0;" x1="2769" x2="2769" y1="38.2969" y2="1097.8125"/><rect fill="#FEFECE" filter="url(#f1hjnugn6dpqry)" height="30.2969" style="stroke: #A80036; stroke-width: 1.5;" width="49" x="8" y="3"/><text fill="#000000" font-family="sans-serif" font-size="14" lengthAdjust="spacingAndGlyphs" textLength="35" x="15" y="22.9951">main</text><rect fill="#FEFECE" filter="url(#f1hjnugn6dpqry)" height="30.2969" style="stroke: #A80036; stroke-width: 1.5;" width="49" x="8" y="1096.8125"/><text fill="#000000" font-family="sans-serif" font-size="14" lengthAdjust="spacingAndGlyphs" textLength="35" x="15" y="1116.8076">main</text><rect fill="#FEFECE" filter="url(#f1hjnugn6dpqry)" height="30.2969" style="stroke: #A80036; stroke-width: 1.5;" width="68" x="71" y="3"/><text fill="#000000" font-family="sans-serif" font-size="14" lengthAdjust="spacingAndGlyphs" textLength="54" x="78" y="22.9951">binding</text><rect fill="#FEFECE" filter="url(#f1hjnugn6dpqry)" height="30.2969" style="stroke: #A80036; stroke-width: 1.5;" width="68" x="71" y="1096.8125"/><text fill="#000000" font-family="sans-serif" font-size="14" lengthAdjust="spacingAndGlyphs" textLength="54" x="78" y="1116.8076">binding</text><rect fill="#FEFECE" filter="url(#f1hjnugn6dpqry)" height="30.2969" style="stroke: #A80036; stroke-width: 1.5;" width="176" x="153" y="3"/><text fill="#000000" font-family="sans-serif" font-size="14" lengthAdjust="spacingAndGlyphs" textLength="162" x="160" y="22.9951">WidgetsFlutterBinding</text><rect fill="#FEFECE" filter="url(#f1hjnugn6dpqry)" height="30.2969" style="stroke: #A80036; stroke-width: 1.5;" width="176" x="153" y="1096.8125"/><text fill="#000000" font-family="sans-serif" font-size="14" lengthAdjust="spacingAndGlyphs" textLength="162" x="160" y="1116.8076">WidgetsFlutterBinding</text><rect fill="#FEFECE" filter="url(#f1hjnugn6dpqry)" height="30.2969" style="stroke: #A80036; stroke-width: 1.5;" width="102" x="378" y="3"/><text fill="#000000" font-family="sans-serif" font-size="14" lengthAdjust="spacingAndGlyphs" textLength="88" x="385" y="22.9951">BindingBase</text><rect fill="#FEFECE" filter="url(#f1hjnugn6dpqry)" height="30.2969" style="stroke: #A80036; stroke-width: 1.5;" width="102" x="378" y="1096.8125"/><text fill="#000000" font-family="sans-serif" font-size="14" lengthAdjust="spacingAndGlyphs" textLength="88" x="385" y="1116.8076">BindingBase</text><rect fill="#FEFECE" filter="url(#f1hjnugn6dpqry)" height="30.2969" style="stroke: #A80036; stroke-width: 1.5;" width="127" x="494" y="3"/><text fill="#000000" font-family="sans-serif" font-size="14" lengthAdjust="spacingAndGlyphs" textLength="113" x="501" y="22.9951">WidgetsBinding</text><rect fill="#FEFECE" filter="url(#f1hjnugn6dpqry)" height="30.2969" style="stroke: #A80036; stroke-width: 1.5;" width="127" x="494" y="1096.8125"/><text fill="#000000" font-family="sans-serif" font-size="14" lengthAdjust="spacingAndGlyphs" textLength="113" x="501" y="1116.8076">WidgetsBinding</text><rect fill="#FEFECE" filter="url(#f1hjnugn6dpqry)" height="30.2969" style="stroke: #A80036; stroke-width: 1.5;" width="70" x="664.5" y="3"/><text fill="#000000" font-family="sans-serif" font-size="14" lengthAdjust="spacingAndGlyphs" textLength="56" x="671.5" y="22.9951">Window</text><rect fill="#FEFECE" filter="url(#f1hjnugn6dpqry)" height="30.2969" style="stroke: #A80036; stroke-width: 1.5;" width="70" x="664.5" y="1096.8125"/><text fill="#000000" font-family="sans-serif" font-size="14" lengthAdjust="spacingAndGlyphs" textLength="56" x="671.5" y="1116.8076">Window</text><rect fill="#FEFECE" filter="url(#f1hjnugn6dpqry)" height="30.2969" style="stroke: #A80036; stroke-width: 1.5;" width="135" x="836" y="3"/><text fill="#000000" font-family="sans-serif" font-size="14" lengthAdjust="spacingAndGlyphs" textLength="121" x="843" y="22.9951">RendererBinding</text><rect fill="#FEFECE" filter="url(#f1hjnugn6dpqry)" height="30.2969" style="stroke: #A80036; stroke-width: 1.5;" width="135" x="836" y="1096.8125"/><text fill="#000000" font-family="sans-serif" font-size="14" lengthAdjust="spacingAndGlyphs" textLength="121" x="843" y="1116.8076">RendererBinding</text><rect fill="#FEFECE" filter="url(#f1hjnugn6dpqry)" height="30.2969" style="stroke: #A80036; stroke-width: 1.5;" width="118" x="985" y="3"/><text fill="#000000" font-family="sans-serif" font-size="14" lengthAdjust="spacingAndGlyphs" textLength="104" x="992" y="22.9951">PipelineOwner</text><rect fill="#FEFECE" filter="url(#f1hjnugn6dpqry)" height="30.2969" style="stroke: #A80036; stroke-width: 1.5;" width="118" x="985" y="1096.8125"/><text fill="#000000" font-family="sans-serif" font-size="14" lengthAdjust="spacingAndGlyphs" textLength="104" x="992" y="1116.8076">PipelineOwner</text><rect fill="#FEFECE" filter="url(#f1hjnugn6dpqry)" height="30.2969" style="stroke: #A80036; stroke-width: 1.5;" width="100" x="1117" y="3"/><text fill="#000000" font-family="sans-serif" font-size="14" lengthAdjust="spacingAndGlyphs" textLength="86" x="1124" y="22.9951">RenderView</text><rect fill="#FEFECE" filter="url(#f1hjnugn6dpqry)" height="30.2969" style="stroke: #A80036; stroke-width: 1.5;" width="100" x="1117" y="1096.8125"/><text fill="#000000" font-family="sans-serif" font-size="14" lengthAdjust="spacingAndGlyphs" textLength="86" x="1124" y="1116.8076">RenderView</text><rect fill="#FEFECE" filter="url(#f1hjnugn6dpqry)" height="30.2969" style="stroke: #A80036; stroke-width: 1.5;" width="143" x="1231" y="3"/><text fill="#000000" font-family="sans-serif" font-size="14" lengthAdjust="spacingAndGlyphs" textLength="129" x="1238" y="22.9951">SemanticsBinding</text><rect fill="#FEFECE" filter="url(#f1hjnugn6dpqry)" height="30.2969" style="stroke: #A80036; stroke-width: 1.5;" width="143" x="1231" y="1096.8125"/><text fill="#000000" font-family="sans-serif" font-size="14" lengthAdjust="spacingAndGlyphs" textLength="129" x="1238" y="1116.8076">SemanticsBinding</text><rect fill="#FEFECE" filter="url(#f1hjnugn6dpqry)" height="30.2969" style="stroke: #A80036; stroke-width: 1.5;" width="127" x="1388" y="3"/><text fill="#000000" font-family="sans-serif" font-size="14" lengthAdjust="spacingAndGlyphs" textLength="113" x="1395" y="22.9951">PaintingBinding</text><rect fill="#FEFECE" filter="url(#f1hjnugn6dpqry)" height="30.2969" style="stroke: #A80036; stroke-width: 1.5;" width="127" x="1388" y="1096.8125"/><text fill="#000000" font-family="sans-serif" font-size="14" lengthAdjust="spacingAndGlyphs" textLength="113" x="1395" y="1116.8076">PaintingBinding</text><rect fill="#FEFECE" filter="url(#f1hjnugn6dpqry)" height="30.2969" style="stroke: #A80036; stroke-width: 1.5;" width="139" x="1529" y="3"/><text fill="#000000" font-family="sans-serif" font-size="14" lengthAdjust="spacingAndGlyphs" textLength="125" x="1536" y="22.9951">SchedulerBinding</text><rect fill="#FEFECE" filter="url(#f1hjnugn6dpqry)" height="30.2969" style="stroke: #A80036; stroke-width: 1.5;" width="139" x="1529" y="1096.8125"/><text fill="#000000" font-family="sans-serif" font-size="14" lengthAdjust="spacingAndGlyphs" textLength="125" x="1536" y="1116.8076">SchedulerBinding</text><rect fill="#FEFECE" filter="url(#f1hjnugn6dpqry)" height="30.2969" style="stroke: #A80036; stroke-width: 1.5;" width="128" x="1682" y="3"/><text fill="#000000" font-family="sans-serif" font-size="14" lengthAdjust="spacingAndGlyphs" textLength="114" x="1689" y="22.9951">ServicesBinding</text><rect fill="#FEFECE" filter="url(#f1hjnugn6dpqry)" height="30.2969" style="stroke: #A80036; stroke-width: 1.5;" width="128" x="1682" y="1096.8125"/><text fill="#000000" font-family="sans-serif" font-size="14" lengthAdjust="spacingAndGlyphs" textLength="114" x="1689" y="1116.8076">ServicesBinding</text><rect fill="#FEFECE" filter="url(#f1hjnugn6dpqry)" height="30.2969" style="stroke: #A80036; stroke-width: 1.5;" width="125" x="1824" y="3"/><text fill="#000000" font-family="sans-serif" font-size="14" lengthAdjust="spacingAndGlyphs" textLength="111" x="1831" y="22.9951">GestureBinding</text><rect fill="#FEFECE" filter="url(#f1hjnugn6dpqry)" height="30.2969" style="stroke: #A80036; stroke-width: 1.5;" width="125" x="1824" y="1096.8125"/><text fill="#000000" font-family="sans-serif" font-size="14" lengthAdjust="spacingAndGlyphs" textLength="111" x="1831" y="1116.8076">GestureBinding</text><rect fill="#FEFECE" filter="url(#f1hjnugn6dpqry)" height="30.2969" style="stroke: #A80036; stroke-width: 1.5;" width="244" x="1963" y="3"/><text fill="#000000" font-family="sans-serif" font-size="14" lengthAdjust="spacingAndGlyphs" textLength="230" x="1970" y="22.9951">RenderObjectToWidgetAdapter</text><rect fill="#FEFECE" filter="url(#f1hjnugn6dpqry)" height="30.2969" style="stroke: #A80036; stroke-width: 1.5;" width="244" x="1963" y="1096.8125"/><text fill="#000000" font-family="sans-serif" font-size="14" lengthAdjust="spacingAndGlyphs" textLength="230" x="1970" y="1116.8076">RenderObjectToWidgetAdapter</text><rect fill="#FEFECE" filter="url(#f1hjnugn6dpqry)" height="30.2969" style="stroke: #A80036; stroke-width: 1.5;" width="75" x="2221" y="3"/><text fill="#000000" font-family="sans-serif" font-size="14" lengthAdjust="spacingAndGlyphs" textLength="61" x="2228" y="22.9951">Element</text><rect fill="#FEFECE" filter="url(#f1hjnugn6dpqry)" height="30.2969" style="stroke: #A80036; stroke-width: 1.5;" width="75" x="2221" y="1096.8125"/><text fill="#000000" font-family="sans-serif" font-size="14" lengthAdjust="spacingAndGlyphs" textLength="61" x="2228" y="1116.8076">Element</text><rect fill="#FEFECE" filter="url(#f1hjnugn6dpqry)" height="30.2969" style="stroke: #A80036; stroke-width: 1.5;" width="95" x="2310" y="3"/><text fill="#000000" font-family="sans-serif" font-size="14" lengthAdjust="spacingAndGlyphs" textLength="81" x="2317" y="22.9951">BuildOwner</text><rect fill="#FEFECE" filter="url(#f1hjnugn6dpqry)" height="30.2969" style="stroke: #A80036; stroke-width: 1.5;" width="95" x="2310" y="1096.8125"/><text fill="#000000" font-family="sans-serif" font-size="14" lengthAdjust="spacingAndGlyphs" textLength="81" x="2317" y="1116.8076">BuildOwner</text><rect fill="#FEFECE" filter="url(#f1hjnugn6dpqry)" height="30.2969" style="stroke: #A80036; stroke-width: 1.5;" width="246" x="2419" y="3"/><text fill="#000000" font-family="sans-serif" font-size="14" lengthAdjust="spacingAndGlyphs" textLength="232" x="2426" y="22.9951">RenderObjectToWidgetElement</text><rect fill="#FEFECE" filter="url(#f1hjnugn6dpqry)" height="30.2969" style="stroke: #A80036; stroke-width: 1.5;" width="246" x="2419" y="1096.8125"/><text fill="#000000" font-family="sans-serif" font-size="14" lengthAdjust="spacingAndGlyphs" textLength="232" x="2426" y="1116.8076">RenderObjectToWidgetElement</text><rect fill="#FEFECE" filter="url(#f1hjnugn6dpqry)" height="30.2969" style="stroke: #A80036; stroke-width: 1.5;" width="176" x="2679" y="3"/><text fill="#000000" font-family="sans-serif" font-size="14" lengthAdjust="spacingAndGlyphs" textLength="162" x="2686" y="22.9951">RenderObjectElement</text><rect fill="#FEFECE" filter="url(#f1hjnugn6dpqry)" height="30.2969" style="stroke: #A80036; stroke-width: 1.5;" width="176" x="2679" y="1096.8125"/><text fill="#000000" font-family="sans-serif" font-size="14" lengthAdjust="spacingAndGlyphs" textLength="162" x="2686" y="1116.8076">RenderObjectElement</text><polygon fill="#A80036" points="95,65.4297,105,69.4297,95,73.4297,99,69.4297" style="stroke: #A80036; stroke-width: 1.0;"/><line style="stroke: #A80036; stroke-width: 1.0;" x1="34.5" x2="101" y1="69.4297" y2="69.4297"/><text fill="#000000" font-family="sans-serif" font-size="13" lengthAdjust="spacingAndGlyphs" textLength="46" x="41.5" y="64.3638">runApp</text><polygon fill="#A80036" points="231,94.5625,241,98.5625,231,102.5625,235,98.5625" style="stroke: #A80036; stroke-width: 1.0;"/><line style="stroke: #A80036; stroke-width: 1.0;" x1="107" x2="237" y1="98.5625" y2="98.5625"/><text fill="#000000" font-family="sans-serif" font-size="13" lengthAdjust="spacingAndGlyphs" textLength="103" x="114" y="93.4966">ensureInitialized</text><polygon fill="#A80036" points="419,123.6953,429,127.6953,419,131.6953,423,127.6953" style="stroke: #A80036; stroke-width: 1.0;"/><line style="stroke: #A80036; stroke-width: 1.0;" x1="243" x2="425" y1="127.6953" y2="127.6953"/><text fill="#000000" font-family="sans-serif" font-size="13" lengthAdjust="spacingAndGlyphs" textLength="80" x="250" y="122.6294">initInstances</text><polygon fill="#A80036" points="547.5,152.8281,557.5,156.8281,547.5,160.8281,551.5,156.8281" style="stroke: #A80036; stroke-width: 1.0;"/><line style="stroke: #A80036; stroke-width: 1.0;" x1="431" x2="553.5" y1="156.8281" y2="156.8281"/><text fill="#000000" font-family="sans-serif" font-size="13" lengthAdjust="spacingAndGlyphs" textLength="80" x="438" y="151.7622">initInstances</text><polygon fill="#A80036" points="689.5,212.2266,699.5,216.2266,689.5,220.2266,693.5,216.2266" style="stroke: #A80036; stroke-width: 1.0;"/><line style="stroke: #A80036; stroke-width: 1.0;" x1="559.5" x2="695.5" y1="216.2266" y2="216.2266"/><text fill="#000000" font-family="sans-serif" font-size="13" lengthAdjust="spacingAndGlyphs" textLength="106" x="566.5" y="180.895">nLocaleChanged</text><text fill="#000000" font-family="sans-serif" font-size="13" lengthAdjust="spacingAndGlyphs" textLength="114" x="570.5" y="196.0278">onLocaleChanged</text><text fill="#000000" font-family="sans-serif" font-size="13" lengthAdjust="spacingAndGlyphs" textLength="67" x="570.5" y="211.1606">navigation</text><polygon fill="#A80036" points="893.5,241.3594,903.5,245.3594,893.5,249.3594,897.5,245.3594" style="stroke: #A80036; stroke-width: 1.0;"/><line style="stroke: #A80036; stroke-width: 1.0;" x1="431" x2="899.5" y1="245.3594" y2="245.3594"/><text fill="#000000" font-family="sans-serif" font-size="13" lengthAdjust="spacingAndGlyphs" textLength="80" x="438" y="240.2935">initInstances</text><polygon fill="#A80036" points="1034,270.4922,1044,274.4922,1034,278.4922,1038,274.4922" style="stroke: #A80036; stroke-width: 1.0;"/><line style="stroke: #A80036; stroke-width: 1.0;" x1="905.5" x2="1040" y1="274.4922" y2="274.4922"/><text fill="#000000" font-family="sans-serif" font-size="13" lengthAdjust="spacingAndGlyphs" textLength="19" x="912.5" y="269.4263">init</text><polygon fill="#A80036" points="712.5,314.7578,702.5,318.7578,712.5,322.7578,708.5,318.7578" style="stroke: #A80036; stroke-width: 1.0;"/><line style="stroke: #A80036; stroke-width: 1.0;" x1="706.5" x2="904.5" y1="318.7578" y2="318.7578"/><text fill="#000000" font-family="sans-serif" font-size="13" lengthAdjust="spacingAndGlyphs" textLength="118" x="718.5" y="298.5591">onMetricsChanged</text><text fill="#000000" font-family="sans-serif" font-size="13" lengthAdjust="spacingAndGlyphs" textLength="176" x="722.5" y="313.6919">onTextScaleFactorChanged</text><polygon fill="#A80036" points="1157,343.8906,1167,347.8906,1157,351.8906,1161,347.8906" style="stroke: #A80036; stroke-width: 1.0;"/><line style="stroke: #A80036; stroke-width: 1.0;" x1="905.5" x2="1163" y1="347.8906" y2="347.8906"/><text fill="#000000" font-family="sans-serif" font-size="13" lengthAdjust="spacingAndGlyphs" textLength="131" x="912.5" y="342.8247">scheduleInitialFrame</text><polygon fill="#A80036" points="1292.5,373.0234,1302.5,377.0234,1292.5,381.0234,1296.5,377.0234" style="stroke: #A80036; stroke-width: 1.0;"/><line style="stroke: #A80036; stroke-width: 1.0;" x1="431" x2="1298.5" y1="377.0234" y2="377.0234"/><text fill="#000000" font-family="sans-serif" font-size="13" lengthAdjust="spacingAndGlyphs" textLength="80" x="438" y="371.9575">initInstances</text><polygon fill="#A80036" points="1441.5,402.1563,1451.5,406.1563,1441.5,410.1563,1445.5,406.1563" style="stroke: #A80036; stroke-width: 1.0;"/><line style="stroke: #A80036; stroke-width: 1.0;" x1="431" x2="1447.5" y1="406.1563" y2="406.1563"/><text fill="#000000" font-family="sans-serif" font-size="13" lengthAdjust="spacingAndGlyphs" textLength="80" x="438" y="401.0903">initInstances</text><line style="stroke: #A80036; stroke-width: 1.0;" x1="1453.5" x2="1495.5" y1="435.2891" y2="435.2891"/><line style="stroke: #A80036; stroke-width: 1.0;" x1="1495.5" x2="1495.5" y1="435.2891" y2="448.2891"/><line style="stroke: #A80036; stroke-width: 1.0;" x1="1454.5" x2="1495.5" y1="448.2891" y2="448.2891"/><polygon fill="#A80036" points="1464.5,444.2891,1454.5,448.2891,1464.5,452.2891,1460.5,448.2891" style="stroke: #A80036; stroke-width: 1.0;"/><text fill="#000000" font-family="sans-serif" font-size="13" lengthAdjust="spacingAndGlyphs" textLength="121" x="1460.5" y="430.2231">createImageCache</text><polygon fill="#A80036" points="1588.5,473.4219,1598.5,477.4219,1588.5,481.4219,1592.5,477.4219" style="stroke: #A80036; stroke-width: 1.0;"/><line style="stroke: #A80036; stroke-width: 1.0;" x1="431" x2="1594.5" y1="477.4219" y2="477.4219"/><text fill="#000000" font-family="sans-serif" font-size="13" lengthAdjust="spacingAndGlyphs" textLength="80" x="438" y="472.356">initInstances</text><polygon fill="#A80036" points="1736,502.5547,1746,506.5547,1736,510.5547,1740,506.5547" style="stroke: #A80036; stroke-width: 1.0;"/><line style="stroke: #A80036; stroke-width: 1.0;" x1="431" x2="1742" y1="506.5547" y2="506.5547"/><text fill="#000000" font-family="sans-serif" font-size="13" lengthAdjust="spacingAndGlyphs" textLength="80" x="438" y="501.4888">initInstances</text><polygon fill="#A80036" points="712.5,531.6875,702.5,535.6875,712.5,539.6875,708.5,535.6875" style="stroke: #A80036; stroke-width: 1.0;"/><line style="stroke: #A80036; stroke-width: 1.0;" x1="706.5" x2="1747" y1="535.6875" y2="535.6875"/><text fill="#000000" font-family="sans-serif" font-size="13" lengthAdjust="spacingAndGlyphs" textLength="127" x="718.5" y="530.6216">onPlatformMessage</text><polygon fill="#A80036" points="1876.5,560.8203,1886.5,564.8203,1876.5,568.8203,1880.5,564.8203" style="stroke: #A80036; stroke-width: 1.0;"/><line style="stroke: #A80036; stroke-width: 1.0;" x1="431" x2="1882.5" y1="564.8203" y2="564.8203"/><text fill="#000000" font-family="sans-serif" font-size="13" lengthAdjust="spacingAndGlyphs" textLength="80" x="438" y="559.7544">initInstances</text><polygon fill="#A80036" points="689.5,589.9531,699.5,593.9531,689.5,597.9531,693.5,593.9531" style="stroke: #A80036; stroke-width: 1.0;"/><line style="stroke: #A80036; stroke-width: 1.0;" x1="431" x2="695.5" y1="593.9531" y2="593.9531"/><text fill="#000000" font-family="sans-serif" font-size="13" lengthAdjust="spacingAndGlyphs" textLength="135" x="438" y="588.8872">onPointerDataPacket</text><line style="stroke: #A80036; stroke-width: 1.0;" x1="243" x2="285" y1="623.0859" y2="623.0859"/><line style="stroke: #A80036; stroke-width: 1.0;" x1="285" x2="285" y1="623.0859" y2="636.0859"/><line style="stroke: #A80036; stroke-width: 1.0;" x1="244" x2="285" y1="636.0859" y2="636.0859"/><polygon fill="#A80036" points="254,632.0859,244,636.0859,254,640.0859,250,636.0859" style="stroke: #A80036; stroke-width: 1.0;"/><text fill="#000000" font-family="sans-serif" font-size="13" lengthAdjust="spacingAndGlyphs" textLength="174" x="250" y="618.02">scheduleAttachRootWidget</text><polygon fill="#A80036" points="2075,661.2188,2085,665.2188,2075,669.2188,2079,665.2188" style="stroke: #A80036; stroke-width: 1.0;"/><line style="stroke: #A80036; stroke-width: 1.0;" x1="243" x2="2081" y1="665.2188" y2="665.2188"/><text fill="#000000" font-family="sans-serif" font-size="13" lengthAdjust="spacingAndGlyphs" textLength="132" x="250" y="660.1528">attachToRenderTree</text><polygon fill="#A80036" points="2248.5,690.3516,2258.5,694.3516,2248.5,698.3516,2252.5,694.3516" style="stroke: #A80036; stroke-width: 1.0;"/><line style="stroke: #A80036; stroke-width: 1.0;" x1="2087" x2="2254.5" y1="694.3516" y2="694.3516"/><text fill="#000000" font-family="sans-serif" font-size="13" lengthAdjust="spacingAndGlyphs" textLength="94" x="2094" y="689.2856">createElement</text><polygon fill="#A80036" points="2347.5,719.4844,2357.5,723.4844,2347.5,727.4844,2351.5,723.4844" style="stroke: #A80036; stroke-width: 1.0;"/><line style="stroke: #A80036; stroke-width: 1.0;" x1="2087" x2="2353.5" y1="723.4844" y2="723.4844"/><text fill="#000000" font-family="sans-serif" font-size="13" lengthAdjust="spacingAndGlyphs" textLength="69" x="2094" y="718.4185">buildScope</text><polygon fill="#A80036" points="2532,748.6172,2542,752.6172,2532,756.6172,2536,752.6172" style="stroke: #A80036; stroke-width: 1.0;"/><line style="stroke: #A80036; stroke-width: 1.0;" x1="2359.5" x2="2538" y1="752.6172" y2="752.6172"/><text fill="#000000" font-family="sans-serif" font-size="13" lengthAdjust="spacingAndGlyphs" textLength="42" x="2366.5" y="747.5513">mount</text><polygon fill="#A80036" points="2757,777.75,2767,781.75,2757,785.75,2761,781.75" style="stroke: #A80036; stroke-width: 1.0;"/><line style="stroke: #A80036; stroke-width: 1.0;" x1="2544" x2="2763" y1="781.75" y2="781.75"/><text fill="#000000" font-family="sans-serif" font-size="13" lengthAdjust="spacingAndGlyphs" textLength="42" x="2551" y="776.6841">mount</text><polygon fill="#A80036" points="2271.5,806.8828,2261.5,810.8828,2271.5,814.8828,2267.5,810.8828" style="stroke: #A80036; stroke-width: 1.0;"/><line style="stroke: #A80036; stroke-width: 1.0;" x1="2265.5" x2="2768" y1="810.8828" y2="810.8828"/><text fill="#000000" font-family="sans-serif" font-size="13" lengthAdjust="spacingAndGlyphs" textLength="42" x="2277.5" y="805.8169">mount</text><line style="stroke: #A80036; stroke-width: 1.0;" x1="2544" x2="2586" y1="840.0156" y2="840.0156"/><line style="stroke: #A80036; stroke-width: 1.0;" x1="2586" x2="2586" y1="840.0156" y2="853.0156"/><line style="stroke: #A80036; stroke-width: 1.0;" x1="2545" x2="2586" y1="853.0156" y2="853.0156"/><polygon fill="#A80036" points="2555,849.0156,2545,853.0156,2555,857.0156,2551,853.0156" style="stroke: #A80036; stroke-width: 1.0;"/><text fill="#000000" font-family="sans-serif" font-size="13" lengthAdjust="spacingAndGlyphs" textLength="50" x="2551" y="834.9497">_rebuild</text><polygon fill="#A80036" points="2271.5,878.1484,2261.5,882.1484,2271.5,886.1484,2267.5,882.1484" style="stroke: #A80036; stroke-width: 1.0;"/><line style="stroke: #A80036; stroke-width: 1.0;" x1="2265.5" x2="2543" y1="882.1484" y2="882.1484"/><text fill="#000000" font-family="sans-serif" font-size="13" lengthAdjust="spacingAndGlyphs" textLength="76" x="2277.5" y="877.0825">updateChild</text><line style="stroke: #A80036; stroke-width: 1.0;" x1="2260.5" x2="2302.5" y1="911.2813" y2="911.2813"/><line style="stroke: #A80036; stroke-width: 1.0;" x1="2302.5" x2="2302.5" y1="911.2813" y2="924.2813"/><line style="stroke: #A80036; stroke-width: 1.0;" x1="2261.5" x2="2302.5" y1="924.2813" y2="924.2813"/><polygon fill="#A80036" points="2271.5,920.2813,2261.5,924.2813,2271.5,928.2813,2267.5,924.2813" style="stroke: #A80036; stroke-width: 1.0;"/><text fill="#000000" font-family="sans-serif" font-size="13" lengthAdjust="spacingAndGlyphs" textLength="85" x="2267.5" y="906.2153">inflateWidget</text><polygon fill="#A80036" points="1588.5,949.4141,1598.5,953.4141,1588.5,957.4141,1592.5,953.4141" style="stroke: #A80036; stroke-width: 1.0;"/><line style="stroke: #A80036; stroke-width: 1.0;" x1="243" x2="1594.5" y1="953.4141" y2="953.4141"/><text fill="#000000" font-family="sans-serif" font-size="13" lengthAdjust="spacingAndGlyphs" textLength="154" x="250" y="948.3481">scheduleWarmUpFrame</text><line style="stroke: #A80036; stroke-width: 1.0;" x1="1600.5" x2="1642.5" y1="982.5469" y2="982.5469"/><line style="stroke: #A80036; stroke-width: 1.0;" x1="1642.5" x2="1642.5" y1="982.5469" y2="995.5469"/><line style="stroke: #A80036; stroke-width: 1.0;" x1="1601.5" x2="1642.5" y1="995.5469" y2="995.5469"/><polygon fill="#A80036" points="1611.5,991.5469,1601.5,995.5469,1611.5,999.5469,1607.5,995.5469" style="stroke: #A80036; stroke-width: 1.0;"/><text fill="#000000" font-family="sans-serif" font-size="13" lengthAdjust="spacingAndGlyphs" textLength="119" x="1607.5" y="977.481">handleBeginFrame</text><line style="stroke: #A80036; stroke-width: 1.0;" x1="1600.5" x2="1642.5" y1="1024.6797" y2="1024.6797"/><line style="stroke: #A80036; stroke-width: 1.0;" x1="1642.5" x2="1642.5" y1="1024.6797" y2="1037.6797"/><line style="stroke: #A80036; stroke-width: 1.0;" x1="1601.5" x2="1642.5" y1="1037.6797" y2="1037.6797"/><polygon fill="#A80036" points="1611.5,1033.6797,1601.5,1037.6797,1611.5,1041.6797,1607.5,1037.6797" style="stroke: #A80036; stroke-width: 1.0;"/><text fill="#000000" font-family="sans-serif" font-size="13" lengthAdjust="spacingAndGlyphs" textLength="118" x="1607.5" y="1019.6138">handleDrawFrame</text><line style="stroke: #A80036; stroke-width: 1.0;" x1="1600.5" x2="1642.5" y1="1066.8125" y2="1066.8125"/><line style="stroke: #A80036; stroke-width: 1.0;" x1="1642.5" x2="1642.5" y1="1066.8125" y2="1079.8125"/><line style="stroke: #A80036; stroke-width: 1.0;" x1="1601.5" x2="1642.5" y1="1079.8125" y2="1079.8125"/><polygon fill="#A80036" points="1611.5,1075.8125,1601.5,1079.8125,1611.5,1083.8125,1607.5,1079.8125" style="stroke: #A80036; stroke-width: 1.0;"/><text fill="#000000" font-family="sans-serif" font-size="13" lengthAdjust="spacingAndGlyphs" textLength="82" x="1607.5" y="1061.7466">resetEpoch()</text><!--MD5=[134f43dde48111d24c09d5a8439d7442]
@startuml
main->binding:runApp

binding->WidgetsFlutterBinding:ensureInitialized
WidgetsFlutterBinding->BindingBase:initInstances

BindingBase->WidgetsBinding:initInstances

WidgetsBinding->Window: nLocaleChanged\n onLocaleChanged\n navigation


BindingBase->RendererBinding:initInstances

RendererBinding->PipelineOwner:init
RendererBinding->Window: onMetricsChanged\n onTextScaleFactorChanged
RendererBinding->RenderView:scheduleInitialFrame

BindingBase->SemanticsBinding:initInstances
BindingBase->PaintingBinding:initInstances
PaintingBinding-> PaintingBinding:createImageCache

BindingBase->SchedulerBinding:initInstances

BindingBase->ServicesBinding:initInstances
ServicesBinding->Window:onPlatformMessage

BindingBase->GestureBinding:initInstances
BindingBase->Window:onPointerDataPacket

WidgetsFlutterBinding->WidgetsFlutterBinding:scheduleAttachRootWidget
WidgetsFlutterBinding->RenderObjectToWidgetAdapter:attachToRenderTree
RenderObjectToWidgetAdapter->Element:createElement

RenderObjectToWidgetAdapter->BuildOwner:buildScope
BuildOwner->RenderObjectToWidgetElement:mount
RenderObjectToWidgetElement->RenderObjectElement:mount
RenderObjectElement->Element:mount
RenderObjectToWidgetElement->RenderObjectToWidgetElement:_rebuild
RenderObjectToWidgetElement->Element:updateChild
Element->Element:inflateWidget


WidgetsFlutterBinding->SchedulerBinding:scheduleWarmUpFrame
SchedulerBinding->SchedulerBinding:handleBeginFrame
SchedulerBinding->SchedulerBinding:handleDrawFrame
SchedulerBinding->SchedulerBinding:resetEpoch()
@enduml

PlantUML version 1.2020.10(Sun May 17 09:35:57 UTC 2020)
(GPL source distribution)
Java Runtime: Java(TM) SE Runtime Environment
JVM: Java HotSpot(TM) 64-Bit Server VM
Java Version: 14.0.1+7
Operating System: Linux
Default Encoding: UTF-8
Language: en
Country: US
--></g></svg>