<?xml version="1.0" encoding="UTF-8" standalone="no"?><svg xmlns="http://www.w3.org/2000/svg" xmlns:xlink="http://www.w3.org/1999/xlink" contentScriptType="application/ecmascript" contentStyleType="text/css" height="1550px" preserveAspectRatio="none" style="width:1685px;height:1550px;" version="1.1" viewBox="0 0 1685 1550" width="1685px" zoomAndPan="magnify"><defs><filter height="300%" id="f1se957w32je27" width="300%" x="-1" y="-1"><feGaussianBlur result="blurOut" stdDeviation="2.0"/><feColorMatrix in="blurOut" result="blurOut2" type="matrix" values="0 0 0 0 0 0 0 0 0 0 0 0 0 0 0 0 0 0 .4 0"/><feOffset dx="4.0" dy="4.0" in="blurOut2" result="blurOut3"/><feBlend in="SourceGraphic" in2="blurOut3" mode="normal"/></filter></defs><g><!--MD5=[8a9640b98ce223bc43029e4843db52c4]
cluster JS--><polygon fill="#FFFFFF" filter="url(#f1se957w32je27)" points="16,6,37,6,44,28.2969,511,28.2969,511,673,16,673,16,6" style="stroke: #000000; stroke-width: 1.5;"/><line style="stroke: #000000; stroke-width: 1.5;" x1="16" x2="44" y1="28.2969" y2="28.2969"/><text fill="#000000" font-family="sans-serif" font-size="14" font-weight="bold" lengthAdjust="spacingAndGlyphs" textLength="15" x="20" y="20.9951">JS</text><!--MD5=[75243d60956a5dc69119c97f95b4e944]
cluster Business--><polygon fill="#FFFFFF" filter="url(#f1se957w32je27)" points="48,57,126,57,133,79.2969,272,79.2969,272,160,48,160,48,57" style="stroke: #000000; stroke-width: 1.5;"/><line style="stroke: #000000; stroke-width: 1.5;" x1="48" x2="133" y1="79.2969" y2="79.2969"/><text fill="#000000" font-family="sans-serif" font-size="14" font-weight="bold" lengthAdjust="spacingAndGlyphs" textLength="72" x="52" y="71.9951">Business</text><!--MD5=[10f78e8e444b95423792075579384ad5]
cluster JSFrameWork--><polygon fill="#FFFFFF" filter="url(#f1se957w32je27)" points="48,200,160,200,167,222.2969,248,222.2969,248,303,48,303,48,200" style="stroke: #000000; stroke-width: 1.5;"/><line style="stroke: #000000; stroke-width: 1.5;" x1="48" x2="167" y1="222.2969" y2="222.2969"/><text fill="#000000" font-family="sans-serif" font-size="14" font-weight="bold" lengthAdjust="spacingAndGlyphs" textLength="106" x="52" y="214.9951">JSFrameWork</text><!--MD5=[3c37983830bcdf9942bbcf931e8567c3]
cluster WXJSFrameWork--><polygon fill="#FFFFFF" filter="url(#f1se957w32je27)" points="48,343,186,343,193,365.2969,479,365.2969,479,641,48,641,48,343" style="stroke: #000000; stroke-width: 1.5;"/><line style="stroke: #000000; stroke-width: 1.5;" x1="48" x2="193" y1="365.2969" y2="365.2969"/><text fill="#000000" font-family="sans-serif" font-size="14" font-weight="bold" lengthAdjust="spacingAndGlyphs" textLength="132" x="52" y="357.9951">WXJSFrameWork</text><!--MD5=[8702214cc292f039124fc9d29dc62734]
cluster JSEngine--><polygon fill="#FFFFFF" filter="url(#f1se957w32je27)" points="543,468,617,468,624,490.2969,931,490.2969,931,670,543,670,543,468" style="stroke: #000000; stroke-width: 1.5;"/><line style="stroke: #000000; stroke-width: 1.5;" x1="543" x2="624" y1="490.2969" y2="490.2969"/><text fill="#000000" font-family="sans-serif" font-size="14" font-weight="bold" lengthAdjust="spacingAndGlyphs" textLength="68" x="547" y="482.9951">JSEngine</text><!--MD5=[1354d4287b836671d015041ce990275d]
cluster Engine--><polygon fill="#FFFFFF" filter="url(#f1se957w32je27)" points="707,527,766,527,773,549.2969,891,549.2969,891,630,707,630,707,527" style="stroke: #000000; stroke-width: 1.5;"/><line style="stroke: #000000; stroke-width: 1.5;" x1="707" x2="773" y1="549.2969" y2="549.2969"/><text fill="#000000" font-family="sans-serif" font-size="14" font-weight="bold" lengthAdjust="spacingAndGlyphs" textLength="53" x="711" y="541.9951">Engine</text><!--MD5=[dd894175df934205a83a75d0db46a809]
cluster WeeCore--><polygon fill="#FFFFFF" filter="url(#f1se957w32je27)" points="467,702,542,702,549,724.2969,1373,724.2969,1373,1242,467,1242,467,702" style="stroke: #000000; stroke-width: 1.5;"/><line style="stroke: #000000; stroke-width: 1.5;" x1="467" x2="549" y1="724.2969" y2="724.2969"/><text fill="#000000" font-family="sans-serif" font-size="14" font-weight="bold" lengthAdjust="spacingAndGlyphs" textLength="69" x="471" y="716.9951">WeeCore</text><!--MD5=[51bda20d19e03b00849e0f6a3a37b781]
cluster JSSide--><polygon fill="#FFFFFF" filter="url(#f1se957w32je27)" points="491,745,546,745,553,767.2969,1052,767.2969,1052,957,491,957,491,745" style="stroke: #000000; stroke-width: 1.5;"/><line style="stroke: #000000; stroke-width: 1.5;" x1="491" x2="553" y1="767.2969" y2="767.2969"/><text fill="#000000" font-family="sans-serif" font-size="14" font-weight="bold" lengthAdjust="spacingAndGlyphs" textLength="49" x="495" y="759.9951">JSSide</text><!--MD5=[c951e5c09312edbf8d73b8c287904ba8]
cluster IPC--><polygon fill="#CD5C5C" filter="url(#f1se957w32je27)" points="1084,862,1115,862,1122,884.2969,1341,884.2969,1341,1103,1084,1103,1084,862" style="stroke: #000000; stroke-width: 1.5;"/><line style="stroke: #000000; stroke-width: 1.5;" x1="1084" x2="1122" y1="884.2969" y2="884.2969"/><text fill="#000000" font-family="sans-serif" font-size="14" font-weight="bold" lengthAdjust="spacingAndGlyphs" textLength="25" x="1088" y="876.9951">IPC</text><!--MD5=[d49ccc1c8ff00600855d92ea89a1d525]
cluster CoreSide--><polygon fill="#FFFFFF" filter="url(#f1se957w32je27)" points="531,989,607,989,614,1011.2969,1044,1011.2969,1044,1210,531,1210,531,989" style="stroke: #000000; stroke-width: 1.5;"/><line style="stroke: #000000; stroke-width: 1.5;" x1="531" x2="614" y1="1011.2969" y2="1011.2969"/><text fill="#000000" font-family="sans-serif" font-size="14" font-weight="bold" lengthAdjust="spacingAndGlyphs" textLength="70" x="535" y="1003.9951">CoreSide</text><!--MD5=[46319df2d1c5fe27116f23a003a0a914]
cluster Platform--><polygon fill="#FFFFFF" filter="url(#f1se957w32je27)" points="866,1283,944,1283,951,1305.2969,1663,1305.2969,1663,1538,866,1538,866,1283" style="stroke: #000000; stroke-width: 1.5;"/><line style="stroke: #000000; stroke-width: 1.5;" x1="866" x2="951" y1="1305.2969" y2="1305.2969"/><text fill="#000000" font-family="sans-serif" font-size="14" font-weight="bold" lengthAdjust="spacingAndGlyphs" textLength="72" x="870" y="1297.9951">Platform</text><!--MD5=[6dd2f378bbb92bac41757861ddd11092]
cluster Android--><polygon fill="#FFFFFF" filter="url(#f1se957w32je27)" points="998,1334,1067,1334,1074,1356.2969,1631,1356.2969,1631,1506,998,1506,998,1334" style="stroke: #000000; stroke-width: 1.5;"/><line style="stroke: #000000; stroke-width: 1.5;" x1="998" x2="1074" y1="1356.2969" y2="1356.2969"/><text fill="#000000" font-family="sans-serif" font-size="14" font-weight="bold" lengthAdjust="spacingAndGlyphs" textLength="63" x="1002" y="1348.9951">Android</text><!--MD5=[df7341efeb858b3805d9abcec14591fd]
cluster iOS--><polygon fill="#FFFFFF" filter="url(#f1se957w32je27)" points="906,1334,939,1334,946,1356.2969,974,1356.2969,974,1421,906,1421,906,1334" style="stroke: #000000; stroke-width: 1.5;"/><line style="stroke: #000000; stroke-width: 1.5;" x1="906" x2="946" y1="1356.2969" y2="1356.2969"/><text fill="#000000" font-family="sans-serif" font-size="14" font-weight="bold" lengthAdjust="spacingAndGlyphs" textLength="27" x="910" y="1348.9951">iOS</text><!--MD5=[6d864ab888f49ee340611f95e3f11811]
entity HOME--><rect fill="#FEFECE" filter="url(#f1se957w32je27)" height="36.2969" style="stroke: #A80036; stroke-width: 1.5;" width="62" x="186" y="100"/><rect fill="#FEFECE" height="5" style="stroke: #A80036; stroke-width: 1.5;" width="10" x="181" y="105"/><rect fill="#FEFECE" height="5" style="stroke: #A80036; stroke-width: 1.5;" width="10" x="181" y="126.2969"/><text fill="#000000" font-family="sans-serif" font-size="14" lengthAdjust="spacingAndGlyphs" textLength="42" x="196" y="122.9951">HOME</text><!--MD5=[d2bc85379e9dff4267854a45bc663a7d]
entity SHOP--><rect fill="#FEFECE" filter="url(#f1se957w32je27)" height="36.2969" style="stroke: #A80036; stroke-width: 1.5;" width="59" x="91.5" y="100"/><rect fill="#FEFECE" height="5" style="stroke: #A80036; stroke-width: 1.5;" width="10" x="86.5" y="105"/><rect fill="#FEFECE" height="5" style="stroke: #A80036; stroke-width: 1.5;" width="10" x="86.5" y="126.2969"/><text fill="#000000" font-family="sans-serif" font-size="14" lengthAdjust="spacingAndGlyphs" textLength="39" x="101.5" y="122.9951">SHOP</text><!--MD5=[bef234c04b949c75cf1a3e57682abc3e]
entity VUE--><rect fill="#FEFECE" filter="url(#f1se957w32je27)" height="36.2969" style="stroke: #A80036; stroke-width: 1.5;" width="48" x="176" y="243"/><rect fill="#FEFECE" height="5" style="stroke: #A80036; stroke-width: 1.5;" width="10" x="171" y="248"/><rect fill="#FEFECE" height="5" style="stroke: #A80036; stroke-width: 1.5;" width="10" x="171" y="269.2969"/><text fill="#000000" font-family="sans-serif" font-size="14" lengthAdjust="spacingAndGlyphs" textLength="28" x="186" y="265.9951">VUE</text><!--MD5=[cfc1aa153fa94475cb71aef12baa71ec]
entity RAX--><rect fill="#FEFECE" filter="url(#f1se957w32je27)" height="36.2969" style="stroke: #A80036; stroke-width: 1.5;" width="50" x="91" y="243"/><rect fill="#FEFECE" height="5" style="stroke: #A80036; stroke-width: 1.5;" width="10" x="86" y="248"/><rect fill="#FEFECE" height="5" style="stroke: #A80036; stroke-width: 1.5;" width="10" x="86" y="269.2969"/><text fill="#000000" font-family="sans-serif" font-size="14" lengthAdjust="spacingAndGlyphs" textLength="30" x="101" y="265.9951">RAX</text><!--MD5=[be886c3fda8e24a6b2f031b8647f5bba]
entity DomApi--><ellipse cx="128" cy="415" fill="#FEFECE" filter="url(#f1se957w32je27)" rx="8" ry="8" style="stroke: #A80036; stroke-width: 2.0;"/><text fill="#000000" font-family="sans-serif" font-size="14" lengthAdjust="spacingAndGlyphs" textLength="58" x="99" y="444.9951">DomApi</text><!--MD5=[b36ba2e949d85dc9016208cff5c84d57]
entity RenderAction--><ellipse cx="398" cy="415" fill="#FEFECE" filter="url(#f1se957w32je27)" rx="8" ry="8" style="stroke: #A80036; stroke-width: 2.0;"/><text fill="#000000" font-family="sans-serif" font-size="14" lengthAdjust="spacingAndGlyphs" textLength="99" x="348.5" y="444.9951">RenderAction</text><!--MD5=[ced5b23947a06a5287738a8b48d043a9]
entity ModuleAction--><ellipse cx="148" cy="588" fill="#FEFECE" filter="url(#f1se957w32je27)" rx="8" ry="8" style="stroke: #A80036; stroke-width: 2.0;"/><text fill="#000000" font-family="sans-serif" font-size="14" lengthAdjust="spacingAndGlyphs" textLength="98" x="99" y="617.9951">ModuleAction</text><!--MD5=[8fbec5fa4cd6e351e053ad3901623fb9]
entity DomTree--><rect fill="#ADFF2F" filter="url(#f1se957w32je27)" height="36.2969" style="stroke: #A80036; stroke-width: 1.5;" width="87" x="240.5" y="570"/><rect fill="#ADFF2F" height="5" style="stroke: #A80036; stroke-width: 1.5;" width="10" x="235.5" y="575"/><rect fill="#ADFF2F" height="5" style="stroke: #A80036; stroke-width: 1.5;" width="10" x="235.5" y="596.2969"/><text fill="#000000" font-family="sans-serif" font-size="14" lengthAdjust="spacingAndGlyphs" textLength="67" x="250.5" y="592.9951">DomTree</text><!--MD5=[4087e145ebb449d5f101840054d439ac]
entity JSApiBinding--><ellipse cx="253" cy="415" fill="#FEFECE" filter="url(#f1se957w32je27)" rx="8" ry="8" style="stroke: #A80036; stroke-width: 2.0;"/><text fill="#000000" font-family="sans-serif" font-size="14" lengthAdjust="spacingAndGlyphs" textLength="91" x="207.5" y="444.9951">JSApiBinding</text><!--MD5=[0bddb22d7ece04c78f46eabeea2aa83e]
entity JSRuntime--><rect fill="#FEFECE" filter="url(#f1se957w32je27)" height="36.2969" style="stroke: #A80036; stroke-width: 1.5;" width="94" x="586" y="570"/><rect fill="#FEFECE" height="5" style="stroke: #A80036; stroke-width: 1.5;" width="10" x="581" y="575"/><rect fill="#FEFECE" height="5" style="stroke: #A80036; stroke-width: 1.5;" width="10" x="581" y="596.2969"/><text fill="#000000" font-family="sans-serif" font-size="14" lengthAdjust="spacingAndGlyphs" textLength="74" x="596" y="592.9951">JSRuntime</text><!--MD5=[8f69656bb6a9dc71d8d253d26ed486d4]
entity V8--><rect fill="#FEFECE" filter="url(#f1se957w32je27)" height="36.2969" style="stroke: #A80036; stroke-width: 1.5;" width="38" x="829" y="570"/><rect fill="#FEFECE" height="5" style="stroke: #A80036; stroke-width: 1.5;" width="10" x="824" y="575"/><rect fill="#FEFECE" height="5" style="stroke: #A80036; stroke-width: 1.5;" width="10" x="824" y="596.2969"/><text fill="#000000" font-family="sans-serif" font-size="14" lengthAdjust="spacingAndGlyphs" textLength="18" x="839" y="592.9951">V8</text><!--MD5=[b47dc2ee1da249e2923b53326b24b001]
entity JSC--><rect fill="#FEFECE" filter="url(#f1se957w32je27)" height="36.2969" style="stroke: #A80036; stroke-width: 1.5;" width="43" x="750.5" y="570"/><rect fill="#FEFECE" height="5" style="stroke: #A80036; stroke-width: 1.5;" width="10" x="745.5" y="575"/><rect fill="#FEFECE" height="5" style="stroke: #A80036; stroke-width: 1.5;" width="10" x="745.5" y="596.2969"/><text fill="#000000" font-family="sans-serif" font-size="14" lengthAdjust="spacingAndGlyphs" textLength="23" x="760.5" y="592.9951">JSC</text><!--MD5=[de1a075f79959e87b189d3f3af64a37b]
entity IPCBridge--><ellipse cx="816" cy="809" fill="#FEFECE" filter="url(#f1se957w32je27)" rx="8" ry="8" style="stroke: #A80036; stroke-width: 2.0;"/><text fill="#000000" font-family="sans-serif" font-size="14" lengthAdjust="spacingAndGlyphs" textLength="70" x="781" y="838.9951">IPCBridge</text><!--MD5=[fad52558c56948994728da5d9b7108a3]
entity NativeTimer--><rect fill="#FEFECE" filter="url(#f1se957w32je27)" height="36.2969" style="stroke: #A80036; stroke-width: 1.5;" width="108" x="630" y="791"/><rect fill="#FEFECE" height="5" style="stroke: #A80036; stroke-width: 1.5;" width="10" x="625" y="796"/><rect fill="#FEFECE" height="5" style="stroke: #A80036; stroke-width: 1.5;" width="10" x="625" y="817.2969"/><text fill="#000000" font-family="sans-serif" font-size="14" lengthAdjust="spacingAndGlyphs" textLength="88" x="640" y="813.9951">NativeTimer</text><!--MD5=[d37809cf0fe4f335e30149b5adb1fdc9]
entity InstanceManager--><rect fill="#FEFECE" filter="url(#f1se957w32je27)" height="36.2969" style="stroke: #A80036; stroke-width: 1.5;" width="142" x="894" y="791"/><rect fill="#FEFECE" height="5" style="stroke: #A80036; stroke-width: 1.5;" width="10" x="889" y="796"/><rect fill="#FEFECE" height="5" style="stroke: #A80036; stroke-width: 1.5;" width="10" x="889" y="817.2969"/><text fill="#000000" font-family="sans-serif" font-size="14" lengthAdjust="spacingAndGlyphs" textLength="122" x="904" y="813.9951">InstanceManager</text><!--MD5=[c5e316dd6b06499d3c93ac24ed10f940]
entity JSBinding--><rect fill="#FF0000" filter="url(#f1se957w32je27)" height="36.2969" style="stroke: #A80036; stroke-width: 1.5;" width="87" x="507.5" y="791"/><rect fill="#FF0000" height="5" style="stroke: #A80036; stroke-width: 1.5;" width="10" x="502.5" y="796"/><rect fill="#FF0000" height="5" style="stroke: #A80036; stroke-width: 1.5;" width="10" x="502.5" y="817.2969"/><text fill="#000000" font-family="sans-serif" font-size="14" lengthAdjust="spacingAndGlyphs" textLength="67" x="517.5" y="813.9951">JSBinding</text><!--MD5=[8ecc3956e019464df55f544a7bf7ffc9]
entity VM--><rect fill="#FEFECE" filter="url(#f1se957w32je27)" height="36.2969" style="stroke: #A80036; stroke-width: 1.5;" width="42" x="633" y="905"/><rect fill="#FEFECE" height="5" style="stroke: #A80036; stroke-width: 1.5;" width="10" x="628" y="910"/><rect fill="#FEFECE" height="5" style="stroke: #A80036; stroke-width: 1.5;" width="10" x="628" y="931.2969"/><text fill="#000000" font-family="sans-serif" font-size="14" lengthAdjust="spacingAndGlyphs" textLength="22" x="643" y="927.9951">VM</text><!--MD5=[8a13a0688b0b1e23fa931a70b120834a]
entity context/isolate--><rect fill="#FEFECE" filter="url(#f1se957w32je27)" height="36.2969" style="stroke: #A80036; stroke-width: 1.5;" width="130" x="710" y="905"/><rect fill="#FEFECE" height="5" style="stroke: #A80036; stroke-width: 1.5;" width="10" x="705" y="910"/><rect fill="#FEFECE" height="5" style="stroke: #A80036; stroke-width: 1.5;" width="10" x="705" y="931.2969"/><text fill="#000000" font-family="sans-serif" font-size="14" lengthAdjust="spacingAndGlyphs" textLength="110" x="720" y="927.9951">context/isolate</text><!--MD5=[ead227b1f15782be967ad12754f7a231]
entity Sender--><rect fill="#FEFECE" filter="url(#f1se957w32je27)" height="36.2969" style="stroke: #A80036; stroke-width: 1.5;" width="71" x="1127.5" y="905"/><rect fill="#FEFECE" height="5" style="stroke: #A80036; stroke-width: 1.5;" width="10" x="1122.5" y="910"/><rect fill="#FEFECE" height="5" style="stroke: #A80036; stroke-width: 1.5;" width="10" x="1122.5" y="931.2969"/><text fill="#000000" font-family="sans-serif" font-size="14" lengthAdjust="spacingAndGlyphs" textLength="51" x="1137.5" y="927.9951">Sender</text><!--MD5=[24273bc5a8283eeb7d09bfca1d998818]
entity Recevier--><rect fill="#FEFECE" filter="url(#f1se957w32je27)" height="36.2969" style="stroke: #A80036; stroke-width: 1.5;" width="83" x="1233.5" y="905"/><rect fill="#FEFECE" height="5" style="stroke: #A80036; stroke-width: 1.5;" width="10" x="1228.5" y="910"/><rect fill="#FEFECE" height="5" style="stroke: #A80036; stroke-width: 1.5;" width="10" x="1228.5" y="931.2969"/><text fill="#000000" font-family="sans-serif" font-size="14" lengthAdjust="spacingAndGlyphs" textLength="63" x="1243.5" y="927.9951">Recevier</text><!--MD5=[7ffd83c8387ef3fdb67aad806f17984a]
entity lock--><rect fill="#FEFECE" filter="url(#f1se957w32je27)" height="36.2969" style="stroke: #A80036; stroke-width: 1.5;" width="50" x="1138" y="1043"/><rect fill="#FEFECE" height="5" style="stroke: #A80036; stroke-width: 1.5;" width="10" x="1133" y="1048"/><rect fill="#FEFECE" height="5" style="stroke: #A80036; stroke-width: 1.5;" width="10" x="1133" y="1069.2969"/><text fill="#000000" font-family="sans-serif" font-size="14" lengthAdjust="spacingAndGlyphs" textLength="30" x="1148" y="1065.9951">lock</text><!--MD5=[bb3079b89a557e8989e776d92ed60cfd]
entity IPCBridgeOnMain--><ellipse cx="624" cy="1061" fill="#FEFECE" filter="url(#f1se957w32je27)" rx="8" ry="8" style="stroke: #A80036; stroke-width: 2.0;"/><text fill="#000000" font-family="sans-serif" font-size="14" lengthAdjust="spacingAndGlyphs" textLength="123" x="562.5" y="1090.9951">IPCBridgeOnMain</text><!--MD5=[9938ad471a18017f9801c9f585aa0454]
entity RenderPage--><rect fill="#FEFECE" filter="url(#f1se957w32je27)" height="36.2969" style="stroke: #A80036; stroke-width: 1.5;" width="107" x="893.5" y="1043"/><rect fill="#FEFECE" height="5" style="stroke: #A80036; stroke-width: 1.5;" width="10" x="888.5" y="1048"/><rect fill="#FEFECE" height="5" style="stroke: #A80036; stroke-width: 1.5;" width="10" x="888.5" y="1069.2969"/><text fill="#000000" font-family="sans-serif" font-size="14" lengthAdjust="spacingAndGlyphs" textLength="87" x="903.5" y="1065.9951">RenderPage</text><!--MD5=[bfea1239054d6c94fc9e76d6be4b04af]
entity RenderTree--><rect fill="#ADFF2F" filter="url(#f1se957w32je27)" height="36.2969" style="stroke: #A80036; stroke-width: 1.5;" width="105" x="563.5" y="1150"/><rect fill="#ADFF2F" height="5" style="stroke: #A80036; stroke-width: 1.5;" width="10" x="558.5" y="1155"/><rect fill="#ADFF2F" height="5" style="stroke: #A80036; stroke-width: 1.5;" width="10" x="558.5" y="1176.2969"/><text fill="#000000" font-family="sans-serif" font-size="14" lengthAdjust="spacingAndGlyphs" textLength="85" x="573.5" y="1172.9951">RenderTree</text><!--MD5=[a6a28eabfc5c4767bb87d2972c6e385b]
entity LayoutEngine--><rect fill="#FEFECE" filter="url(#f1se957w32je27)" height="36.2969" style="stroke: #A80036; stroke-width: 1.5;" width="117" x="703.5" y="1150"/><rect fill="#FEFECE" height="5" style="stroke: #A80036; stroke-width: 1.5;" width="10" x="698.5" y="1155"/><rect fill="#FEFECE" height="5" style="stroke: #A80036; stroke-width: 1.5;" width="10" x="698.5" y="1176.2969"/><text fill="#000000" font-family="sans-serif" font-size="14" lengthAdjust="spacingAndGlyphs" textLength="97" x="713.5" y="1172.9951">LayoutEngine</text><!--MD5=[2439ba0de2c7e5386785a7ead5a5f775]
entity PlatformBridge--><rect fill="#FEFECE" filter="url(#f1se957w32je27)" height="36.2969" style="stroke: #A80036; stroke-width: 1.5;" width="130" x="728" y="1043"/><rect fill="#FEFECE" height="5" style="stroke: #A80036; stroke-width: 1.5;" width="10" x="723" y="1048"/><rect fill="#FEFECE" height="5" style="stroke: #A80036; stroke-width: 1.5;" width="10" x="723" y="1069.2969"/><text fill="#000000" font-family="sans-serif" font-size="14" lengthAdjust="spacingAndGlyphs" textLength="110" x="738" y="1065.9951">PlatformBridge</text><!--MD5=[a00dfbf15fa478a8b38d166b3ad8f38f]
entity ViewTree--><rect fill="#ADFF2F" filter="url(#f1se957w32je27)" height="36.2969" style="stroke: #A80036; stroke-width: 1.5;" width="87" x="1527.5" y="1369"/><rect fill="#ADFF2F" height="5" style="stroke: #A80036; stroke-width: 1.5;" width="10" x="1522.5" y="1374"/><rect fill="#ADFF2F" height="5" style="stroke: #A80036; stroke-width: 1.5;" width="10" x="1522.5" y="1395.2969"/><text fill="#000000" font-family="sans-serif" font-size="14" lengthAdjust="spacingAndGlyphs" textLength="67" x="1537.5" y="1391.9951">ViewTree</text><!--MD5=[504c7d40b4677fdd0f016a104d6a7e29]
entity ModuleManager--><rect fill="#FEFECE" filter="url(#f1se957w32je27)" height="36.2969" style="stroke: #A80036; stroke-width: 1.5;" width="132" x="1360" y="1369"/><rect fill="#FEFECE" height="5" style="stroke: #A80036; stroke-width: 1.5;" width="10" x="1355" y="1374"/><rect fill="#FEFECE" height="5" style="stroke: #A80036; stroke-width: 1.5;" width="10" x="1355" y="1395.2969"/><text fill="#000000" font-family="sans-serif" font-size="14" lengthAdjust="spacingAndGlyphs" textLength="112" x="1370" y="1391.9951">ModuleManager</text><!--MD5=[fea4731fa4532e9f672297e68f40c5cf]
entity GraphicActionManager--><rect fill="#FEFECE" filter="url(#f1se957w32je27)" height="36.2969" style="stroke: #A80036; stroke-width: 1.5;" width="184" x="1141" y="1369"/><rect fill="#FEFECE" height="5" style="stroke: #A80036; stroke-width: 1.5;" width="10" x="1136" y="1374"/><rect fill="#FEFECE" height="5" style="stroke: #A80036; stroke-width: 1.5;" width="10" x="1136" y="1395.2969"/><text fill="#000000" font-family="sans-serif" font-size="14" lengthAdjust="spacingAndGlyphs" textLength="164" x="1151" y="1391.9951">GraphicActionManager</text><!--MD5=[6d9a1d385863aa8515f2a13d96968c88]
entity WXBridge--><rect fill="#FEFECE" filter="url(#f1se957w32je27)" height="36.2969" style="stroke: #A80036; stroke-width: 1.5;" width="91" x="1014.5" y="1369"/><rect fill="#FEFECE" height="5" style="stroke: #A80036; stroke-width: 1.5;" width="10" x="1009.5" y="1374"/><rect fill="#FEFECE" height="5" style="stroke: #A80036; stroke-width: 1.5;" width="10" x="1009.5" y="1395.2969"/><text fill="#000000" font-family="sans-serif" font-size="14" lengthAdjust="spacingAndGlyphs" textLength="71" x="1024.5" y="1391.9951">WXBridge</text><path d="M1371.5,1465 L1371.5,1490.1328 A0,0 0 0 0 1371.5,1490.1328 L1480.5,1490.1328 A0,0 0 0 0 1480.5,1490.1328 L1480.5,1475 L1470.5,1465 L1430,1465 L1426,1405.064 L1422,1465 L1371.5,1465 A0,0 0 0 0 1371.5,1465 " fill="#FBFB77" filter="url(#f1se957w32je27)" style="stroke: #A80036; stroke-width: 1.0;"/><path d="M1470.5,1465 L1470.5,1475 L1480.5,1475 L1470.5,1465 " fill="#FBFB77" style="stroke: #A80036; stroke-width: 1.0;"/><text fill="#000000" font-family="sans-serif" font-size="13" lengthAdjust="spacingAndGlyphs" textLength="88" x="1377.5" y="1482.0669">call native api</text><path d="M1171,1465 L1171,1490.1328 A0,0 0 0 0 1171,1490.1328 L1295,1490.1328 A0,0 0 0 0 1295,1490.1328 L1295,1475 L1285,1465 L1237,1465 L1233,1405.064 L1229,1465 L1171,1465 A0,0 0 0 0 1171,1465 " fill="#FBFB77" filter="url(#f1se957w32je27)" style="stroke: #A80036; stroke-width: 1.0;"/><path d="M1285,1465 L1285,1475 L1295,1475 L1285,1465 " fill="#FBFB77" style="stroke: #A80036; stroke-width: 1.0;"/><text fill="#000000" font-family="sans-serif" font-size="13" lengthAdjust="spacingAndGlyphs" textLength="103" x="1177" y="1482.0669">add/rm element</text><!--MD5=[80ceb6aaded45058e3204fdb17f5ebaa]
entity ...--><rect fill="#FEFECE" filter="url(#f1se957w32je27)" height="36.2969" style="stroke: #A80036; stroke-width: 1.5;" width="35" x="922.5" y="1369"/><rect fill="#FEFECE" height="5" style="stroke: #A80036; stroke-width: 1.5;" width="10" x="917.5" y="1374"/><rect fill="#FEFECE" height="5" style="stroke: #A80036; stroke-width: 1.5;" width="10" x="917.5" y="1395.2969"/><text fill="#000000" font-family="sans-serif" font-size="14" lengthAdjust="spacingAndGlyphs" textLength="15" x="932.5" y="1391.9951">...</text><!--MD5=[de9cf25846ec2e9efc30230ed5307f5a]
link Business to JSFrameWork--><path d="M56,160.6787 C56,160.9247 56,161.1712 56,161.4183 C56,162.4065 56,163.4036 56,164.4085 C56,172.4476 56,180.9872 56,189.5262 C56,191.661 56,193.7957 56,195.9226 C56,196.986 56,198.0475 56,199.106 C56,199.3707 56,199.6351 56,199.8994 " fill="none" id="Business-JSFrameWork" style="stroke: #A80036; stroke-width: 1.0;"/><polygon fill="#A80036" points="56,199.8994,60,190.8994,56,194.8994,52,190.8994,56,199.8994" style="stroke: #A80036; stroke-width: 1.0;"/><polygon fill="#A80036" points="56,160.6787,52,169.6787,56,165.6787,60,169.6787,56,160.6787" style="stroke: #A80036; stroke-width: 1.0;"/><!--MD5=[66afc8b10d266e9324a6f6b0db13bc97]
link JSFrameWork to WXJSFrameWork--><path d="M56,303.7769 C56,304.0369 56,304.2975 56,304.5589 C56,306.6495 56,308.7823 56,310.9489 C56,319.6151 56,328.8209 56,338.0263 C56,339.1769 56,340.3276 56,341.4772 C56,341.7646 56,342.0519 56,342.3391 C56,342.4828 56,342.6264 56,342.7699 " fill="none" id="JSFrameWork-WXJSFrameWork" style="stroke: #A80036; stroke-width: 1.0;"/><polygon fill="#A80036" points="56,342.7699,60,333.7699,56,337.7699,52,333.7699,56,342.7699" style="stroke: #A80036; stroke-width: 1.0;"/><polygon fill="#A80036" points="56,303.7769,52,312.7769,56,308.7769,60,312.7769,56,303.7769" style="stroke: #A80036; stroke-width: 1.0;"/><!--MD5=[2d8c963ac4992947731b2e43411de334]
link JSRuntime to Engine--><path d="M685.188,588 C690.0655,588 694.9432,588 699.821,588 C701.0404,588 702.2599,588 703.4793,588 C704.089,588 704.6987,588 705.3085,588 C705.6133,588 705.9182,588 706.223,588 C706.3755,588 706.5279,588 706.6803,588 C706.7565,588 706.8327,588 706.909,588 " fill="none" id="JSRuntime-Engine" style="stroke: #A80036; stroke-width: 1.0;"/><polygon fill="#A80036" points="706.909,588,697.909,584,701.909,588,697.909,592,706.909,588" style="stroke: #A80036; stroke-width: 1.0;"/><polygon fill="#A80036" points="680.086,588,689.086,592,685.086,588,689.086,584,680.086,588" style="stroke: #A80036; stroke-width: 1.0;"/><!--MD5=[a8e1783100d440f9937885807f193e61]
link JSApiBinding to JSRuntime--><path d="M266.881,423.24 C280.688,430.04 302.687,439.76 323,444 C337.092,446.94 570.286,443.63 582,452 C618.425,478.02 628.848,533.47 631.822,564.606 " fill="none" id="JSApiBinding-JSRuntime" style="stroke: #A80036; stroke-width: 1.0;"/><polygon fill="#A80036" points="632.267,569.755,635.4782,560.4443,631.837,564.7735,627.5078,561.1323,632.267,569.755" style="stroke: #A80036; stroke-width: 1.0;"/><polygon fill="#A80036" points="262.183,420.89,268.4382,428.4974,266.6534,423.1295,272.0214,421.3448,262.183,420.89" style="stroke: #A80036; stroke-width: 1.0;"/><!--MD5=[852e067828057e5ccb02d751186801ab]
reverse link JSEngine to JSBinding--><path d="M551,670.122 C551,670.4592 551,670.7969 551,671.1349 C551,671.8109 551,672.4885 551,673.1674 C551,716.617 551,765.697 551,790.958 " fill="none" id="JSEngine&lt;-JSBinding" style="stroke: #A80036; stroke-width: 1.0;"/><polygon fill="#A80036" points="551,670.122,547,679.122,551,675.122,555,679.122,551,670.122" style="stroke: #A80036; stroke-width: 1.0;"/><!--MD5=[9ccb0a458542e43e93731cb83d715f99]
link IPCBridge to IPC--><path d="M829.711,818.299 C841.516,824.969 859.247,833.882 876,838 C895.01,842.673 1035.48,835.504 1052,846 C1067.605,855.913 1077.4775,874.0538 1083.51,890.1259 C1083.6043,890.377 1083.6976,890.6276 1083.79,890.8777 C1083.8362,891.0027 1083.8821,891.1276 1083.9279,891.2524 " fill="none" id="IPCBridge-IPC" style="stroke: #A80036; stroke-width: 1.0;"/><polygon fill="#A80036" points="1083.9279,891.2524,1084.5861,881.4256,1082.2071,886.5578,1077.0748,884.1788,1083.9279,891.2524" style="stroke: #A80036; stroke-width: 1.0;"/><polygon fill="#A80036" points="825.339,815.777,831.1362,823.7389,829.6701,818.2754,835.1336,816.8092,825.339,815.777" style="stroke: #A80036; stroke-width: 1.0;"/><!--MD5=[db31ce0bb0b45acd2141aca90ed1a2a5]
link IPC to CoreSide--><path d="M1083.9357,943.5843 C1083.8586,943.7715 1083.7811,943.9598 1083.7032,944.149 C1083.3915,944.906 1083.0731,945.679 1082.7486,946.4672 C1077.5559,959.0771 1070.7719,975.5519 1063.9888,992.0248 C1057.2056,1008.4976 1050.4234,1024.9686 1045.2345,1037.5707 C1044.9102,1038.3584 1044.5921,1039.1309 1044.2807,1039.8873 C1044.2028,1040.0765 1044.1253,1040.2646 1044.0483,1040.4517 " fill="none" id="IPC-CoreSide" style="stroke: #A80036; stroke-width: 1.0;"/><polygon fill="#A80036" points="1044.0483,1040.4517,1051.1737,1033.6524,1045.952,1035.8282,1043.7762,1030.6066,1044.0483,1040.4517" style="stroke: #A80036; stroke-width: 1.0;"/><polygon fill="#A80036" points="1083.9357,943.5843,1076.8101,950.3833,1082.0319,948.2077,1084.2074,953.4294,1083.9357,943.5843" style="stroke: #A80036; stroke-width: 1.0;"/><!--MD5=[10daeb6e819f270a91e684602a5a35ae]
link PlatformBridge to Platform--><path d="M806.665,1083.81 C816.877,1101.117 830.344,1126.265 838,1150 C846.016,1174.8503 852.2669,1201.7622 857.1359,1228.2161 C859.5704,1241.443 861.6595,1254.5555 863.451,1267.2385 C864.3468,1273.58 865.1682,1279.8141 865.9211,1285.9014 " fill="none" id="PlatformBridge-Platform" style="stroke: #A80036; stroke-width: 1.0;"/><polygon fill="#A80036" points="865.9211,1285.9014,868.7861,1276.4785,865.3073,1280.9393,860.8466,1277.4606,865.9211,1285.9014" style="stroke: #A80036; stroke-width: 1.0;"/><polygon fill="#A80036" points="803.878,1079.144,805.0569,1088.922,806.441,1083.4371,811.9259,1084.8212,803.878,1079.144" style="stroke: #A80036; stroke-width: 1.0;"/><!--MD5=[bf50f98502473bafb22f408998272bde]
link DomApi to RenderAction--><!--MD5=[d4412db3b5c939860f786d9359cd6b9e]
link DomApi to ModuleAction--><!--MD5=[e984b83ab7607df11f8753360b6c0088]
link ModuleAction to DomTree--><!--MD5=[f932001a02304f28ecb12ce35cc188e7]
link NativeTimer to InstanceManager--><!--MD5=[93189aa1cfb19d2ff938c68b059ca61b]
link NativeTimer to VM--><!--MD5=[a5461103cb870ee3c453a0482f97fb43]
link VM to context/isolate--><!--MD5=[c6cf1ac68e2d7c0a78ea0daf57c317bc]
link Sender to Recevier--><!--MD5=[109cfd816a95cde77ab1f46690ffd8e9]
link Sender to lock--><!--MD5=[ca63d9a4a088966e2af4192592fd84fa]
link IPCBridgeOnMain to RenderPage--><!--MD5=[f1c0cf761497ebefe0202fb4aa02f61b]
link IPCBridgeOnMain to RenderTree--><!--MD5=[c2f1e5a82ae26f53a79da24eeb9729fc]
link RenderTree to LayoutEngine--><!--MD5=[06c64774547642689cc9341a82434e81]
link InstanceManager to Sender--><!--MD5=[2e33101bacd574b0574e0ef1c10c7d98]
link VM to IPCBridgeOnMain--><!--MD5=[7985d4d449db4f98272ab5830ff0b80c]
@startuml
package JS{

    package Business{
        [HOME]
        [SHOP]
    }
    
    package JSFrameWork{
        [VUE]
        [RAX]
    }

    package WXJSFrameWork{
        interface  DomApi
        interface  RenderAction
        interface  ModuleAction
        [DomTree] #GreenYellow
        interface JSApiBinding
    }

    Business <- -> JSFrameWork
    JSFrameWork <- -> WXJSFrameWork
}

package JSEngine{
    [JSRuntime]
    package Engine{
        [V8]
        [JSC]
    }
    JSRuntime <-> Engine
}

 JSApiBinding <- -> JSRuntime

package WeeCore{

    package JSSide{
        () IPCBridge
        [NativeTimer]
        [InstanceManager]
        [JSBinding] #Red
        [VM]
        [context/isolate]
    }

    JSBinding -up-> JSEngine


    package IPC #IndianRed{
        [Sender]
        [Recevier]
        [lock]
    }
    IPCBridge <-down->IPC
    
    package CoreSide{
        () IPCBridgeOnMain
        [RenderPage]
        [RenderTree] #GreenYellow
        [LayoutEngine]
        [PlatformBridge]
    }

    IPC <- -> CoreSide
}

package Platform{
    package Android{
        [ViewTree] #GreenYellow
        [ModuleManager]
        [GraphicActionManager]
        [WXBridge]

        note bottom of ModuleManager : call native api

        note bottom of GraphicActionManager : add/rm element
    }

    package iOS{
        [...] 
    }
}

PlatformBridge <- -down- -> Platform
@enduml

PlantUML version 1.2020.12(Sat Jun 06 10:54:15 UTC 2020)
(GPL source distribution)
Java Runtime: Java(TM) SE Runtime Environment
JVM: Java HotSpot(TM) 64-Bit Server VM
Default Encoding: UTF-8
Language: en
Country: US
--></g></svg>