<?xml version="1.0" encoding="UTF-8" standalone="no"?><svg xmlns="http://www.w3.org/2000/svg" xmlns:xlink="http://www.w3.org/1999/xlink" contentScriptType="application/ecmascript" contentStyleType="text/css" height="1540px" preserveAspectRatio="none" style="width:3522px;height:1540px;" version="1.1" viewBox="0 0 3522 1540" width="3522px" zoomAndPan="magnify"><defs><filter height="300%" id="f1ho25csze01qy" width="300%" x="-1" y="-1"><feGaussianBlur result="blurOut" stdDeviation="2.0"/><feColorMatrix in="blurOut" result="blurOut2" type="matrix" values="0 0 0 0 0 0 0 0 0 0 0 0 0 0 0 0 0 0 .4 0"/><feOffset dx="4.0" dy="4.0" in="blurOut2" result="blurOut3"/><feBlend in="SourceGraphic" in2="blurOut3" mode="normal"/></filter></defs><g><line style="stroke: #A80036; stroke-width: 1.0; stroke-dasharray: 5.0,5.0;" x1="66" x2="66" y1="38.2969" y2="1500.4063"/><line style="stroke: #A80036; stroke-width: 1.0; stroke-dasharray: 5.0,5.0;" x1="238.5" x2="238.5" y1="38.2969" y2="1500.4063"/><line style="stroke: #A80036; stroke-width: 1.0; stroke-dasharray: 5.0,5.0;" x1="400" x2="400" y1="38.2969" y2="1500.4063"/><line style="stroke: #A80036; stroke-width: 1.0; stroke-dasharray: 5.0,5.0;" x1="538" x2="538" y1="38.2969" y2="1500.4063"/><line style="stroke: #A80036; stroke-width: 1.0; stroke-dasharray: 5.0,5.0;" x1="625" x2="625" y1="38.2969" y2="1500.4063"/><line style="stroke: #A80036; stroke-width: 1.0; stroke-dasharray: 5.0,5.0;" x1="830" x2="830" y1="38.2969" y2="1500.4063"/><line style="stroke: #A80036; stroke-width: 1.0; stroke-dasharray: 5.0,5.0;" x1="930" x2="930" y1="38.2969" y2="1500.4063"/><line style="stroke: #A80036; stroke-width: 1.0; stroke-dasharray: 5.0,5.0;" x1="1054" x2="1054" y1="38.2969" y2="1500.4063"/><line style="stroke: #A80036; stroke-width: 1.0; stroke-dasharray: 5.0,5.0;" x1="1170" x2="1170" y1="38.2969" y2="1500.4063"/><line style="stroke: #A80036; stroke-width: 1.0; stroke-dasharray: 5.0,5.0;" x1="1253" x2="1253" y1="38.2969" y2="1500.4063"/><line style="stroke: #A80036; stroke-width: 1.0; stroke-dasharray: 5.0,5.0;" x1="1445.5" x2="1445.5" y1="38.2969" y2="1500.4063"/><line style="stroke: #A80036; stroke-width: 1.0; stroke-dasharray: 5.0,5.0;" x1="1623" x2="1623" y1="38.2969" y2="1500.4063"/><line style="stroke: #A80036; stroke-width: 1.0; stroke-dasharray: 5.0,5.0;" x1="1771" x2="1771" y1="38.2969" y2="1500.4063"/><line style="stroke: #A80036; stroke-width: 1.0; stroke-dasharray: 5.0,5.0;" x1="1908" x2="1908" y1="38.2969" y2="1500.4063"/><line style="stroke: #A80036; stroke-width: 1.0; stroke-dasharray: 5.0,5.0;" x1="2078" x2="2078" y1="38.2969" y2="1500.4063"/><line style="stroke: #A80036; stroke-width: 1.0; stroke-dasharray: 5.0,5.0;" x1="2238" x2="2238" y1="38.2969" y2="1500.4063"/><line style="stroke: #A80036; stroke-width: 1.0; stroke-dasharray: 5.0,5.0;" x1="2368" x2="2368" y1="38.2969" y2="1500.4063"/><line style="stroke: #A80036; stroke-width: 1.0; stroke-dasharray: 5.0,5.0;" x1="2528" x2="2528" y1="38.2969" y2="1500.4063"/><line style="stroke: #A80036; stroke-width: 1.0; stroke-dasharray: 5.0,5.0;" x1="2745" x2="2745" y1="38.2969" y2="1500.4063"/><line style="stroke: #A80036; stroke-width: 1.0; stroke-dasharray: 5.0,5.0;" x1="2972" x2="2972" y1="38.2969" y2="1500.4063"/><line style="stroke: #A80036; stroke-width: 1.0; stroke-dasharray: 5.0,5.0;" x1="3192" x2="3192" y1="38.2969" y2="1500.4063"/><line style="stroke: #A80036; stroke-width: 1.0; stroke-dasharray: 5.0,5.0;" x1="3362" x2="3362" y1="38.2969" y2="1500.4063"/><line style="stroke: #A80036; stroke-width: 1.0; stroke-dasharray: 5.0,5.0;" x1="3472" x2="3472" y1="38.2969" y2="1500.4063"/><rect fill="#FEFECE" filter="url(#f1ho25csze01qy)" height="30.2969" style="stroke: #A80036; stroke-width: 1.5;" width="112" x="8" y="3"/><text fill="#000000" font-family="sans-serif" font-size="14" lengthAdjust="spacingAndGlyphs" textLength="98" x="15" y="22.9951">FlutterEngine</text><rect fill="#FEFECE" filter="url(#f1ho25csze01qy)" height="30.2969" style="stroke: #A80036; stroke-width: 1.5;" width="112" x="8" y="1499.4063"/><text fill="#000000" font-family="sans-serif" font-size="14" lengthAdjust="spacingAndGlyphs" textLength="98" x="15" y="1519.4014">FlutterEngine</text><rect fill="#FEFECE" filter="url(#f1ho25csze01qy)" height="30.2969" style="stroke: #A80036; stroke-width: 1.5;" width="81" x="196.5" y="3"/><text fill="#000000" font-family="sans-serif" font-size="14" lengthAdjust="spacingAndGlyphs" textLength="67" x="203.5" y="22.9951">FlutterJNI</text><rect fill="#FEFECE" filter="url(#f1ho25csze01qy)" height="30.2969" style="stroke: #A80036; stroke-width: 1.5;" width="81" x="196.5" y="1499.4063"/><text fill="#000000" font-family="sans-serif" font-size="14" lengthAdjust="spacingAndGlyphs" textLength="67" x="203.5" y="1519.4014">FlutterJNI</text><rect fill="#FEFECE" filter="url(#f1ho25csze01qy)" height="30.2969" style="stroke: #A80036; stroke-width: 1.5;" width="152" x="322" y="3"/><text fill="#000000" font-family="sans-serif" font-size="14" lengthAdjust="spacingAndGlyphs" textLength="138" x="329" y="22.9951">AndroidShellHolder</text><rect fill="#FEFECE" filter="url(#f1ho25csze01qy)" height="30.2969" style="stroke: #A80036; stroke-width: 1.5;" width="152" x="322" y="1499.4063"/><text fill="#000000" font-family="sans-serif" font-size="14" lengthAdjust="spacingAndGlyphs" textLength="138" x="329" y="1519.4014">AndroidShellHolder</text><rect fill="#FEFECE" filter="url(#f1ho25csze01qy)" height="30.2969" style="stroke: #A80036; stroke-width: 1.5;" width="97" x="488" y="3"/><text fill="#000000" font-family="sans-serif" font-size="14" lengthAdjust="spacingAndGlyphs" textLength="83" x="495" y="22.9951">ThreadHost</text><rect fill="#FEFECE" filter="url(#f1ho25csze01qy)" height="30.2969" style="stroke: #A80036; stroke-width: 1.5;" width="97" x="488" y="1499.4063"/><text fill="#000000" font-family="sans-serif" font-size="14" lengthAdjust="spacingAndGlyphs" textLength="83" x="495" y="1519.4014">ThreadHost</text><rect fill="#FEFECE" filter="url(#f1ho25csze01qy)" height="30.2969" style="stroke: #A80036; stroke-width: 1.5;" width="49" x="599" y="3"/><text fill="#000000" font-family="sans-serif" font-size="14" lengthAdjust="spacingAndGlyphs" textLength="35" x="606" y="22.9951">Shell</text><rect fill="#FEFECE" filter="url(#f1ho25csze01qy)" height="30.2969" style="stroke: #A80036; stroke-width: 1.5;" width="49" x="599" y="1499.4063"/><text fill="#000000" font-family="sans-serif" font-size="14" lengthAdjust="spacingAndGlyphs" textLength="35" x="606" y="1519.4014">Shell</text><rect fill="#FEFECE" filter="url(#f1ho25csze01qy)" height="30.2969" style="stroke: #A80036; stroke-width: 1.5;" width="79" x="789" y="3"/><text fill="#000000" font-family="sans-serif" font-size="14" lengthAdjust="spacingAndGlyphs" textLength="65" x="796" y="22.9951">IOThread</text><rect fill="#FEFECE" filter="url(#f1ho25csze01qy)" height="30.2969" style="stroke: #A80036; stroke-width: 1.5;" width="79" x="789" y="1499.4063"/><text fill="#000000" font-family="sans-serif" font-size="14" lengthAdjust="spacingAndGlyphs" textLength="65" x="796" y="1519.4014">IOThread</text><rect fill="#FEFECE" filter="url(#f1ho25csze01qy)" height="30.2969" style="stroke: #A80036; stroke-width: 1.5;" width="93" x="882" y="3"/><text fill="#000000" font-family="sans-serif" font-size="14" lengthAdjust="spacingAndGlyphs" textLength="79" x="889" y="22.9951">GPUThread</text><rect fill="#FEFECE" filter="url(#f1ho25csze01qy)" height="30.2969" style="stroke: #A80036; stroke-width: 1.5;" width="93" x="882" y="1499.4063"/><text fill="#000000" font-family="sans-serif" font-size="14" lengthAdjust="spacingAndGlyphs" textLength="79" x="889" y="1519.4014">GPUThread</text><rect fill="#FEFECE" filter="url(#f1ho25csze01qy)" height="30.2969" style="stroke: #A80036; stroke-width: 1.5;" width="127" x="989" y="3"/><text fill="#000000" font-family="sans-serif" font-size="14" lengthAdjust="spacingAndGlyphs" textLength="113" x="996" y="22.9951">PlatformThread</text><rect fill="#FEFECE" filter="url(#f1ho25csze01qy)" height="30.2969" style="stroke: #A80036; stroke-width: 1.5;" width="127" x="989" y="1499.4063"/><text fill="#000000" font-family="sans-serif" font-size="14" lengthAdjust="spacingAndGlyphs" textLength="113" x="996" y="1519.4014">PlatformThread</text><rect fill="#FEFECE" filter="url(#f1ho25csze01qy)" height="30.2969" style="stroke: #A80036; stroke-width: 1.5;" width="77" x="1130" y="3"/><text fill="#000000" font-family="sans-serif" font-size="14" lengthAdjust="spacingAndGlyphs" textLength="63" x="1137" y="22.9951">UIThread</text><rect fill="#FEFECE" filter="url(#f1ho25csze01qy)" height="30.2969" style="stroke: #A80036; stroke-width: 1.5;" width="77" x="1130" y="1499.4063"/><text fill="#000000" font-family="sans-serif" font-size="14" lengthAdjust="spacingAndGlyphs" textLength="63" x="1137" y="1519.4014">UIThread</text><rect fill="#FEFECE" filter="url(#f1ho25csze01qy)" height="30.2969" style="stroke: #A80036; stroke-width: 1.5;" width="60" x="1221" y="3"/><text fill="#000000" font-family="sans-serif" font-size="14" lengthAdjust="spacingAndGlyphs" textLength="46" x="1228" y="22.9951">Future</text><rect fill="#FEFECE" filter="url(#f1ho25csze01qy)" height="30.2969" style="stroke: #A80036; stroke-width: 1.5;" width="60" x="1221" y="1499.4063"/><text fill="#000000" font-family="sans-serif" font-size="14" lengthAdjust="spacingAndGlyphs" textLength="46" x="1228" y="1519.4014">Future</text><rect fill="#FEFECE" filter="url(#f1ho25csze01qy)" height="30.2969" style="stroke: #A80036; stroke-width: 1.5;" width="63" x="1412.5" y="3"/><text fill="#000000" font-family="sans-serif" font-size="14" lengthAdjust="spacingAndGlyphs" textLength="49" x="1419.5" y="22.9951">Engine</text><rect fill="#FEFECE" filter="url(#f1ho25csze01qy)" height="30.2969" style="stroke: #A80036; stroke-width: 1.5;" width="63" x="1412.5" y="1499.4063"/><text fill="#000000" font-family="sans-serif" font-size="14" lengthAdjust="spacingAndGlyphs" textLength="49" x="1419.5" y="1519.4014">Engine</text><rect fill="#FEFECE" filter="url(#f1ho25csze01qy)" height="30.2969" style="stroke: #A80036; stroke-width: 1.5;" width="120" x="1561" y="3"/><text fill="#000000" font-family="sans-serif" font-size="14" lengthAdjust="spacingAndGlyphs" textLength="106" x="1568" y="22.9951">FontCollection</text><rect fill="#FEFECE" filter="url(#f1ho25csze01qy)" height="30.2969" style="stroke: #A80036; stroke-width: 1.5;" width="120" x="1561" y="1499.4063"/><text fill="#000000" font-family="sans-serif" font-size="14" lengthAdjust="spacingAndGlyphs" textLength="106" x="1568" y="1519.4014">FontCollection</text><rect fill="#FEFECE" filter="url(#f1ho25csze01qy)" height="30.2969" style="stroke: #A80036; stroke-width: 1.5;" width="148" x="1695" y="3"/><text fill="#000000" font-family="sans-serif" font-size="14" lengthAdjust="spacingAndGlyphs" textLength="134" x="1702" y="22.9951">RuntimeController</text><rect fill="#FEFECE" filter="url(#f1ho25csze01qy)" height="30.2969" style="stroke: #A80036; stroke-width: 1.5;" width="148" x="1695" y="1499.4063"/><text fill="#000000" font-family="sans-serif" font-size="14" lengthAdjust="spacingAndGlyphs" textLength="134" x="1702" y="1519.4014">RuntimeController</text><rect fill="#FEFECE" filter="url(#f1ho25csze01qy)" height="30.2969" style="stroke: #A80036; stroke-width: 1.5;" width="94" x="1859" y="3"/><text fill="#000000" font-family="sans-serif" font-size="14" lengthAdjust="spacingAndGlyphs" textLength="80" x="1866" y="22.9951">DartIsolate</text><rect fill="#FEFECE" filter="url(#f1ho25csze01qy)" height="30.2969" style="stroke: #A80036; stroke-width: 1.5;" width="94" x="1859" y="1499.4063"/><text fill="#000000" font-family="sans-serif" font-size="14" lengthAdjust="spacingAndGlyphs" textLength="80" x="1866" y="1519.4014">DartIsolate</text><rect fill="#FEFECE" filter="url(#f1ho25csze01qy)" height="30.2969" style="stroke: #A80036; stroke-width: 1.5;" width="110" x="2021" y="3"/><text fill="#000000" font-family="sans-serif" font-size="14" lengthAdjust="spacingAndGlyphs" textLength="96" x="2028" y="22.9951">DartExecutor</text><rect fill="#FEFECE" filter="url(#f1ho25csze01qy)" height="30.2969" style="stroke: #A80036; stroke-width: 1.5;" width="110" x="2021" y="1499.4063"/><text fill="#000000" font-family="sans-serif" font-size="14" lengthAdjust="spacingAndGlyphs" textLength="96" x="2028" y="1519.4014">DartExecutor</text><rect fill="#FEFECE" filter="url(#f1ho25csze01qy)" height="30.2969" style="stroke: #A80036; stroke-width: 1.5;" width="130" x="2171" y="3"/><text fill="#000000" font-family="sans-serif" font-size="14" lengthAdjust="spacingAndGlyphs" textLength="116" x="2178" y="22.9951">FlutterRenderer</text><rect fill="#FEFECE" filter="url(#f1ho25csze01qy)" height="30.2969" style="stroke: #A80036; stroke-width: 1.5;" width="130" x="2171" y="1499.4063"/><text fill="#000000" font-family="sans-serif" font-size="14" lengthAdjust="spacingAndGlyphs" textLength="116" x="2178" y="1519.4014">FlutterRenderer</text><rect fill="#FEFECE" filter="url(#f1ho25csze01qy)" height="30.2969" style="stroke: #A80036; stroke-width: 1.5;" width="102" x="2315" y="3"/><text fill="#000000" font-family="sans-serif" font-size="14" lengthAdjust="spacingAndGlyphs" textLength="88" x="2322" y="22.9951">XXXChannel</text><rect fill="#FEFECE" filter="url(#f1ho25csze01qy)" height="30.2969" style="stroke: #A80036; stroke-width: 1.5;" width="102" x="2315" y="1499.4063"/><text fill="#000000" font-family="sans-serif" font-size="14" lengthAdjust="spacingAndGlyphs" textLength="88" x="2322" y="1519.4014">XXXChannel</text><rect fill="#FEFECE" filter="url(#f1ho25csze01qy)" height="30.2969" style="stroke: #A80036; stroke-width: 1.5;" width="191" x="2431" y="3"/><text fill="#000000" font-family="sans-serif" font-size="14" lengthAdjust="spacingAndGlyphs" textLength="177" x="2438" y="22.9951">PlatformViewsController</text><rect fill="#FEFECE" filter="url(#f1ho25csze01qy)" height="30.2969" style="stroke: #A80036; stroke-width: 1.5;" width="191" x="2431" y="1499.4063"/><text fill="#000000" font-family="sans-serif" font-size="14" lengthAdjust="spacingAndGlyphs" textLength="177" x="2438" y="1519.4014">PlatformViewsController</text><rect fill="#FEFECE" filter="url(#f1ho25csze01qy)" height="30.2969" style="stroke: #A80036; stroke-width: 1.5;" width="215" x="2636" y="3"/><text fill="#000000" font-family="sans-serif" font-size="14" lengthAdjust="spacingAndGlyphs" textLength="201" x="2643" y="22.9951">FlutterEnginePluginRegistry</text><rect fill="#FEFECE" filter="url(#f1ho25csze01qy)" height="30.2969" style="stroke: #A80036; stroke-width: 1.5;" width="215" x="2636" y="1499.4063"/><text fill="#000000" font-family="sans-serif" font-size="14" lengthAdjust="spacingAndGlyphs" textLength="201" x="2643" y="1519.4014">FlutterEnginePluginRegistry</text><rect fill="#FEFECE" filter="url(#f1ho25csze01qy)" height="30.2969" style="stroke: #A80036; stroke-width: 1.5;" width="210" x="2865" y="3"/><text fill="#000000" font-family="sans-serif" font-size="14" lengthAdjust="spacingAndGlyphs" textLength="196" x="2872" y="22.9951">GeneratedPluginRegistrant</text><rect fill="#FEFECE" filter="url(#f1ho25csze01qy)" height="30.2969" style="stroke: #A80036; stroke-width: 1.5;" width="210" x="2865" y="1499.4063"/><text fill="#000000" font-family="sans-serif" font-size="14" lengthAdjust="spacingAndGlyphs" textLength="196" x="2872" y="1519.4014">GeneratedPluginRegistrant</text><rect fill="#FEFECE" filter="url(#f1ho25csze01qy)" height="30.2969" style="stroke: #A80036; stroke-width: 1.5;" width="202" x="3089" y="3"/><text fill="#000000" font-family="sans-serif" font-size="14" lengthAdjust="spacingAndGlyphs" textLength="188" x="3096" y="22.9951">platform_view_android_jni</text><rect fill="#FEFECE" filter="url(#f1ho25csze01qy)" height="30.2969" style="stroke: #A80036; stroke-width: 1.5;" width="202" x="3089" y="1499.4063"/><text fill="#000000" font-family="sans-serif" font-size="14" lengthAdjust="spacingAndGlyphs" textLength="188" x="3096" y="1519.4014">platform_view_android_jni</text><rect fill="#FEFECE" filter="url(#f1ho25csze01qy)" height="30.2969" style="stroke: #A80036; stroke-width: 1.5;" width="111" x="3305" y="3"/><text fill="#000000" font-family="sans-serif" font-size="14" lengthAdjust="spacingAndGlyphs" textLength="97" x="3312" y="22.9951">isolate_patch</text><rect fill="#FEFECE" filter="url(#f1ho25csze01qy)" height="30.2969" style="stroke: #A80036; stroke-width: 1.5;" width="111" x="3305" y="1499.4063"/><text fill="#000000" font-family="sans-serif" font-size="14" lengthAdjust="spacingAndGlyphs" textLength="97" x="3312" y="1519.4014">isolate_patch</text><rect fill="#FEFECE" filter="url(#f1ho25csze01qy)" height="30.2969" style="stroke: #A80036; stroke-width: 1.5;" width="81" x="3430" y="3"/><text fill="#000000" font-family="sans-serif" font-size="14" lengthAdjust="spacingAndGlyphs" textLength="67" x="3437" y="22.9951">mainDart</text><rect fill="#FEFECE" filter="url(#f1ho25csze01qy)" height="30.2969" style="stroke: #A80036; stroke-width: 1.5;" width="81" x="3430" y="1499.4063"/><text fill="#000000" font-family="sans-serif" font-size="14" lengthAdjust="spacingAndGlyphs" textLength="67" x="3437" y="1519.4014">mainDart</text><line style="stroke: #A80036; stroke-width: 1.0;" x1="66" x2="108" y1="69.4297" y2="69.4297"/><line style="stroke: #A80036; stroke-width: 1.0;" x1="108" x2="108" y1="69.4297" y2="82.4297"/><line style="stroke: #A80036; stroke-width: 1.0;" x1="67" x2="108" y1="82.4297" y2="82.4297"/><polygon fill="#A80036" points="77,78.4297,67,82.4297,77,86.4297,73,82.4297" style="stroke: #A80036; stroke-width: 1.0;"/><text fill="#000000" font-family="sans-serif" font-size="13" lengthAdjust="spacingAndGlyphs" textLength="102" x="73" y="64.3638">startInitalization</text><line style="stroke: #A80036; stroke-width: 1.0;" x1="66" x2="108" y1="111.5625" y2="111.5625"/><line style="stroke: #A80036; stroke-width: 1.0;" x1="108" x2="108" y1="111.5625" y2="124.5625"/><line style="stroke: #A80036; stroke-width: 1.0;" x1="67" x2="108" y1="124.5625" y2="124.5625"/><polygon fill="#A80036" points="77,120.5625,67,124.5625,77,128.5625,73,124.5625" style="stroke: #A80036; stroke-width: 1.0;"/><text fill="#000000" font-family="sans-serif" font-size="13" lengthAdjust="spacingAndGlyphs" textLength="159" x="73" y="106.4966">ensureInizationComplete</text><polygon fill="#A80036" points="227,149.6953,237,153.6953,227,157.6953,231,153.6953" style="stroke: #A80036; stroke-width: 1.0;"/><line style="stroke: #A80036; stroke-width: 1.0;" x1="66" x2="233" y1="153.6953" y2="153.6953"/><text fill="#000000" font-family="sans-serif" font-size="13" lengthAdjust="spacingAndGlyphs" textLength="98" x="73" y="148.6294">attachToNative</text><polygon fill="#A80036" points="388,178.8281,398,182.8281,388,186.8281,392,182.8281" style="stroke: #A80036; stroke-width: 1.0;"/><line style="stroke: #A80036; stroke-width: 1.0;" x1="239" x2="394" y1="182.8281" y2="182.8281"/><text fill="#000000" font-family="sans-serif" font-size="13" lengthAdjust="spacingAndGlyphs" textLength="81" x="246" y="177.7622">newInstance</text><polygon fill="#A80036" points="526.5,207.9609,536.5,211.9609,526.5,215.9609,530.5,211.9609" style="stroke: #A80036; stroke-width: 1.0;"/><line style="stroke: #A80036; stroke-width: 1.0;" x1="400" x2="532.5" y1="211.9609" y2="211.9609"/><text fill="#000000" font-family="sans-serif" font-size="13" lengthAdjust="spacingAndGlyphs" textLength="86" x="407" y="206.895">createThreda</text><polygon fill="#A80036" points="613.5,237.0938,623.5,241.0938,613.5,245.0938,617.5,241.0938" style="stroke: #A80036; stroke-width: 1.0;"/><line style="stroke: #A80036; stroke-width: 1.0;" x1="400" x2="619.5" y1="241.0938" y2="241.0938"/><text fill="#000000" font-family="sans-serif" font-size="13" lengthAdjust="spacingAndGlyphs" textLength="43" x="407" y="236.0278">Create</text><line style="stroke: #A80036; stroke-width: 1.0;" x1="625.5" x2="667.5" y1="270.2266" y2="270.2266"/><line style="stroke: #A80036; stroke-width: 1.0;" x1="667.5" x2="667.5" y1="270.2266" y2="283.2266"/><line style="stroke: #A80036; stroke-width: 1.0;" x1="626.5" x2="667.5" y1="283.2266" y2="283.2266"/><polygon fill="#A80036" points="636.5,279.2266,626.5,283.2266,636.5,287.2266,632.5,283.2266" style="stroke: #A80036; stroke-width: 1.0;"/><text fill="#000000" font-family="sans-serif" font-size="13" lengthAdjust="spacingAndGlyphs" textLength="191" x="632.5" y="265.1606">CreateShellOnPlatformThread</text><polygon fill="#A80036" points="818.5,308.3594,828.5,312.3594,818.5,316.3594,822.5,312.3594" style="stroke: #A80036; stroke-width: 1.0;"/><line style="stroke: #A80036; stroke-width: 1.0;" x1="625.5" x2="824.5" y1="312.3594" y2="312.3594"/><text fill="#000000" font-family="sans-serif" font-size="13" lengthAdjust="spacingAndGlyphs" textLength="160" x="632.5" y="307.2935">create_shell_io_manager</text><polygon fill="#A80036" points="918.5,337.4922,928.5,341.4922,918.5,345.4922,922.5,341.4922" style="stroke: #A80036; stroke-width: 1.0;"/><line style="stroke: #A80036; stroke-width: 1.0;" x1="625.5" x2="924.5" y1="341.4922" y2="341.4922"/><text fill="#000000" font-family="sans-serif" font-size="13" lengthAdjust="spacingAndGlyphs" textLength="109" x="632.5" y="336.4263">create_rasterizer</text><polygon fill="#A80036" points="1042.5,366.625,1052.5,370.625,1042.5,374.625,1046.5,370.625" style="stroke: #A80036; stroke-width: 1.0;"/><line style="stroke: #A80036; stroke-width: 1.0;" x1="625.5" x2="1048.5" y1="370.625" y2="370.625"/><text fill="#000000" font-family="sans-serif" font-size="13" lengthAdjust="spacingAndGlyphs" textLength="140" x="632.5" y="365.5591">create_platform_view</text><polygon fill="#A80036" points="1158.5,395.7578,1168.5,399.7578,1158.5,403.7578,1162.5,399.7578" style="stroke: #A80036; stroke-width: 1.0;"/><line style="stroke: #A80036; stroke-width: 1.0;" x1="625.5" x2="1164.5" y1="399.7578" y2="399.7578"/><text fill="#000000" font-family="sans-serif" font-size="13" lengthAdjust="spacingAndGlyphs" textLength="84" x="632.5" y="394.6919">createEngine</text><polygon fill="#A80036" points="1241,424.8906,1251,428.8906,1241,432.8906,1245,428.8906" style="stroke: #A80036; stroke-width: 1.0;"/><line style="stroke: #A80036; stroke-width: 1.0;" x1="625.5" x2="1247" y1="428.8906" y2="428.8906"/><text fill="#000000" font-family="sans-serif" font-size="13" lengthAdjust="spacingAndGlyphs" textLength="110" x="632.5" y="423.8247">shell_future.get()</text><polygon fill="#A80036" points="1434,454.0234,1444,458.0234,1434,462.0234,1438,458.0234" style="stroke: #A80036; stroke-width: 1.0;"/><line style="stroke: #A80036; stroke-width: 1.0;" x1="1170.5" x2="1440" y1="458.0234" y2="458.0234"/><text fill="#000000" font-family="sans-serif" font-size="13" lengthAdjust="spacingAndGlyphs" textLength="19" x="1177.5" y="452.9575">init</text><polygon fill="#A80036" points="1264,483.1563,1254,487.1563,1264,491.1563,1260,487.1563" style="stroke: #A80036; stroke-width: 1.0;"/><line style="stroke: #A80036; stroke-width: 1.0;" x1="1258" x2="1445" y1="487.1563" y2="487.1563"/><text fill="#000000" font-family="sans-serif" font-size="13" lengthAdjust="spacingAndGlyphs" textLength="157" x="1270" y="482.0903">io_manager_future.get()</text><polygon fill="#A80036" points="1264,512.2891,1254,516.2891,1264,520.2891,1260,516.2891" style="stroke: #A80036; stroke-width: 1.0;"/><line style="stroke: #A80036; stroke-width: 1.0;" x1="1258" x2="1445" y1="516.2891" y2="516.2891"/><text fill="#000000" font-family="sans-serif" font-size="13" lengthAdjust="spacingAndGlyphs" textLength="119" x="1270" y="511.2231">raster_future.get()</text><polygon fill="#A80036" points="1611,556.5547,1621,560.5547,1611,564.5547,1615,560.5547" style="stroke: #A80036; stroke-width: 1.0;"/><line style="stroke: #A80036; stroke-width: 1.0;" x1="1446" x2="1617" y1="560.5547" y2="560.5547"/><text fill="#000000" font-family="sans-serif" font-size="13" lengthAdjust="spacingAndGlyphs" textLength="109" x="1453" y="540.356">initFontCollection</text><text fill="#000000" font-family="sans-serif" font-size="13" lengthAdjust="spacingAndGlyphs" textLength="56" x="1457" y="555.4888">timecost</text><polygon fill="#A80036" points="1759,585.6875,1769,589.6875,1759,593.6875,1763,589.6875" style="stroke: #A80036; stroke-width: 1.0;"/><line style="stroke: #A80036; stroke-width: 1.0;" x1="1446" x2="1765" y1="589.6875" y2="589.6875"/><text fill="#000000" font-family="sans-serif" font-size="13" lengthAdjust="spacingAndGlyphs" textLength="19" x="1453" y="584.6216">init</text><polygon fill="#A80036" points="1896,614.8203,1906,618.8203,1896,622.8203,1900,618.8203" style="stroke: #A80036; stroke-width: 1.0;"/><line style="stroke: #A80036; stroke-width: 1.0;" x1="1771" x2="1902" y1="618.8203" y2="618.8203"/><text fill="#000000" font-family="sans-serif" font-size="13" lengthAdjust="spacingAndGlyphs" textLength="113" x="1778" y="613.7544">createRootIsolate</text><line style="stroke: #A80036; stroke-width: 1.0;" x1="1908" x2="1950" y1="663.0859" y2="663.0859"/><line style="stroke: #A80036; stroke-width: 1.0;" x1="1950" x2="1950" y1="663.0859" y2="676.0859"/><line style="stroke: #A80036; stroke-width: 1.0;" x1="1909" x2="1950" y1="676.0859" y2="676.0859"/><polygon fill="#A80036" points="1919,672.0859,1909,676.0859,1919,680.0859,1915,676.0859" style="stroke: #A80036; stroke-width: 1.0;"/><text fill="#000000" font-family="sans-serif" font-size="13" lengthAdjust="spacingAndGlyphs" textLength="90" x="1915" y="642.8872">CreateDartVM</text><text fill="#000000" font-family="sans-serif" font-size="13" lengthAdjust="spacingAndGlyphs" textLength="156" x="1915" y="658.02">AndEmbedderObjectPair</text><polygon fill="#A80036" points="1264,701.2188,1254,705.2188,1264,709.2188,1260,705.2188" style="stroke: #A80036; stroke-width: 1.0;"/><line style="stroke: #A80036; stroke-width: 1.0;" x1="1258" x2="1445" y1="705.2188" y2="705.2188"/><text fill="#000000" font-family="sans-serif" font-size="13" lengthAdjust="spacingAndGlyphs" textLength="169" x="1270" y="700.1528">shell_promise.set_value();</text><polygon fill="#A80036" points="636.5,730.3516,626.5,734.3516,636.5,738.3516,632.5,734.3516" style="stroke: #A80036; stroke-width: 1.0;"/><line style="stroke: #A80036; stroke-width: 1.0;" x1="630.5" x2="1252" y1="734.3516" y2="734.3516"/><text fill="#000000" font-family="sans-serif" font-size="13" lengthAdjust="spacingAndGlyphs" textLength="39" x="642.5" y="729.2856">return</text><polygon fill="#A80036" points="411,759.4844,401,763.4844,411,767.4844,407,763.4844" style="stroke: #A80036; stroke-width: 1.0;"/><line style="stroke: #A80036; stroke-width: 1.0;" x1="405" x2="624.5" y1="763.4844" y2="763.4844"/><text fill="#000000" font-family="sans-serif" font-size="13" lengthAdjust="spacingAndGlyphs" textLength="39" x="417" y="758.4185">return</text><polygon fill="#A80036" points="250,788.6172,240,792.6172,250,796.6172,246,792.6172" style="stroke: #A80036; stroke-width: 1.0;"/><line style="stroke: #A80036; stroke-width: 1.0;" x1="244" x2="399" y1="792.6172" y2="792.6172"/><text fill="#000000" font-family="sans-serif" font-size="13" lengthAdjust="spacingAndGlyphs" textLength="137" x="256" y="787.5513">nativePlatformViewId</text><polygon fill="#A80036" points="2066,817.75,2076,821.75,2066,825.75,2070,821.75" style="stroke: #A80036; stroke-width: 1.0;"/><line style="stroke: #A80036; stroke-width: 1.0;" x1="66" x2="2072" y1="821.75" y2="821.75"/><text fill="#000000" font-family="sans-serif" font-size="13" lengthAdjust="spacingAndGlyphs" textLength="81" x="73" y="816.6841">newInstance</text><line style="stroke: #A80036; stroke-width: 1.0;" x1="2078" x2="2120" y1="850.8828" y2="850.8828"/><line style="stroke: #A80036; stroke-width: 1.0;" x1="2120" x2="2120" y1="850.8828" y2="863.8828"/><line style="stroke: #A80036; stroke-width: 1.0;" x1="2079" x2="2120" y1="863.8828" y2="863.8828"/><polygon fill="#A80036" points="2089,859.8828,2079,863.8828,2089,867.8828,2085,863.8828" style="stroke: #A80036; stroke-width: 1.0;"/><text fill="#000000" font-family="sans-serif" font-size="13" lengthAdjust="spacingAndGlyphs" textLength="106" x="2085" y="845.8169">onAttachedToJNI</text><polygon fill="#A80036" points="2226,889.0156,2236,893.0156,2226,897.0156,2230,893.0156" style="stroke: #A80036; stroke-width: 1.0;"/><line style="stroke: #A80036; stroke-width: 1.0;" x1="66" x2="2232" y1="893.0156" y2="893.0156"/><text fill="#000000" font-family="sans-serif" font-size="13" lengthAdjust="spacingAndGlyphs" textLength="81" x="73" y="887.9497">newInstance</text><polygon fill="#A80036" points="2356,918.1484,2366,922.1484,2356,926.1484,2360,922.1484" style="stroke: #A80036; stroke-width: 1.0;"/><line style="stroke: #A80036; stroke-width: 1.0;" x1="66" x2="2362" y1="922.1484" y2="922.1484"/><text fill="#000000" font-family="sans-serif" font-size="13" lengthAdjust="spacingAndGlyphs" textLength="19" x="73" y="917.0825">init</text><polygon fill="#A80036" points="2516.5,947.2813,2526.5,951.2813,2516.5,955.2813,2520.5,951.2813" style="stroke: #A80036; stroke-width: 1.0;"/><line style="stroke: #A80036; stroke-width: 1.0;" x1="66" x2="2522.5" y1="951.2813" y2="951.2813"/><text fill="#000000" font-family="sans-serif" font-size="13" lengthAdjust="spacingAndGlyphs" textLength="19" x="73" y="946.2153">init</text><line style="stroke: #A80036; stroke-width: 1.0;" x1="2528.5" x2="2570.5" y1="980.4141" y2="980.4141"/><line style="stroke: #A80036; stroke-width: 1.0;" x1="2570.5" x2="2570.5" y1="980.4141" y2="993.4141"/><line style="stroke: #A80036; stroke-width: 1.0;" x1="2529.5" x2="2570.5" y1="993.4141" y2="993.4141"/><polygon fill="#A80036" points="2539.5,989.4141,2529.5,993.4141,2539.5,997.4141,2535.5,993.4141" style="stroke: #A80036; stroke-width: 1.0;"/><text fill="#000000" font-family="sans-serif" font-size="13" lengthAdjust="spacingAndGlyphs" textLength="106" x="2535.5" y="975.3481">onAttachedToJNI</text><polygon fill="#A80036" points="2733.5,1018.5469,2743.5,1022.5469,2733.5,1026.5469,2737.5,1022.5469" style="stroke: #A80036; stroke-width: 1.0;"/><line style="stroke: #A80036; stroke-width: 1.0;" x1="66" x2="2739.5" y1="1022.5469" y2="1022.5469"/><text fill="#000000" font-family="sans-serif" font-size="13" lengthAdjust="spacingAndGlyphs" textLength="19" x="73" y="1017.481">init</text><line style="stroke: #A80036; stroke-width: 1.0;" x1="66" x2="108" y1="1051.6797" y2="1051.6797"/><line style="stroke: #A80036; stroke-width: 1.0;" x1="108" x2="108" y1="1051.6797" y2="1064.6797"/><line style="stroke: #A80036; stroke-width: 1.0;" x1="67" x2="108" y1="1064.6797" y2="1064.6797"/><polygon fill="#A80036" points="77,1060.6797,67,1064.6797,77,1068.6797,73,1064.6797" style="stroke: #A80036; stroke-width: 1.0;"/><text fill="#000000" font-family="sans-serif" font-size="13" lengthAdjust="spacingAndGlyphs" textLength="94" x="73" y="1046.6138">registerPlugins</text><polygon fill="#A80036" points="2960,1089.8125,2970,1093.8125,2960,1097.8125,2964,1093.8125" style="stroke: #A80036; stroke-width: 1.0;"/><line style="stroke: #A80036; stroke-width: 1.0;" x1="66" x2="2966" y1="1093.8125" y2="1093.8125"/><text fill="#000000" font-family="sans-serif" font-size="13" lengthAdjust="spacingAndGlyphs" textLength="78" x="73" y="1088.7466">registerWith</text><line style="stroke: #A80036; stroke-width: 1.0;" x1="2078" x2="2120" y1="1122.9453" y2="1122.9453"/><line style="stroke: #A80036; stroke-width: 1.0;" x1="2120" x2="2120" y1="1122.9453" y2="1135.9453"/><line style="stroke: #A80036; stroke-width: 1.0;" x1="2079" x2="2120" y1="1135.9453" y2="1135.9453"/><polygon fill="#A80036" points="2089,1131.9453,2079,1135.9453,2089,1139.9453,2085,1135.9453" style="stroke: #A80036; stroke-width: 1.0;"/><text fill="#000000" font-family="sans-serif" font-size="13" lengthAdjust="spacingAndGlyphs" textLength="146" x="2085" y="1117.8794">executeDartEntrypoint</text><polygon fill="#A80036" points="250,1161.0781,240,1165.0781,250,1169.0781,246,1165.0781" style="stroke: #A80036; stroke-width: 1.0;"/><line style="stroke: #A80036; stroke-width: 1.0;" x1="244" x2="2077" y1="1165.0781" y2="1165.0781"/><text fill="#000000" font-family="sans-serif" font-size="13" lengthAdjust="spacingAndGlyphs" textLength="226" x="256" y="1160.0122">runBundleAndSnapshotFromLibrary</text><polygon fill="#A80036" points="3180,1190.2109,3190,1194.2109,3180,1198.2109,3184,1194.2109" style="stroke: #A80036; stroke-width: 1.0;"/><line style="stroke: #A80036; stroke-width: 1.0;" x1="239" x2="3186" y1="1194.2109" y2="1194.2109"/><text fill="#000000" font-family="sans-serif" font-size="13" lengthAdjust="spacingAndGlyphs" textLength="230" x="246" y="1189.145">RunBundleAndSnapshotFromLibrary</text><polygon fill="#A80036" points="411,1219.3438,401,1223.3438,411,1227.3438,407,1223.3438" style="stroke: #A80036; stroke-width: 1.0;"/><line style="stroke: #A80036; stroke-width: 1.0;" x1="405" x2="3191" y1="1223.3438" y2="1223.3438"/><text fill="#000000" font-family="sans-serif" font-size="13" lengthAdjust="spacingAndGlyphs" textLength="46" x="417" y="1218.2778">Launch</text><polygon fill="#A80036" points="613.5,1248.4766,623.5,1252.4766,613.5,1256.4766,617.5,1252.4766" style="stroke: #A80036; stroke-width: 1.0;"/><line style="stroke: #A80036; stroke-width: 1.0;" x1="400" x2="619.5" y1="1252.4766" y2="1252.4766"/><text fill="#000000" font-family="sans-serif" font-size="13" lengthAdjust="spacingAndGlyphs" textLength="68" x="407" y="1247.4106">RunEngine</text><polygon fill="#A80036" points="1158.5,1277.6094,1168.5,1281.6094,1158.5,1285.6094,1162.5,1281.6094" style="stroke: #A80036; stroke-width: 1.0;"/><line style="stroke: #A80036; stroke-width: 1.0;" x1="625.5" x2="1164.5" y1="1281.6094" y2="1281.6094"/><text fill="#000000" font-family="sans-serif" font-size="13" lengthAdjust="spacingAndGlyphs" textLength="28" x="632.5" y="1276.5435">post</text><polygon fill="#A80036" points="1434,1306.7422,1444,1310.7422,1434,1314.7422,1438,1310.7422" style="stroke: #A80036; stroke-width: 1.0;"/><line style="stroke: #A80036; stroke-width: 1.0;" x1="1170.5" x2="1440" y1="1310.7422" y2="1310.7422"/><text fill="#000000" font-family="sans-serif" font-size="13" lengthAdjust="spacingAndGlyphs" textLength="21" x="1177.5" y="1305.6763">run</text><line style="stroke: #A80036; stroke-width: 1.0;" x1="1446" x2="1488" y1="1339.875" y2="1339.875"/><line style="stroke: #A80036; stroke-width: 1.0;" x1="1488" x2="1488" y1="1339.875" y2="1352.875"/><line style="stroke: #A80036; stroke-width: 1.0;" x1="1447" x2="1488" y1="1352.875" y2="1352.875"/><polygon fill="#A80036" points="1457,1348.875,1447,1352.875,1457,1356.875,1453,1352.875" style="stroke: #A80036; stroke-width: 1.0;"/><text fill="#000000" font-family="sans-serif" font-size="13" lengthAdjust="spacingAndGlyphs" textLength="163" x="1453" y="1334.8091">PrepareAndLaunchIsolate</text><polygon fill="#A80036" points="1896,1378.0078,1906,1382.0078,1896,1386.0078,1900,1382.0078" style="stroke: #A80036; stroke-width: 1.0;"/><line style="stroke: #A80036; stroke-width: 1.0;" x1="1446" x2="1902" y1="1382.0078" y2="1382.0078"/><text fill="#000000" font-family="sans-serif" font-size="13" lengthAdjust="spacingAndGlyphs" textLength="102" x="1453" y="1376.9419">RunFromLibrary</text><line style="stroke: #A80036; stroke-width: 1.0;" x1="1908" x2="1950" y1="1411.1406" y2="1411.1406"/><line style="stroke: #A80036; stroke-width: 1.0;" x1="1950" x2="1950" y1="1411.1406" y2="1424.1406"/><line style="stroke: #A80036; stroke-width: 1.0;" x1="1909" x2="1950" y1="1424.1406" y2="1424.1406"/><polygon fill="#A80036" points="1919,1420.1406,1909,1424.1406,1919,1428.1406,1915,1424.1406" style="stroke: #A80036; stroke-width: 1.0;"/><text fill="#000000" font-family="sans-serif" font-size="13" lengthAdjust="spacingAndGlyphs" textLength="137" x="1915" y="1406.0747">InvokeMainEntrypoint</text><polygon fill="#A80036" points="3350.5,1449.2734,3360.5,1453.2734,3350.5,1457.2734,3354.5,1453.2734" style="stroke: #A80036; stroke-width: 1.0;"/><line style="stroke: #A80036; stroke-width: 1.0;" x1="1908" x2="3356.5" y1="1453.2734" y2="1453.2734"/><text fill="#000000" font-family="sans-serif" font-size="13" lengthAdjust="spacingAndGlyphs" textLength="99" x="1915" y="1448.2075">_runMainZoned</text><polygon fill="#A80036" points="3460.5,1478.4063,3470.5,1482.4063,3460.5,1486.4063,3464.5,1482.4063" style="stroke: #A80036; stroke-width: 1.0;"/><line style="stroke: #A80036; stroke-width: 1.0;" x1="3362.5" x2="3466.5" y1="1482.4063" y2="1482.4063"/><text fill="#000000" font-family="sans-serif" font-size="13" lengthAdjust="spacingAndGlyphs" textLength="32" x="3369.5" y="1477.3403">main</text><!--MD5=[08d3e8201d0405891ebf3e07cd002a7b]
@startuml
FlutterEngine -> FlutterEngine : startInitalization

FlutterEngine ->  FlutterEngine: ensureInizationComplete

FlutterEngine -> FlutterJNI : attachToNative

FlutterJNI -> AndroidShellHolder : newInstance

AndroidShellHolder -> ThreadHost : createThreda

AndroidShellHolder -> Shell : Create

Shell -> Shell : CreateShellOnPlatformThread

Shell -> IOThread : create_shell_io_manager

Shell -> GPUThread : create_rasterizer

Shell -> PlatformThread: create_platform_view

Shell -> UIThread : createEngine

Shell -> Future:  shell_future.get()

UIThread -> Engine: init

Engine -> Future: io_manager_future.get()

Engine -> Future: raster_future.get()

Engine -> FontCollection: initFontCollection \n timecost

Engine -> RuntimeController : init

RuntimeController-> DartIsolate: createRootIsolate

DartIsolate -> DartIsolate : CreateDartVM\nAndEmbedderObjectPair

Engine -> Future: shell_promise.set_value();

Future-> Shell : return

Shell -> AndroidShellHolder: return

AndroidShellHolder -> FlutterJNI: nativePlatformViewId

FlutterEngine -> DartExecutor : newInstance

DartExecutor-> DartExecutor:onAttachedToJNI
FlutterEngine-> FlutterRenderer:newInstance
FlutterEngine -> XXXChannel : init

FlutterEngine ->  PlatformViewsController :init

PlatformViewsController -> PlatformViewsController:onAttachedToJNI

FlutterEngine ->FlutterEnginePluginRegistry: init

FlutterEngine -> FlutterEngine:registerPlugins

FlutterEngine -> GeneratedPluginRegistrant:registerWith

DartExecutor->DartExecutor:executeDartEntrypoint

DartExecutor->FlutterJNI:runBundleAndSnapshotFromLibrary

FlutterJNI -> platform_view_android_jni:RunBundleAndSnapshotFromLibrary

platform_view_android_jni->AndroidShellHolder:Launch

AndroidShellHolder->Shell:RunEngine

Shell->UIThread:post

UIThread->Engine:run

Engine->Engine:PrepareAndLaunchIsolate

Engine->DartIsolate:RunFromLibrary

DartIsolate->DartIsolate:InvokeMainEntrypoint

DartIsolate->isolate_patch:_runMainZoned
isolate_patch->mainDart:main
@enduml

PlantUML version 1.2020.10(Sun May 17 09:35:57 UTC 2020)
(GPL source distribution)
Java Runtime: Java(TM) SE Runtime Environment
JVM: Java HotSpot(TM) 64-Bit Server VM
Java Version: 14.0.1+7
Operating System: Linux
Default Encoding: UTF-8
Language: en
Country: US
--></g></svg>