<?xml version="1.0" encoding="UTF-8" standalone="no"?><svg xmlns="http://www.w3.org/2000/svg" xmlns:xlink="http://www.w3.org/1999/xlink" contentScriptType="application/ecmascript" contentStyleType="text/css" height="532px" preserveAspectRatio="none" style="width:1292px;height:532px;" version="1.1" viewBox="0 0 1292 532" width="1292px" zoomAndPan="magnify"><defs><filter height="300%" id="f1ev5s9tp9iyet" width="300%" x="-1" y="-1"><feGaussianBlur result="blurOut" stdDeviation="2.0"/><feColorMatrix in="blurOut" result="blurOut2" type="matrix" values="0 0 0 0 0 0 0 0 0 0 0 0 0 0 0 0 0 0 .4 0"/><feOffset dx="4.0" dy="4.0" in="blurOut2" result="blurOut3"/><feBlend in="SourceGraphic" in2="blurOut3" mode="normal"/></filter></defs><g><line style="stroke: #A80036; stroke-width: 1.0; stroke-dasharray: 5.0,5.0;" x1="54" x2="54" y1="38.2969" y2="492.1563"/><line style="stroke: #A80036; stroke-width: 1.0; stroke-dasharray: 5.0,5.0;" x1="167" x2="167" y1="38.2969" y2="492.1563"/><line style="stroke: #A80036; stroke-width: 1.0; stroke-dasharray: 5.0,5.0;" x1="275" x2="275" y1="38.2969" y2="492.1563"/><line style="stroke: #A80036; stroke-width: 1.0; stroke-dasharray: 5.0,5.0;" x1="426" x2="426" y1="38.2969" y2="492.1563"/><line style="stroke: #A80036; stroke-width: 1.0; stroke-dasharray: 5.0,5.0;" x1="575" x2="575" y1="38.2969" y2="492.1563"/><line style="stroke: #A80036; stroke-width: 1.0; stroke-dasharray: 5.0,5.0;" x1="689" x2="689" y1="38.2969" y2="492.1563"/><line style="stroke: #A80036; stroke-width: 1.0; stroke-dasharray: 5.0,5.0;" x1="802" x2="802" y1="38.2969" y2="492.1563"/><line style="stroke: #A80036; stroke-width: 1.0; stroke-dasharray: 5.0,5.0;" x1="914" x2="914" y1="38.2969" y2="492.1563"/><line style="stroke: #A80036; stroke-width: 1.0; stroke-dasharray: 5.0,5.0;" x1="1045" x2="1045" y1="38.2969" y2="492.1563"/><line style="stroke: #A80036; stroke-width: 1.0; stroke-dasharray: 5.0,5.0;" x1="1209" x2="1209" y1="38.2969" y2="492.1563"/><rect fill="#FEFECE" filter="url(#f1ev5s9tp9iyet)" height="30.2969" style="stroke: #A80036; stroke-width: 1.5;" width="88" x="8" y="3"/><text fill="#000000" font-family="sans-serif" font-size="14" lengthAdjust="spacingAndGlyphs" textLength="74" x="15" y="22.9951">Rasterizer</text><rect fill="#FEFECE" filter="url(#f1ev5s9tp9iyet)" height="30.2969" style="stroke: #A80036; stroke-width: 1.5;" width="88" x="8" y="491.1563"/><text fill="#000000" font-family="sans-serif" font-size="14" lengthAdjust="spacingAndGlyphs" textLength="74" x="15" y="511.1514">Rasterizer</text><rect fill="#FEFECE" filter="url(#f1ev5s9tp9iyet)" height="30.2969" style="stroke: #A80036; stroke-width: 1.5;" width="72" x="129" y="3"/><text fill="#000000" font-family="sans-serif" font-size="14" lengthAdjust="spacingAndGlyphs" textLength="58" x="136" y="22.9951">Pipeline</text><rect fill="#FEFECE" filter="url(#f1ev5s9tp9iyet)" height="30.2969" style="stroke: #A80036; stroke-width: 1.5;" width="72" x="129" y="491.1563"/><text fill="#000000" font-family="sans-serif" font-size="14" lengthAdjust="spacingAndGlyphs" textLength="58" x="136" y="511.1514">Pipeline</text><rect fill="#FEFECE" filter="url(#f1ev5s9tp9iyet)" height="30.2969" style="stroke: #A80036; stroke-width: 1.5;" width="116" x="215" y="3"/><text fill="#000000" font-family="sans-serif" font-size="14" lengthAdjust="spacingAndGlyphs" textLength="102" x="222" y="22.9951">GPUSurfaceGL</text><rect fill="#FEFECE" filter="url(#f1ev5s9tp9iyet)" height="30.2969" style="stroke: #A80036; stroke-width: 1.5;" width="116" x="215" y="491.1563"/><text fill="#000000" font-family="sans-serif" font-size="14" lengthAdjust="spacingAndGlyphs" textLength="102" x="222" y="511.1514">GPUSurfaceGL</text><rect fill="#FEFECE" filter="url(#f1ev5s9tp9iyet)" height="30.2969" style="stroke: #A80036; stroke-width: 1.5;" width="158" x="345" y="3"/><text fill="#000000" font-family="sans-serif" font-size="14" lengthAdjust="spacingAndGlyphs" textLength="144" x="352" y="22.9951">CompositorContext</text><rect fill="#FEFECE" filter="url(#f1ev5s9tp9iyet)" height="30.2969" style="stroke: #A80036; stroke-width: 1.5;" width="158" x="345" y="491.1563"/><text fill="#000000" font-family="sans-serif" font-size="14" lengthAdjust="spacingAndGlyphs" textLength="144" x="352" y="511.1514">CompositorContext</text><rect fill="#FEFECE" filter="url(#f1ev5s9tp9iyet)" height="30.2969" style="stroke: #A80036; stroke-width: 1.5;" width="113" x="517" y="3"/><text fill="#000000" font-family="sans-serif" font-size="14" lengthAdjust="spacingAndGlyphs" textLength="99" x="524" y="22.9951">ScopedFrame</text><rect fill="#FEFECE" filter="url(#f1ev5s9tp9iyet)" height="30.2969" style="stroke: #A80036; stroke-width: 1.5;" width="113" x="517" y="491.1563"/><text fill="#000000" font-family="sans-serif" font-size="14" lengthAdjust="spacingAndGlyphs" textLength="99" x="524" y="511.1514">ScopedFrame</text><rect fill="#FEFECE" filter="url(#f1ev5s9tp9iyet)" height="30.2969" style="stroke: #A80036; stroke-width: 1.5;" width="86" x="644" y="3"/><text fill="#000000" font-family="sans-serif" font-size="14" lengthAdjust="spacingAndGlyphs" textLength="72" x="651" y="22.9951">LayerTree</text><rect fill="#FEFECE" filter="url(#f1ev5s9tp9iyet)" height="30.2969" style="stroke: #A80036; stroke-width: 1.5;" width="86" x="644" y="491.1563"/><text fill="#000000" font-family="sans-serif" font-size="14" lengthAdjust="spacingAndGlyphs" textLength="72" x="651" y="511.1514">LayerTree</text><rect fill="#FEFECE" filter="url(#f1ev5s9tp9iyet)" height="30.2969" style="stroke: #A80036; stroke-width: 1.5;" width="113" x="744" y="3"/><text fill="#000000" font-family="sans-serif" font-size="14" lengthAdjust="spacingAndGlyphs" textLength="99" x="751" y="22.9951">SurfaceFrame</text><rect fill="#FEFECE" filter="url(#f1ev5s9tp9iyet)" height="30.2969" style="stroke: #A80036; stroke-width: 1.5;" width="113" x="744" y="491.1563"/><text fill="#000000" font-family="sans-serif" font-size="14" lengthAdjust="spacingAndGlyphs" textLength="99" x="751" y="511.1514">SurfaceFrame</text><rect fill="#FEFECE" filter="url(#f1ev5s9tp9iyet)" height="30.2969" style="stroke: #A80036; stroke-width: 1.5;" width="82" x="871" y="3"/><text fill="#000000" font-family="sans-serif" font-size="14" lengthAdjust="spacingAndGlyphs" textLength="68" x="878" y="22.9951">SkCanvas</text><rect fill="#FEFECE" filter="url(#f1ev5s9tp9iyet)" height="30.2969" style="stroke: #A80036; stroke-width: 1.5;" width="82" x="871" y="491.1563"/><text fill="#000000" font-family="sans-serif" font-size="14" lengthAdjust="spacingAndGlyphs" textLength="68" x="878" y="511.1514">SkCanvas</text><rect fill="#FEFECE" filter="url(#f1ev5s9tp9iyet)" height="30.2969" style="stroke: #A80036; stroke-width: 1.5;" width="152" x="967" y="3"/><text fill="#000000" font-family="sans-serif" font-size="14" lengthAdjust="spacingAndGlyphs" textLength="138" x="974" y="22.9951">AnddroidSurfaceGL</text><rect fill="#FEFECE" filter="url(#f1ev5s9tp9iyet)" height="30.2969" style="stroke: #A80036; stroke-width: 1.5;" width="152" x="967" y="491.1563"/><text fill="#000000" font-family="sans-serif" font-size="14" lengthAdjust="spacingAndGlyphs" textLength="138" x="974" y="511.1514">AnddroidSurfaceGL</text><rect fill="#FEFECE" filter="url(#f1ev5s9tp9iyet)" height="30.2969" style="stroke: #A80036; stroke-width: 1.5;" width="148" x="1133" y="3"/><text fill="#000000" font-family="sans-serif" font-size="14" lengthAdjust="spacingAndGlyphs" textLength="134" x="1140" y="22.9951">AndroidContextGL</text><rect fill="#FEFECE" filter="url(#f1ev5s9tp9iyet)" height="30.2969" style="stroke: #A80036; stroke-width: 1.5;" width="148" x="1133" y="491.1563"/><text fill="#000000" font-family="sans-serif" font-size="14" lengthAdjust="spacingAndGlyphs" textLength="134" x="1140" y="511.1514">AndroidContextGL</text><polygon fill="#A80036" points="155,65.4297,165,69.4297,155,73.4297,159,69.4297" style="stroke: #A80036; stroke-width: 1.0;"/><line style="stroke: #A80036; stroke-width: 1.0;" x1="54" x2="161" y1="69.4297" y2="69.4297"/><text fill="#000000" font-family="sans-serif" font-size="13" lengthAdjust="spacingAndGlyphs" textLength="64" x="61" y="64.3638">consumer</text><polygon fill="#A80036" points="65,94.5625,55,98.5625,65,102.5625,61,98.5625" style="stroke: #A80036; stroke-width: 1.0;"/><line style="stroke: #A80036; stroke-width: 1.0;" x1="59" x2="166" y1="98.5625" y2="98.5625"/><text fill="#000000" font-family="sans-serif" font-size="13" lengthAdjust="spacingAndGlyphs" textLength="52" x="71" y="93.4966">DoDraw</text><line style="stroke: #A80036; stroke-width: 1.0;" x1="54" x2="96" y1="127.6953" y2="127.6953"/><line style="stroke: #A80036; stroke-width: 1.0;" x1="96" x2="96" y1="127.6953" y2="140.6953"/><line style="stroke: #A80036; stroke-width: 1.0;" x1="55" x2="96" y1="140.6953" y2="140.6953"/><polygon fill="#A80036" points="65,136.6953,55,140.6953,65,144.6953,61,140.6953" style="stroke: #A80036; stroke-width: 1.0;"/><text fill="#000000" font-family="sans-serif" font-size="13" lengthAdjust="spacingAndGlyphs" textLength="99" x="61" y="122.6294">DrawToSurface</text><polygon fill="#A80036" points="263,165.8281,273,169.8281,263,173.8281,267,169.8281" style="stroke: #A80036; stroke-width: 1.0;"/><line style="stroke: #A80036; stroke-width: 1.0;" x1="54" x2="269" y1="169.8281" y2="169.8281"/><text fill="#000000" font-family="sans-serif" font-size="13" lengthAdjust="spacingAndGlyphs" textLength="89" x="61" y="164.7622">AcquireFrame</text><polygon fill="#A80036" points="414,194.9609,424,198.9609,414,202.9609,418,198.9609" style="stroke: #A80036; stroke-width: 1.0;"/><line style="stroke: #A80036; stroke-width: 1.0;" x1="54" x2="420" y1="198.9609" y2="198.9609"/><text fill="#000000" font-family="sans-serif" font-size="13" lengthAdjust="spacingAndGlyphs" textLength="89" x="61" y="193.895">AcquireFrame</text><polygon fill="#A80036" points="563.5,224.0938,573.5,228.0938,563.5,232.0938,567.5,228.0938" style="stroke: #A80036; stroke-width: 1.0;"/><line style="stroke: #A80036; stroke-width: 1.0;" x1="54" x2="569.5" y1="228.0938" y2="228.0938"/><text fill="#000000" font-family="sans-serif" font-size="13" lengthAdjust="spacingAndGlyphs" textLength="42" x="61" y="223.0278">Raster</text><polygon fill="#A80036" points="677,253.2266,687,257.2266,677,261.2266,681,257.2266" style="stroke: #A80036; stroke-width: 1.0;"/><line style="stroke: #A80036; stroke-width: 1.0;" x1="575.5" x2="683" y1="257.2266" y2="257.2266"/><text fill="#000000" font-family="sans-serif" font-size="13" lengthAdjust="spacingAndGlyphs" textLength="40" x="582.5" y="252.1606">Preroll</text><polygon fill="#A80036" points="677,282.3594,687,286.3594,677,290.3594,681,286.3594" style="stroke: #A80036; stroke-width: 1.0;"/><line style="stroke: #A80036; stroke-width: 1.0;" x1="575.5" x2="683" y1="286.3594" y2="286.3594"/><text fill="#000000" font-family="sans-serif" font-size="13" lengthAdjust="spacingAndGlyphs" textLength="32" x="582.5" y="281.2935">Paint</text><polygon fill="#A80036" points="790.5,311.4922,800.5,315.4922,790.5,319.4922,794.5,315.4922" style="stroke: #A80036; stroke-width: 1.0;"/><line style="stroke: #A80036; stroke-width: 1.0;" x1="54" x2="796.5" y1="315.4922" y2="315.4922"/><text fill="#000000" font-family="sans-serif" font-size="13" lengthAdjust="spacingAndGlyphs" textLength="45" x="61" y="310.4263">Submit</text><line style="stroke: #A80036; stroke-width: 1.0;" x1="802.5" x2="844.5" y1="344.625" y2="344.625"/><line style="stroke: #A80036; stroke-width: 1.0;" x1="844.5" x2="844.5" y1="344.625" y2="357.625"/><line style="stroke: #A80036; stroke-width: 1.0;" x1="803.5" x2="844.5" y1="357.625" y2="357.625"/><polygon fill="#A80036" points="813.5,353.625,803.5,357.625,813.5,361.625,809.5,357.625" style="stroke: #A80036; stroke-width: 1.0;"/><text fill="#000000" font-family="sans-serif" font-size="13" lengthAdjust="spacingAndGlyphs" textLength="97" x="809.5" y="339.5591">PerformSubmit</text><polygon fill="#A80036" points="286,382.7578,276,386.7578,286,390.7578,282,386.7578" style="stroke: #A80036; stroke-width: 1.0;"/><line style="stroke: #A80036; stroke-width: 1.0;" x1="280" x2="801.5" y1="386.7578" y2="386.7578"/><text fill="#000000" font-family="sans-serif" font-size="13" lengthAdjust="spacingAndGlyphs" textLength="98" x="292" y="381.6919">PresentSurface</text><polygon fill="#A80036" points="902,411.8906,912,415.8906,902,419.8906,906,415.8906" style="stroke: #A80036; stroke-width: 1.0;"/><line style="stroke: #A80036; stroke-width: 1.0;" x1="275" x2="908" y1="415.8906" y2="415.8906"/><text fill="#000000" font-family="sans-serif" font-size="13" lengthAdjust="spacingAndGlyphs" textLength="31" x="282" y="410.8247">flush</text><polygon fill="#A80036" points="1033,441.0234,1043,445.0234,1033,449.0234,1037,445.0234" style="stroke: #A80036; stroke-width: 1.0;"/><line style="stroke: #A80036; stroke-width: 1.0;" x1="275" x2="1039" y1="445.0234" y2="445.0234"/><text fill="#000000" font-family="sans-serif" font-size="13" lengthAdjust="spacingAndGlyphs" textLength="117" x="282" y="439.9575">GLContextPresent</text><polygon fill="#A80036" points="1197,470.1563,1207,474.1563,1197,478.1563,1201,474.1563" style="stroke: #A80036; stroke-width: 1.0;"/><line style="stroke: #A80036; stroke-width: 1.0;" x1="1045" x2="1203" y1="474.1563" y2="474.1563"/><text fill="#000000" font-family="sans-serif" font-size="13" lengthAdjust="spacingAndGlyphs" textLength="81" x="1052" y="469.0903">SwapBuffers</text><!--MD5=[b478c07768e12fd7c319eb282a73b5f6]
@startuml
Rasterizer->Pipeline:consumer
Pipeline->Rasterizer:DoDraw
Rasterizer->Rasterizer:DrawToSurface

Rasterizer->GPUSurfaceGL:AcquireFrame
Rasterizer->CompositorContext:AcquireFrame
Rasterizer->ScopedFrame:Raster
ScopedFrame->LayerTree:Preroll
ScopedFrame->LayerTree:Paint
Rasterizer->SurfaceFrame:Submit
SurfaceFrame->SurfaceFrame:PerformSubmit
SurfaceFrame->GPUSurfaceGL:PresentSurface
GPUSurfaceGL->SkCanvas:flush
GPUSurfaceGL->AnddroidSurfaceGL:GLContextPresent
AnddroidSurfaceGL->AndroidContextGL:SwapBuffers
@enduml

PlantUML version 1.2020.11beta3(Unknown compile time)
(GPL source distribution)
Java Runtime: Java(TM) SE Runtime Environment
JVM: Java HotSpot(TM) 64-Bit Server VM
Default Encoding: UTF-8
Language: en
Country: US
--></g></svg>