<?xml version="1.0" encoding="UTF-8" standalone="no"?><svg xmlns="http://www.w3.org/2000/svg" xmlns:xlink="http://www.w3.org/1999/xlink" contentScriptType="application/ecmascript" contentStyleType="text/css" height="424px" preserveAspectRatio="none" style="width:1575px;height:424px;" version="1.1" viewBox="0 0 1575 424" width="1575px" zoomAndPan="magnify"><defs><filter height="300%" id="fewsnkny58ny3" width="300%" x="-1" y="-1"><feGaussianBlur result="blurOut" stdDeviation="2.0"/><feColorMatrix in="blurOut" result="blurOut2" type="matrix" values="0 0 0 0 0 0 0 0 0 0 0 0 0 0 0 0 0 0 .4 0"/><feOffset dx="4.0" dy="4.0" in="blurOut2" result="blurOut3"/><feBlend in="SourceGraphic" in2="blurOut3" mode="normal"/></filter></defs><g><text fill="#000000" font-family="sans-serif" font-size="18" lengthAdjust="spacingAndGlyphs" textLength="299" x="658" y="16.708">Layer结构图 (flutter/flow/layers/)</text><!--MD5=[9b15702a2b00e92ee46acad673cf839d]
class BackdropFilterLayer--><rect fill="#FEFECE" filter="url(#fewsnkny58ny3)" height="48" id="BackdropFilterLayer" style="stroke: #A80036; stroke-width: 1.5;" width="153" x="1130" y="365.9531"/><ellipse cx="1145" cy="381.9531" fill="#ADD1B2" rx="11" ry="11" style="stroke: #A80036; stroke-width: 1.0;"/><path d="M1147.3438,377.625 C1146.4063,377.1875 1145.8125,377.0469 1144.9375,377.0469 C1142.3125,377.0469 1140.3125,379.125 1140.3125,381.8438 L1140.3125,382.9688 C1140.3125,385.5469 1142.4219,387.4375 1145.3125,387.4375 C1146.5313,387.4375 1147.6875,387.1406 1148.4375,386.5938 C1149.0156,386.1875 1149.3438,385.7344 1149.3438,385.3438 C1149.3438,384.8906 1148.9531,384.5 1148.4844,384.5 C1148.2656,384.5 1148.0625,384.5781 1147.875,384.7656 C1147.4219,385.25 1147.4219,385.25 1147.2344,385.3438 C1146.8125,385.6094 1146.125,385.7344 1145.3594,385.7344 C1143.3125,385.7344 1142.0156,384.6406 1142.0156,382.9375 L1142.0156,381.8438 C1142.0156,380.0625 1143.2656,378.75 1145,378.75 C1145.5781,378.75 1146.1875,378.9063 1146.6563,379.1563 C1147.1406,379.4375 1147.3125,379.6563 1147.4063,380.0625 C1147.4688,380.4688 1147.5,380.5938 1147.6406,380.7188 C1147.7813,380.8594 1148.0156,380.9688 1148.2344,380.9688 C1148.5,380.9688 1148.7656,380.8281 1148.9375,380.6094 C1149.0469,380.4531 1149.0781,380.2656 1149.0781,379.8438 L1149.0781,378.4219 C1149.0781,377.9844 1149.0625,377.8594 1148.9688,377.7031 C1148.8125,377.4375 1148.5313,377.2969 1148.2344,377.2969 C1147.9375,377.2969 1147.7344,377.3906 1147.5156,377.7031 L1147.3438,377.625 Z "/><text fill="#000000" font-family="sans-serif" font-size="12" lengthAdjust="spacingAndGlyphs" textLength="121" x="1159" y="386.1074">BackdropFilterLayer</text><line style="stroke: #A80036; stroke-width: 1.5;" x1="1131" x2="1282" y1="397.9531" y2="397.9531"/><line style="stroke: #A80036; stroke-width: 1.5;" x1="1131" x2="1282" y1="405.9531" y2="405.9531"/><!--MD5=[935a854c05bf5f30b8cd9da2d31f2d9d]
class ClipPathLayer--><rect fill="#FEFECE" filter="url(#fewsnkny58ny3)" height="48" id="ClipPathLayer" style="stroke: #A80036; stroke-width: 1.5;" width="111" x="984" y="365.9531"/><ellipse cx="999" cy="381.9531" fill="#ADD1B2" rx="11" ry="11" style="stroke: #A80036; stroke-width: 1.0;"/><path d="M1001.3438,377.625 C1000.4063,377.1875 999.8125,377.0469 998.9375,377.0469 C996.3125,377.0469 994.3125,379.125 994.3125,381.8438 L994.3125,382.9688 C994.3125,385.5469 996.4219,387.4375 999.3125,387.4375 C1000.5313,387.4375 1001.6875,387.1406 1002.4375,386.5938 C1003.0156,386.1875 1003.3438,385.7344 1003.3438,385.3438 C1003.3438,384.8906 1002.9531,384.5 1002.4844,384.5 C1002.2656,384.5 1002.0625,384.5781 1001.875,384.7656 C1001.4219,385.25 1001.4219,385.25 1001.2344,385.3438 C1000.8125,385.6094 1000.125,385.7344 999.3594,385.7344 C997.3125,385.7344 996.0156,384.6406 996.0156,382.9375 L996.0156,381.8438 C996.0156,380.0625 997.2656,378.75 999,378.75 C999.5781,378.75 1000.1875,378.9063 1000.6563,379.1563 C1001.1406,379.4375 1001.3125,379.6563 1001.4063,380.0625 C1001.4688,380.4688 1001.5,380.5938 1001.6406,380.7188 C1001.7813,380.8594 1002.0156,380.9688 1002.2344,380.9688 C1002.5,380.9688 1002.7656,380.8281 1002.9375,380.6094 C1003.0469,380.4531 1003.0781,380.2656 1003.0781,379.8438 L1003.0781,378.4219 C1003.0781,377.9844 1003.0625,377.8594 1002.9688,377.7031 C1002.8125,377.4375 1002.5313,377.2969 1002.2344,377.2969 C1001.9375,377.2969 1001.7344,377.3906 1001.5156,377.7031 L1001.3438,377.625 Z "/><text fill="#000000" font-family="sans-serif" font-size="12" lengthAdjust="spacingAndGlyphs" textLength="79" x="1013" y="386.1074">ClipPathLayer</text><line style="stroke: #A80036; stroke-width: 1.5;" x1="985" x2="1094" y1="397.9531" y2="397.9531"/><line style="stroke: #A80036; stroke-width: 1.5;" x1="985" x2="1094" y1="405.9531" y2="405.9531"/><!--MD5=[dc3806c4be31f93358c35b105ec344ff]
class ColorFilterLayer--><rect fill="#FEFECE" filter="url(#fewsnkny58ny3)" height="48" id="ColorFilterLayer" style="stroke: #A80036; stroke-width: 1.5;" width="127" x="822" y="365.9531"/><ellipse cx="837" cy="381.9531" fill="#ADD1B2" rx="11" ry="11" style="stroke: #A80036; stroke-width: 1.0;"/><path d="M839.3438,377.625 C838.4063,377.1875 837.8125,377.0469 836.9375,377.0469 C834.3125,377.0469 832.3125,379.125 832.3125,381.8438 L832.3125,382.9688 C832.3125,385.5469 834.4219,387.4375 837.3125,387.4375 C838.5313,387.4375 839.6875,387.1406 840.4375,386.5938 C841.0156,386.1875 841.3438,385.7344 841.3438,385.3438 C841.3438,384.8906 840.9531,384.5 840.4844,384.5 C840.2656,384.5 840.0625,384.5781 839.875,384.7656 C839.4219,385.25 839.4219,385.25 839.2344,385.3438 C838.8125,385.6094 838.125,385.7344 837.3594,385.7344 C835.3125,385.7344 834.0156,384.6406 834.0156,382.9375 L834.0156,381.8438 C834.0156,380.0625 835.2656,378.75 837,378.75 C837.5781,378.75 838.1875,378.9063 838.6563,379.1563 C839.1406,379.4375 839.3125,379.6563 839.4063,380.0625 C839.4688,380.4688 839.5,380.5938 839.6406,380.7188 C839.7813,380.8594 840.0156,380.9688 840.2344,380.9688 C840.5,380.9688 840.7656,380.8281 840.9375,380.6094 C841.0469,380.4531 841.0781,380.2656 841.0781,379.8438 L841.0781,378.4219 C841.0781,377.9844 841.0625,377.8594 840.9688,377.7031 C840.8125,377.4375 840.5313,377.2969 840.2344,377.2969 C839.9375,377.2969 839.7344,377.3906 839.5156,377.7031 L839.3438,377.625 Z "/><text fill="#000000" font-family="sans-serif" font-size="12" lengthAdjust="spacingAndGlyphs" textLength="95" x="851" y="386.1074">ColorFilterLayer</text><line style="stroke: #A80036; stroke-width: 1.5;" x1="823" x2="948" y1="397.9531" y2="397.9531"/><line style="stroke: #A80036; stroke-width: 1.5;" x1="823" x2="948" y1="405.9531" y2="405.9531"/><!--MD5=[5103a8f931567daac5347ee314c4d7e4]
class OpacityLayer--><rect fill="#FEFECE" filter="url(#fewsnkny58ny3)" height="48" id="OpacityLayer" style="stroke: #A80036; stroke-width: 1.5;" width="111" x="676" y="365.9531"/><ellipse cx="691" cy="381.9531" fill="#ADD1B2" rx="11" ry="11" style="stroke: #A80036; stroke-width: 1.0;"/><path d="M693.3438,377.625 C692.4063,377.1875 691.8125,377.0469 690.9375,377.0469 C688.3125,377.0469 686.3125,379.125 686.3125,381.8438 L686.3125,382.9688 C686.3125,385.5469 688.4219,387.4375 691.3125,387.4375 C692.5313,387.4375 693.6875,387.1406 694.4375,386.5938 C695.0156,386.1875 695.3438,385.7344 695.3438,385.3438 C695.3438,384.8906 694.9531,384.5 694.4844,384.5 C694.2656,384.5 694.0625,384.5781 693.875,384.7656 C693.4219,385.25 693.4219,385.25 693.2344,385.3438 C692.8125,385.6094 692.125,385.7344 691.3594,385.7344 C689.3125,385.7344 688.0156,384.6406 688.0156,382.9375 L688.0156,381.8438 C688.0156,380.0625 689.2656,378.75 691,378.75 C691.5781,378.75 692.1875,378.9063 692.6563,379.1563 C693.1406,379.4375 693.3125,379.6563 693.4063,380.0625 C693.4688,380.4688 693.5,380.5938 693.6406,380.7188 C693.7813,380.8594 694.0156,380.9688 694.2344,380.9688 C694.5,380.9688 694.7656,380.8281 694.9375,380.6094 C695.0469,380.4531 695.0781,380.2656 695.0781,379.8438 L695.0781,378.4219 C695.0781,377.9844 695.0625,377.8594 694.9688,377.7031 C694.8125,377.4375 694.5313,377.2969 694.2344,377.2969 C693.9375,377.2969 693.7344,377.3906 693.5156,377.7031 L693.3438,377.625 Z "/><text fill="#000000" font-family="sans-serif" font-size="12" lengthAdjust="spacingAndGlyphs" textLength="79" x="705" y="386.1074">OpacityLayer</text><line style="stroke: #A80036; stroke-width: 1.5;" x1="677" x2="786" y1="397.9531" y2="397.9531"/><line style="stroke: #A80036; stroke-width: 1.5;" x1="677" x2="786" y1="405.9531" y2="405.9531"/><!--MD5=[43c3e45cc515fcb5b331ea4eea420f38]
class PhysicalShapeLayer--><rect fill="#FEFECE" filter="url(#fewsnkny58ny3)" height="48" id="PhysicalShapeLayer" style="stroke: #A80036; stroke-width: 1.5;" width="150" x="490.5" y="365.9531"/><ellipse cx="505.5" cy="381.9531" fill="#ADD1B2" rx="11" ry="11" style="stroke: #A80036; stroke-width: 1.0;"/><path d="M507.8438,377.625 C506.9063,377.1875 506.3125,377.0469 505.4375,377.0469 C502.8125,377.0469 500.8125,379.125 500.8125,381.8438 L500.8125,382.9688 C500.8125,385.5469 502.9219,387.4375 505.8125,387.4375 C507.0313,387.4375 508.1875,387.1406 508.9375,386.5938 C509.5156,386.1875 509.8438,385.7344 509.8438,385.3438 C509.8438,384.8906 509.4531,384.5 508.9844,384.5 C508.7656,384.5 508.5625,384.5781 508.375,384.7656 C507.9219,385.25 507.9219,385.25 507.7344,385.3438 C507.3125,385.6094 506.625,385.7344 505.8594,385.7344 C503.8125,385.7344 502.5156,384.6406 502.5156,382.9375 L502.5156,381.8438 C502.5156,380.0625 503.7656,378.75 505.5,378.75 C506.0781,378.75 506.6875,378.9063 507.1563,379.1563 C507.6406,379.4375 507.8125,379.6563 507.9063,380.0625 C507.9688,380.4688 508,380.5938 508.1406,380.7188 C508.2813,380.8594 508.5156,380.9688 508.7344,380.9688 C509,380.9688 509.2656,380.8281 509.4375,380.6094 C509.5469,380.4531 509.5781,380.2656 509.5781,379.8438 L509.5781,378.4219 C509.5781,377.9844 509.5625,377.8594 509.4688,377.7031 C509.3125,377.4375 509.0313,377.2969 508.7344,377.2969 C508.4375,377.2969 508.2344,377.3906 508.0156,377.7031 L507.8438,377.625 Z "/><text fill="#000000" font-family="sans-serif" font-size="12" lengthAdjust="spacingAndGlyphs" textLength="118" x="519.5" y="386.1074">PhysicalShapeLayer</text><line style="stroke: #A80036; stroke-width: 1.5;" x1="491.5" x2="639.5" y1="397.9531" y2="397.9531"/><line style="stroke: #A80036; stroke-width: 1.5;" x1="491.5" x2="639.5" y1="405.9531" y2="405.9531"/><!--MD5=[9df2064e3f1939dd6c9112754a3e337a]
class ShaderMaskLayer--><rect fill="#FEFECE" filter="url(#fewsnkny58ny3)" height="48" id="ShaderMaskLayer" style="stroke: #A80036; stroke-width: 1.5;" width="139" x="316" y="365.9531"/><ellipse cx="331" cy="381.9531" fill="#ADD1B2" rx="11" ry="11" style="stroke: #A80036; stroke-width: 1.0;"/><path d="M333.3438,377.625 C332.4063,377.1875 331.8125,377.0469 330.9375,377.0469 C328.3125,377.0469 326.3125,379.125 326.3125,381.8438 L326.3125,382.9688 C326.3125,385.5469 328.4219,387.4375 331.3125,387.4375 C332.5313,387.4375 333.6875,387.1406 334.4375,386.5938 C335.0156,386.1875 335.3438,385.7344 335.3438,385.3438 C335.3438,384.8906 334.9531,384.5 334.4844,384.5 C334.2656,384.5 334.0625,384.5781 333.875,384.7656 C333.4219,385.25 333.4219,385.25 333.2344,385.3438 C332.8125,385.6094 332.125,385.7344 331.3594,385.7344 C329.3125,385.7344 328.0156,384.6406 328.0156,382.9375 L328.0156,381.8438 C328.0156,380.0625 329.2656,378.75 331,378.75 C331.5781,378.75 332.1875,378.9063 332.6563,379.1563 C333.1406,379.4375 333.3125,379.6563 333.4063,380.0625 C333.4688,380.4688 333.5,380.5938 333.6406,380.7188 C333.7813,380.8594 334.0156,380.9688 334.2344,380.9688 C334.5,380.9688 334.7656,380.8281 334.9375,380.6094 C335.0469,380.4531 335.0781,380.2656 335.0781,379.8438 L335.0781,378.4219 C335.0781,377.9844 335.0625,377.8594 334.9688,377.7031 C334.8125,377.4375 334.5313,377.2969 334.2344,377.2969 C333.9375,377.2969 333.7344,377.3906 333.5156,377.7031 L333.3438,377.625 Z "/><text fill="#000000" font-family="sans-serif" font-size="12" lengthAdjust="spacingAndGlyphs" textLength="107" x="345" y="386.1074">ShaderMaskLayer</text><line style="stroke: #A80036; stroke-width: 1.5;" x1="317" x2="454" y1="397.9531" y2="397.9531"/><line style="stroke: #A80036; stroke-width: 1.5;" x1="317" x2="454" y1="405.9531" y2="405.9531"/><!--MD5=[2c3d397503ab26594292ff414f0190ad]
class TransformLayer--><rect fill="#FEFECE" filter="url(#fewsnkny58ny3)" height="48" id="TransformLayer" style="stroke: #A80036; stroke-width: 1.5;" width="126" x="154.5" y="365.9531"/><ellipse cx="169.5" cy="381.9531" fill="#ADD1B2" rx="11" ry="11" style="stroke: #A80036; stroke-width: 1.0;"/><path d="M171.8438,377.625 C170.9063,377.1875 170.3125,377.0469 169.4375,377.0469 C166.8125,377.0469 164.8125,379.125 164.8125,381.8438 L164.8125,382.9688 C164.8125,385.5469 166.9219,387.4375 169.8125,387.4375 C171.0313,387.4375 172.1875,387.1406 172.9375,386.5938 C173.5156,386.1875 173.8438,385.7344 173.8438,385.3438 C173.8438,384.8906 173.4531,384.5 172.9844,384.5 C172.7656,384.5 172.5625,384.5781 172.375,384.7656 C171.9219,385.25 171.9219,385.25 171.7344,385.3438 C171.3125,385.6094 170.625,385.7344 169.8594,385.7344 C167.8125,385.7344 166.5156,384.6406 166.5156,382.9375 L166.5156,381.8438 C166.5156,380.0625 167.7656,378.75 169.5,378.75 C170.0781,378.75 170.6875,378.9063 171.1563,379.1563 C171.6406,379.4375 171.8125,379.6563 171.9063,380.0625 C171.9688,380.4688 172,380.5938 172.1406,380.7188 C172.2813,380.8594 172.5156,380.9688 172.7344,380.9688 C173,380.9688 173.2656,380.8281 173.4375,380.6094 C173.5469,380.4531 173.5781,380.2656 173.5781,379.8438 L173.5781,378.4219 C173.5781,377.9844 173.5625,377.8594 173.4688,377.7031 C173.3125,377.4375 173.0313,377.2969 172.7344,377.2969 C172.4375,377.2969 172.2344,377.3906 172.0156,377.7031 L171.8438,377.625 Z "/><text fill="#000000" font-family="sans-serif" font-size="12" lengthAdjust="spacingAndGlyphs" textLength="94" x="183.5" y="386.1074">TransformLayer</text><line style="stroke: #A80036; stroke-width: 1.5;" x1="155.5" x2="279.5" y1="397.9531" y2="397.9531"/><line style="stroke: #A80036; stroke-width: 1.5;" x1="155.5" x2="279.5" y1="405.9531" y2="405.9531"/><!--MD5=[ffda4d4be0664511fa925c3022e2216c]
class PerformanceOverlayLayer--><rect fill="#FEFECE" filter="url(#fewsnkny58ny3)" height="48" id="PerformanceOverlayLayer" style="stroke: #A80036; stroke-width: 1.5;" width="188" x="1376.5" y="257.9531"/><ellipse cx="1391.5" cy="273.9531" fill="#ADD1B2" rx="11" ry="11" style="stroke: #A80036; stroke-width: 1.0;"/><path d="M1393.8438,269.625 C1392.9063,269.1875 1392.3125,269.0469 1391.4375,269.0469 C1388.8125,269.0469 1386.8125,271.125 1386.8125,273.8438 L1386.8125,274.9688 C1386.8125,277.5469 1388.9219,279.4375 1391.8125,279.4375 C1393.0313,279.4375 1394.1875,279.1406 1394.9375,278.5938 C1395.5156,278.1875 1395.8438,277.7344 1395.8438,277.3438 C1395.8438,276.8906 1395.4531,276.5 1394.9844,276.5 C1394.7656,276.5 1394.5625,276.5781 1394.375,276.7656 C1393.9219,277.25 1393.9219,277.25 1393.7344,277.3438 C1393.3125,277.6094 1392.625,277.7344 1391.8594,277.7344 C1389.8125,277.7344 1388.5156,276.6406 1388.5156,274.9375 L1388.5156,273.8438 C1388.5156,272.0625 1389.7656,270.75 1391.5,270.75 C1392.0781,270.75 1392.6875,270.9063 1393.1563,271.1563 C1393.6406,271.4375 1393.8125,271.6563 1393.9063,272.0625 C1393.9688,272.4688 1394,272.5938 1394.1406,272.7188 C1394.2813,272.8594 1394.5156,272.9688 1394.7344,272.9688 C1395,272.9688 1395.2656,272.8281 1395.4375,272.6094 C1395.5469,272.4531 1395.5781,272.2656 1395.5781,271.8438 L1395.5781,270.4219 C1395.5781,269.9844 1395.5625,269.8594 1395.4688,269.7031 C1395.3125,269.4375 1395.0313,269.2969 1394.7344,269.2969 C1394.4375,269.2969 1394.2344,269.3906 1394.0156,269.7031 L1393.8438,269.625 Z "/><text fill="#000000" font-family="sans-serif" font-size="12" lengthAdjust="spacingAndGlyphs" textLength="156" x="1405.5" y="278.1074">PerformanceOverlayLayer</text><line style="stroke: #A80036; stroke-width: 1.5;" x1="1377.5" x2="1563.5" y1="289.9531" y2="289.9531"/><line style="stroke: #A80036; stroke-width: 1.5;" x1="1377.5" x2="1563.5" y1="297.9531" y2="297.9531"/><!--MD5=[69227b2945761f9bbe6259a810fb0b5d]
class ChildSceneLayer--><rect fill="#FEFECE" filter="url(#fewsnkny58ny3)" height="48" id="ChildSceneLayer" style="stroke: #A80036; stroke-width: 1.5;" width="132" x="1209.5" y="257.9531"/><ellipse cx="1224.5" cy="273.9531" fill="#ADD1B2" rx="11" ry="11" style="stroke: #A80036; stroke-width: 1.0;"/><path d="M1226.8438,269.625 C1225.9063,269.1875 1225.3125,269.0469 1224.4375,269.0469 C1221.8125,269.0469 1219.8125,271.125 1219.8125,273.8438 L1219.8125,274.9688 C1219.8125,277.5469 1221.9219,279.4375 1224.8125,279.4375 C1226.0313,279.4375 1227.1875,279.1406 1227.9375,278.5938 C1228.5156,278.1875 1228.8438,277.7344 1228.8438,277.3438 C1228.8438,276.8906 1228.4531,276.5 1227.9844,276.5 C1227.7656,276.5 1227.5625,276.5781 1227.375,276.7656 C1226.9219,277.25 1226.9219,277.25 1226.7344,277.3438 C1226.3125,277.6094 1225.625,277.7344 1224.8594,277.7344 C1222.8125,277.7344 1221.5156,276.6406 1221.5156,274.9375 L1221.5156,273.8438 C1221.5156,272.0625 1222.7656,270.75 1224.5,270.75 C1225.0781,270.75 1225.6875,270.9063 1226.1563,271.1563 C1226.6406,271.4375 1226.8125,271.6563 1226.9063,272.0625 C1226.9688,272.4688 1227,272.5938 1227.1406,272.7188 C1227.2813,272.8594 1227.5156,272.9688 1227.7344,272.9688 C1228,272.9688 1228.2656,272.8281 1228.4375,272.6094 C1228.5469,272.4531 1228.5781,272.2656 1228.5781,271.8438 L1228.5781,270.4219 C1228.5781,269.9844 1228.5625,269.8594 1228.4688,269.7031 C1228.3125,269.4375 1228.0313,269.2969 1227.7344,269.2969 C1227.4375,269.2969 1227.2344,269.3906 1227.0156,269.7031 L1226.8438,269.625 Z "/><text fill="#000000" font-family="sans-serif" font-size="12" lengthAdjust="spacingAndGlyphs" textLength="100" x="1238.5" y="278.1074">ChildSceneLayer</text><line style="stroke: #A80036; stroke-width: 1.5;" x1="1210.5" x2="1340.5" y1="289.9531" y2="289.9531"/><line style="stroke: #A80036; stroke-width: 1.5;" x1="1210.5" x2="1340.5" y1="297.9531" y2="297.9531"/><!--MD5=[e523c00b94a5e72fffd2bada5d5227b4]
class PictureLayer--><rect fill="#FEFECE" filter="url(#fewsnkny58ny3)" height="48" id="PictureLayer" style="stroke: #A80036; stroke-width: 1.5;" width="105" x="1069" y="257.9531"/><ellipse cx="1084" cy="273.9531" fill="#ADD1B2" rx="11" ry="11" style="stroke: #A80036; stroke-width: 1.0;"/><path d="M1086.3438,269.625 C1085.4063,269.1875 1084.8125,269.0469 1083.9375,269.0469 C1081.3125,269.0469 1079.3125,271.125 1079.3125,273.8438 L1079.3125,274.9688 C1079.3125,277.5469 1081.4219,279.4375 1084.3125,279.4375 C1085.5313,279.4375 1086.6875,279.1406 1087.4375,278.5938 C1088.0156,278.1875 1088.3438,277.7344 1088.3438,277.3438 C1088.3438,276.8906 1087.9531,276.5 1087.4844,276.5 C1087.2656,276.5 1087.0625,276.5781 1086.875,276.7656 C1086.4219,277.25 1086.4219,277.25 1086.2344,277.3438 C1085.8125,277.6094 1085.125,277.7344 1084.3594,277.7344 C1082.3125,277.7344 1081.0156,276.6406 1081.0156,274.9375 L1081.0156,273.8438 C1081.0156,272.0625 1082.2656,270.75 1084,270.75 C1084.5781,270.75 1085.1875,270.9063 1085.6563,271.1563 C1086.1406,271.4375 1086.3125,271.6563 1086.4063,272.0625 C1086.4688,272.4688 1086.5,272.5938 1086.6406,272.7188 C1086.7813,272.8594 1087.0156,272.9688 1087.2344,272.9688 C1087.5,272.9688 1087.7656,272.8281 1087.9375,272.6094 C1088.0469,272.4531 1088.0781,272.2656 1088.0781,271.8438 L1088.0781,270.4219 C1088.0781,269.9844 1088.0625,269.8594 1087.9688,269.7031 C1087.8125,269.4375 1087.5313,269.2969 1087.2344,269.2969 C1086.9375,269.2969 1086.7344,269.3906 1086.5156,269.7031 L1086.3438,269.625 Z "/><text fill="#000000" font-family="sans-serif" font-size="12" lengthAdjust="spacingAndGlyphs" textLength="73" x="1098" y="278.1074">PictureLayer</text><line style="stroke: #A80036; stroke-width: 1.5;" x1="1070" x2="1173" y1="289.9531" y2="289.9531"/><line style="stroke: #A80036; stroke-width: 1.5;" x1="1070" x2="1173" y1="297.9531" y2="297.9531"/><!--MD5=[c1dff70842d2ecb536a3b883fd50db33]
class PlatformViewLayer--><rect fill="#FEFECE" filter="url(#fewsnkny58ny3)" height="48" id="PlatformViewLayer" style="stroke: #A80036; stroke-width: 1.5;" width="142" x="891.5" y="257.9531"/><ellipse cx="906.5" cy="273.9531" fill="#ADD1B2" rx="11" ry="11" style="stroke: #A80036; stroke-width: 1.0;"/><path d="M908.8438,269.625 C907.9063,269.1875 907.3125,269.0469 906.4375,269.0469 C903.8125,269.0469 901.8125,271.125 901.8125,273.8438 L901.8125,274.9688 C901.8125,277.5469 903.9219,279.4375 906.8125,279.4375 C908.0313,279.4375 909.1875,279.1406 909.9375,278.5938 C910.5156,278.1875 910.8438,277.7344 910.8438,277.3438 C910.8438,276.8906 910.4531,276.5 909.9844,276.5 C909.7656,276.5 909.5625,276.5781 909.375,276.7656 C908.9219,277.25 908.9219,277.25 908.7344,277.3438 C908.3125,277.6094 907.625,277.7344 906.8594,277.7344 C904.8125,277.7344 903.5156,276.6406 903.5156,274.9375 L903.5156,273.8438 C903.5156,272.0625 904.7656,270.75 906.5,270.75 C907.0781,270.75 907.6875,270.9063 908.1563,271.1563 C908.6406,271.4375 908.8125,271.6563 908.9063,272.0625 C908.9688,272.4688 909,272.5938 909.1406,272.7188 C909.2813,272.8594 909.5156,272.9688 909.7344,272.9688 C910,272.9688 910.2656,272.8281 910.4375,272.6094 C910.5469,272.4531 910.5781,272.2656 910.5781,271.8438 L910.5781,270.4219 C910.5781,269.9844 910.5625,269.8594 910.4688,269.7031 C910.3125,269.4375 910.0313,269.2969 909.7344,269.2969 C909.4375,269.2969 909.2344,269.3906 909.0156,269.7031 L908.8438,269.625 Z "/><text fill="#000000" font-family="sans-serif" font-size="12" lengthAdjust="spacingAndGlyphs" textLength="110" x="920.5" y="278.1074">PlatformViewLayer</text><line style="stroke: #A80036; stroke-width: 1.5;" x1="892.5" x2="1032.5" y1="289.9531" y2="289.9531"/><line style="stroke: #A80036; stroke-width: 1.5;" x1="892.5" x2="1032.5" y1="297.9531" y2="297.9531"/><!--MD5=[0a4502577c5dab113776d3b1358e7072]
class TextureLayer--><rect fill="#FEFECE" filter="url(#fewsnkny58ny3)" height="48" id="TextureLayer" style="stroke: #A80036; stroke-width: 1.5;" width="111" x="745" y="257.9531"/><ellipse cx="760" cy="273.9531" fill="#ADD1B2" rx="11" ry="11" style="stroke: #A80036; stroke-width: 1.0;"/><path d="M762.3438,269.625 C761.4063,269.1875 760.8125,269.0469 759.9375,269.0469 C757.3125,269.0469 755.3125,271.125 755.3125,273.8438 L755.3125,274.9688 C755.3125,277.5469 757.4219,279.4375 760.3125,279.4375 C761.5313,279.4375 762.6875,279.1406 763.4375,278.5938 C764.0156,278.1875 764.3438,277.7344 764.3438,277.3438 C764.3438,276.8906 763.9531,276.5 763.4844,276.5 C763.2656,276.5 763.0625,276.5781 762.875,276.7656 C762.4219,277.25 762.4219,277.25 762.2344,277.3438 C761.8125,277.6094 761.125,277.7344 760.3594,277.7344 C758.3125,277.7344 757.0156,276.6406 757.0156,274.9375 L757.0156,273.8438 C757.0156,272.0625 758.2656,270.75 760,270.75 C760.5781,270.75 761.1875,270.9063 761.6563,271.1563 C762.1406,271.4375 762.3125,271.6563 762.4063,272.0625 C762.4688,272.4688 762.5,272.5938 762.6406,272.7188 C762.7813,272.8594 763.0156,272.9688 763.2344,272.9688 C763.5,272.9688 763.7656,272.8281 763.9375,272.6094 C764.0469,272.4531 764.0781,272.2656 764.0781,271.8438 L764.0781,270.4219 C764.0781,269.9844 764.0625,269.8594 763.9688,269.7031 C763.8125,269.4375 763.5313,269.2969 763.2344,269.2969 C762.9375,269.2969 762.7344,269.3906 762.5156,269.7031 L762.3438,269.625 Z "/><text fill="#000000" font-family="sans-serif" font-size="12" lengthAdjust="spacingAndGlyphs" textLength="79" x="774" y="278.1074">TextureLayer</text><line style="stroke: #A80036; stroke-width: 1.5;" x1="746" x2="855" y1="289.9531" y2="289.9531"/><line style="stroke: #A80036; stroke-width: 1.5;" x1="746" x2="855" y1="297.9531" y2="297.9531"/><!--MD5=[62fb110f7800b110e13db3af2b3f9176]
class LayerTree--><rect fill="#FEFECE" filter="url(#fewsnkny58ny3)" height="60.8047" id="LayerTree" style="stroke: #A80036; stroke-width: 1.5;" width="93" x="995" y="28.9531"/><ellipse cx="1010" cy="44.9531" fill="#ADD1B2" rx="11" ry="11" style="stroke: #A80036; stroke-width: 1.0;"/><path d="M1012.3438,40.625 C1011.4063,40.1875 1010.8125,40.0469 1009.9375,40.0469 C1007.3125,40.0469 1005.3125,42.125 1005.3125,44.8438 L1005.3125,45.9688 C1005.3125,48.5469 1007.4219,50.4375 1010.3125,50.4375 C1011.5313,50.4375 1012.6875,50.1406 1013.4375,49.5938 C1014.0156,49.1875 1014.3438,48.7344 1014.3438,48.3438 C1014.3438,47.8906 1013.9531,47.5 1013.4844,47.5 C1013.2656,47.5 1013.0625,47.5781 1012.875,47.7656 C1012.4219,48.25 1012.4219,48.25 1012.2344,48.3438 C1011.8125,48.6094 1011.125,48.7344 1010.3594,48.7344 C1008.3125,48.7344 1007.0156,47.6406 1007.0156,45.9375 L1007.0156,44.8438 C1007.0156,43.0625 1008.2656,41.75 1010,41.75 C1010.5781,41.75 1011.1875,41.9063 1011.6563,42.1563 C1012.1406,42.4375 1012.3125,42.6563 1012.4063,43.0625 C1012.4688,43.4688 1012.5,43.5938 1012.6406,43.7188 C1012.7813,43.8594 1013.0156,43.9688 1013.2344,43.9688 C1013.5,43.9688 1013.7656,43.8281 1013.9375,43.6094 C1014.0469,43.4531 1014.0781,43.2656 1014.0781,42.8438 L1014.0781,41.4219 C1014.0781,40.9844 1014.0625,40.8594 1013.9688,40.7031 C1013.8125,40.4375 1013.5313,40.2969 1013.2344,40.2969 C1012.9375,40.2969 1012.7344,40.3906 1012.5156,40.7031 L1012.3438,40.625 Z "/><text fill="#000000" font-family="sans-serif" font-size="12" lengthAdjust="spacingAndGlyphs" textLength="61" x="1024" y="49.1074">LayerTree</text><line style="stroke: #A80036; stroke-width: 1.5;" x1="996" x2="1087" y1="60.9531" y2="60.9531"/><rect fill="none" height="6" style="stroke: #C82930; stroke-width: 1.0;" width="6" x="1003" y="68.9531"/><text fill="#000000" font-family="sans-serif" font-size="11" lengthAdjust="spacingAndGlyphs" textLength="63" x="1015" y="75.1636">root_layer_</text><line style="stroke: #A80036; stroke-width: 1.5;" x1="996" x2="1087" y1="81.7578" y2="81.7578"/><!--MD5=[a97cfd095b0077d714bcddc8cbc855aa]
class Layer--><rect fill="#FEFECE" filter="url(#fewsnkny58ny3)" height="48" id="Layer" style="stroke: #A80036; stroke-width: 1.5;" width="65" x="1009" y="149.9531"/><ellipse cx="1024" cy="165.9531" fill="#ADD1B2" rx="11" ry="11" style="stroke: #A80036; stroke-width: 1.0;"/><path d="M1026.3438,161.625 C1025.4063,161.1875 1024.8125,161.0469 1023.9375,161.0469 C1021.3125,161.0469 1019.3125,163.125 1019.3125,165.8438 L1019.3125,166.9688 C1019.3125,169.5469 1021.4219,171.4375 1024.3125,171.4375 C1025.5313,171.4375 1026.6875,171.1406 1027.4375,170.5938 C1028.0156,170.1875 1028.3438,169.7344 1028.3438,169.3438 C1028.3438,168.8906 1027.9531,168.5 1027.4844,168.5 C1027.2656,168.5 1027.0625,168.5781 1026.875,168.7656 C1026.4219,169.25 1026.4219,169.25 1026.2344,169.3438 C1025.8125,169.6094 1025.125,169.7344 1024.3594,169.7344 C1022.3125,169.7344 1021.0156,168.6406 1021.0156,166.9375 L1021.0156,165.8438 C1021.0156,164.0625 1022.2656,162.75 1024,162.75 C1024.5781,162.75 1025.1875,162.9063 1025.6563,163.1563 C1026.1406,163.4375 1026.3125,163.6563 1026.4063,164.0625 C1026.4688,164.4688 1026.5,164.5938 1026.6406,164.7188 C1026.7813,164.8594 1027.0156,164.9688 1027.2344,164.9688 C1027.5,164.9688 1027.7656,164.8281 1027.9375,164.6094 C1028.0469,164.4531 1028.0781,164.2656 1028.0781,163.8438 L1028.0781,162.4219 C1028.0781,161.9844 1028.0625,161.8594 1027.9688,161.7031 C1027.8125,161.4375 1027.5313,161.2969 1027.2344,161.2969 C1026.9375,161.2969 1026.7344,161.3906 1026.5156,161.7031 L1026.3438,161.625 Z "/><text fill="#000000" font-family="sans-serif" font-size="12" lengthAdjust="spacingAndGlyphs" textLength="33" x="1038" y="170.1074">Layer</text><line style="stroke: #A80036; stroke-width: 1.5;" x1="1010" x2="1073" y1="181.9531" y2="181.9531"/><line style="stroke: #A80036; stroke-width: 1.5;" x1="1010" x2="1073" y1="189.9531" y2="189.9531"/><!--MD5=[66d36552ac953dc462dd6f287bfed117]
class ContainerLayer--><rect fill="#FEFECE" filter="url(#fewsnkny58ny3)" height="48" id="ContainerLayer" style="stroke: #A80036; stroke-width: 1.5;" width="122" x="587.5" y="257.9531"/><ellipse cx="602.5" cy="273.9531" fill="#ADD1B2" rx="11" ry="11" style="stroke: #A80036; stroke-width: 1.0;"/><path d="M604.8438,269.625 C603.9063,269.1875 603.3125,269.0469 602.4375,269.0469 C599.8125,269.0469 597.8125,271.125 597.8125,273.8438 L597.8125,274.9688 C597.8125,277.5469 599.9219,279.4375 602.8125,279.4375 C604.0313,279.4375 605.1875,279.1406 605.9375,278.5938 C606.5156,278.1875 606.8438,277.7344 606.8438,277.3438 C606.8438,276.8906 606.4531,276.5 605.9844,276.5 C605.7656,276.5 605.5625,276.5781 605.375,276.7656 C604.9219,277.25 604.9219,277.25 604.7344,277.3438 C604.3125,277.6094 603.625,277.7344 602.8594,277.7344 C600.8125,277.7344 599.5156,276.6406 599.5156,274.9375 L599.5156,273.8438 C599.5156,272.0625 600.7656,270.75 602.5,270.75 C603.0781,270.75 603.6875,270.9063 604.1563,271.1563 C604.6406,271.4375 604.8125,271.6563 604.9063,272.0625 C604.9688,272.4688 605,272.5938 605.1406,272.7188 C605.2813,272.8594 605.5156,272.9688 605.7344,272.9688 C606,272.9688 606.2656,272.8281 606.4375,272.6094 C606.5469,272.4531 606.5781,272.2656 606.5781,271.8438 L606.5781,270.4219 C606.5781,269.9844 606.5625,269.8594 606.4688,269.7031 C606.3125,269.4375 606.0313,269.2969 605.7344,269.2969 C605.4375,269.2969 605.2344,269.3906 605.0156,269.7031 L604.8438,269.625 Z "/><text fill="#000000" font-family="sans-serif" font-size="12" lengthAdjust="spacingAndGlyphs" textLength="90" x="616.5" y="278.1074">ContainerLayer</text><line style="stroke: #A80036; stroke-width: 1.5;" x1="588.5" x2="708.5" y1="289.9531" y2="289.9531"/><line style="stroke: #A80036; stroke-width: 1.5;" x1="588.5" x2="708.5" y1="297.9531" y2="297.9531"/><!--MD5=[765597a8b6e9673535eb0cfa695a597f]
class ClipRectLayer--><rect fill="#FEFECE" filter="url(#fewsnkny58ny3)" height="48" id="ClipRectLayer" style="stroke: #A80036; stroke-width: 1.5;" width="113" x="6" y="365.9531"/><ellipse cx="21" cy="381.9531" fill="#ADD1B2" rx="11" ry="11" style="stroke: #A80036; stroke-width: 1.0;"/><path d="M23.3438,377.625 C22.4063,377.1875 21.8125,377.0469 20.9375,377.0469 C18.3125,377.0469 16.3125,379.125 16.3125,381.8438 L16.3125,382.9688 C16.3125,385.5469 18.4219,387.4375 21.3125,387.4375 C22.5313,387.4375 23.6875,387.1406 24.4375,386.5938 C25.0156,386.1875 25.3438,385.7344 25.3438,385.3438 C25.3438,384.8906 24.9531,384.5 24.4844,384.5 C24.2656,384.5 24.0625,384.5781 23.875,384.7656 C23.4219,385.25 23.4219,385.25 23.2344,385.3438 C22.8125,385.6094 22.125,385.7344 21.3594,385.7344 C19.3125,385.7344 18.0156,384.6406 18.0156,382.9375 L18.0156,381.8438 C18.0156,380.0625 19.2656,378.75 21,378.75 C21.5781,378.75 22.1875,378.9063 22.6563,379.1563 C23.1406,379.4375 23.3125,379.6563 23.4063,380.0625 C23.4688,380.4688 23.5,380.5938 23.6406,380.7188 C23.7813,380.8594 24.0156,380.9688 24.2344,380.9688 C24.5,380.9688 24.7656,380.8281 24.9375,380.6094 C25.0469,380.4531 25.0781,380.2656 25.0781,379.8438 L25.0781,378.4219 C25.0781,377.9844 25.0625,377.8594 24.9688,377.7031 C24.8125,377.4375 24.5313,377.2969 24.2344,377.2969 C23.9375,377.2969 23.7344,377.3906 23.5156,377.7031 L23.3438,377.625 Z "/><text fill="#000000" font-family="sans-serif" font-size="12" lengthAdjust="spacingAndGlyphs" textLength="81" x="35" y="386.1074">ClipRectLayer</text><line style="stroke: #A80036; stroke-width: 1.5;" x1="7" x2="118" y1="397.9531" y2="397.9531"/><line style="stroke: #A80036; stroke-width: 1.5;" x1="7" x2="118" y1="405.9531" y2="405.9531"/><!--MD5=[1822ff1d86d8e36b85e7f898189d2e13]
reverse link LayerTree to Layer--><path d="M1041.5,103.3151 C1041.5,119.0391 1041.5,136.2461 1041.5,149.6221 " fill="none" id="LayerTree&lt;-Layer" style="stroke: #A80036; stroke-width: 1.0;"/><polygon fill="#A80036" points="1041.5,90.0111,1037.5,96.0111,1041.5,102.0111,1045.5,96.0111,1041.5,90.0111" style="stroke: #A80036; stroke-width: 1.0;"/><!--MD5=[df9bf6d143cf1e9262d5898a146ffbd0]
reverse link Layer to ContainerLayer--><path d="M988.933,179.2941 C925.516,185.7811 816.461,200.9701 728.5,233.9531 C712.361,240.0051 695.738,249.2081 681.854,257.8721 " fill="none" id="Layer&lt;-ContainerLayer" style="stroke: #A80036; stroke-width: 1.0;"/><polygon fill="none" points="988.398,172.3131,1008.97,177.3801,989.729,186.2501,988.398,172.3131" style="stroke: #A80036; stroke-width: 1.0;"/><!--MD5=[edd243ee20c486b6bd82cf0105523093]
reverse link Layer to PerformanceOverlayLayer--><path d="M1094.23,181.1691 C1158,189.4971 1268.15,206.4941 1359.5,233.9531 C1380.64,240.3081 1403.21,249.4081 1422.44,257.9101 " fill="none" id="Layer&lt;-PerformanceOverlayLayer" style="stroke: #A80036; stroke-width: 1.0;"/><polygon fill="none" points="1093.06,188.0771,1074.1,178.6281,1094.82,174.1871,1093.06,188.0771" style="stroke: #A80036; stroke-width: 1.0;"/><!--MD5=[0132fb92e1bc08f582cedc4361326dee]
reverse link Layer to ChildSceneLayer--><path d="M1093.09,193.2721 C1122.36,204.1551 1159.45,218.7671 1191.5,233.9531 C1206.6,241.1081 1222.72,249.8441 1236.76,257.8351 " fill="none" id="Layer&lt;-ChildSceneLayer" style="stroke: #A80036; stroke-width: 1.0;"/><polygon fill="none" points="1090.6,199.8171,1074.22,186.3721,1095.41,186.6691,1090.6,199.8171" style="stroke: #A80036; stroke-width: 1.0;"/><!--MD5=[a9e24616c8c7142765d4826b2d1ff619]
reverse link Layer to PictureLayer--><path d="M1071.07,214.1311 C1082.1,228.7531 1094.28,244.8821 1103.9,257.6311 " fill="none" id="Layer&lt;-PictureLayer" style="stroke: #A80036; stroke-width: 1.0;"/><polygon fill="none" points="1065.32,218.1341,1058.86,197.9531,1076.49,209.7001,1065.32,218.1341" style="stroke: #A80036; stroke-width: 1.0;"/><!--MD5=[0f665e9b23cefba7452a9b391d08fd98]
reverse link Layer to PlatformViewLayer--><path d="M1012.3,214.1311 C1001.404,228.7531 989.383,244.8821 979.881,257.6311 " fill="none" id="Layer&lt;-PlatformViewLayer" style="stroke: #A80036; stroke-width: 1.0;"/><polygon fill="none" points="1006.79,209.8071,1024.36,197.9531,1018.02,218.1731,1006.79,209.8071" style="stroke: #A80036; stroke-width: 1.0;"/><!--MD5=[66697b6db72051e72bc73d4ece9043a1]
reverse link Layer to TextureLayer--><path d="M989.54,189.9661 C955.947,200.4791 911.711,215.8531 874.5,233.9531 C860.54,240.7431 845.957,249.5841 833.463,257.7631 " fill="none" id="Layer&lt;-TextureLayer" style="stroke: #A80036; stroke-width: 1.0;"/><polygon fill="none" points="987.752,183.1941,1008.92,184.0681,991.827,196.5871,987.752,183.1941" style="stroke: #A80036; stroke-width: 1.0;"/><!--MD5=[2a7a03d0512c0f8e1fb1ed1e6d5b872d]
reverse link ContainerLayer to BackdropFilterLayer--><path d="M696.671,316.3771 C706.777,321.8921 717.667,326.8241 728.5,329.9531 C810.522,353.6461 1029.73,321.0421 1112.5,341.9531 C1132.31,346.9582 1152.78,356.5799 1169.54,365.8207 " fill="none" id="ContainerLayer&lt;-BackdropFilterLayer" style="stroke: #A80036; stroke-width: 1.0;"/><polygon fill="none" points="693.06,322.3741,679.508,306.0841,700.26,310.3671,693.06,322.3741" style="stroke: #A80036; stroke-width: 1.0;"/><!--MD5=[e06dc8756c700c3053eee0d9d5e29e05]
reverse link ContainerLayer to ClipPathLayer--><path d="M697.366,316.5661 C707.285,321.9531 717.928,326.7891 728.5,329.9531 C829.966,360.3178 865.675,309.5221 966.5,341.9531 C982.428,347.0763 998.267,356.5929 1011.1,365.7298 " fill="none" id="ContainerLayer&lt;-ClipPathLayer" style="stroke: #A80036; stroke-width: 1.0;"/><polygon fill="none" points="693.529,322.4281,679.935,306.1731,700.699,310.4031,693.529,322.4281" style="stroke: #A80036; stroke-width: 1.0;"/><!--MD5=[734f0bca4a2171f1b007d78561b953f9]
reverse link ContainerLayer to ClipRectLayer--><path d="M566.845,288.0561 C443.429,296.5021 215.6,315.1551 138.5,341.9531 C122.527,347.5048 106.378,356.8495 93.099,365.7507 " fill="none" id="ContainerLayer&lt;-ClipRectLayer" style="stroke: #A80036; stroke-width: 1.0;"/><polygon fill="none" points="566.743,281.0481,587.166,286.6941,567.68,295.0161,566.743,281.0481" style="stroke: #A80036; stroke-width: 1.0;"/><!--MD5=[81b2b4ec6970d96c1e1f0ee5f10b5b43]
reverse link ContainerLayer to ColorFilterLayer--><path d="M698.831,316.3131 C708.383,321.5361 718.519,326.3791 728.5,329.9531 C760.694,341.4821 772.275,330.5111 804.5,341.9531 C821.047,347.8284 838.049,357.1114 852.176,365.8812 " fill="none" id="ContainerLayer&lt;-ColorFilterLayer" style="stroke: #A80036; stroke-width: 1.0;"/><polygon fill="none" points="695.058,322.2151,681.376,306.0351,702.162,310.1511,695.058,322.2151" style="stroke: #A80036; stroke-width: 1.0;"/><!--MD5=[afb3a7e41b3f132fa1063069c7b4a8cb]
reverse link ContainerLayer to OpacityLayer--><path d="M679.177,322.1311 C690.626,336.7531 703.256,352.8826 713.239,365.6315 " fill="none" id="ContainerLayer&lt;-OpacityLayer" style="stroke: #A80036; stroke-width: 1.0;"/><polygon fill="none" points="673.329,326.0161,666.51,305.9531,684.351,317.3851,673.329,326.0161" style="stroke: #A80036; stroke-width: 1.0;"/><!--MD5=[edd598aef4d18cb719c08d798f1f02c9]
reverse link ContainerLayer to PhysicalShapeLayer--><path d="M617.823,322.1311 C606.374,336.7531 593.744,352.8826 583.761,365.6315 " fill="none" id="ContainerLayer&lt;-PhysicalShapeLayer" style="stroke: #A80036; stroke-width: 1.0;"/><polygon fill="none" points="612.649,317.3851,630.49,305.9531,623.671,326.0161,612.649,317.3851" style="stroke: #A80036; stroke-width: 1.0;"/><!--MD5=[e60192f39dacaf45b253be366c77892d]
reverse link ContainerLayer to ShaderMaskLayer--><path d="M568.132,306.9641 C538.031,316.7571 503.8,328.8611 473.5,341.9531 C457.441,348.8918 440.357,357.6712 425.555,365.7589 " fill="none" id="ContainerLayer&lt;-ShaderMaskLayer" style="stroke: #A80036; stroke-width: 1.0;"/><polygon fill="none" points="566.051,300.2801,587.233,300.8751,570.303,313.6191,566.051,300.2801" style="stroke: #A80036; stroke-width: 1.0;"/><!--MD5=[8e47d5129e50366b73e61d23543e08f0]
reverse link ContainerLayer to TransformLayer--><path d="M567.052,288.3881 C494.746,295.1401 387.126,309.9641 298.5,341.9531 C282.137,347.8592 265.302,357.039 251.248,365.724 " fill="none" id="ContainerLayer&lt;-TransformLayer" style="stroke: #A80036; stroke-width: 1.0;"/><polygon fill="none" points="566.847,281.3801,587.38,286.6161,568.063,295.3271,566.847,281.3801" style="stroke: #A80036; stroke-width: 1.0;"/><!--MD5=[0fac404cb5bccba8d4b18f95204ec76c]
@startuml
Title: Layer结构图 (flutter/flow/layers/)

class LayerTree{
    - root_layer_
}

together {
    class BackdropFilterLayer
    class ClipPathLayer
    class ColorFilterLayer
    class OpacityLayer
    class PhysicalShapeLayer
    class ShaderMaskLayer
    class TransformLayer
}

together {
    class PerformanceOverlayLayer
    class ChildSceneLayer
    class ColorFilterLayer
    class PictureLayer
    class PlatformViewLayer
    class TextureLayer
}



LayerTree *- - Layer
Layer <|- - ContainerLayer
Layer <|- - PerformanceOverlayLayer
Layer <|- - ChildSceneLayer
Layer <|- - PictureLayer
Layer <|- - PlatformViewLayer
Layer <|- - TextureLayer

ContainerLayer <|- - BackdropFilterLayer
ContainerLayer <|- - ClipPathLayer
ContainerLayer <|- - ClipRectLayer
ContainerLayer <|- - ColorFilterLayer
ContainerLayer <|- - OpacityLayer
ContainerLayer <|- - PhysicalShapeLayer
ContainerLayer <|- - ShaderMaskLayer
ContainerLayer <|- - TransformLayer
@enduml

PlantUML version 1.2020.11(Sat May 30 10:13:43 UTC 2020)
(GPL source distribution)
Java Runtime: Java(TM) SE Runtime Environment
JVM: Java HotSpot(TM) 64-Bit Server VM
Default Encoding: UTF-8
Language: en
Country: US
--></g></svg>